LinguisticsPro-BoldItalic.ufo
<glyph name="exclam" format="2">
  <advance width="280"/>
  <unicode hex="0021"/>
  <outline>
    <contour>
      <point x="157" y="217" type="line"/>
      <point x="193" y="603" type="line" smooth="yes"/>
      <point x="200" y="673"/>
      <point x="214" y="707"/>
      <point x="296" y="707" type="curve" smooth="yes"/>
      <point x="379" y="707"/>
      <point x="379" y="673"/>
      <point x="353" y="603" type="curve" smooth="yes"/>
      <point x="212" y="217" type="line"/>
    </contour>
    <contour>
      <point x="67" y="67" type="curve" smooth="yes"/>
      <point x="67" y="128"/>
      <point x="110" y="166"/>
      <point x="163" y="166" type="curve" smooth="yes"/>
      <point x="221" y="166"/>
      <point x="247" y="129"/>
      <point x="247" y="88" type="curve" smooth="yes"/>
      <point x="247" y="27"/>
      <point x="205" y="-12"/>
      <point x="154" y="-12" type="curve" smooth="yes"/>
      <point x="94" y="-12"/>
      <point x="67" y="24"/>
    </contour>
  </outline>
</glyph>
<glyph name="quotedbl" format="2">
  <advance width="455"/>
  <unicode hex="0022"/>
  <outline>
    <contour>
      <point x="380" y="407" type="line"/>
      <point x="388" y="630" type="line" smooth="yes"/>
      <point x="389" y="682"/>
      <point x="409" y="707"/>
      <point x="471" y="707" type="curve" smooth="yes"/>
      <point x="533" y="707"/>
      <point x="543" y="683"/>
      <point x="521" y="630" type="curve" smooth="yes"/>
      <point x="426" y="407" type="line"/>
    </contour>
    <contour>
      <point x="177" y="407" type="line"/>
      <point x="185" y="630" type="line" smooth="yes"/>
      <point x="186" y="682"/>
      <point x="206" y="707"/>
      <point x="268" y="707" type="curve" smooth="yes"/>
      <point x="330" y="707"/>
      <point x="340" y="683"/>
      <point x="318" y="630" type="curve" smooth="yes"/>
      <point x="223" y="407" type="line"/>
    </contour>
  </outline>
</glyph>
<glyph name="numbersign" format="2">
  <advance width="560"/>
  <unicode hex="0023"/>
  <outline>
    <contour>
      <point x="72" y="219" type="line"/>
      <point x="98" y="291" type="line"/>
      <point x="204" y="291" type="line"/>
      <point x="242" y="398" type="line"/>
      <point x="135" y="398" type="line"/>
      <point x="161" y="470" type="line"/>
      <point x="267" y="470" type="line"/>
      <point x="337" y="668" type="line"/>
      <point x="413" y="668" type="line"/>
      <point x="344" y="470" type="line"/>
      <point x="456" y="470" type="line"/>
      <point x="526" y="668" type="line"/>
      <point x="601" y="668" type="line"/>
      <point x="532" y="470" type="line"/>
      <point x="641" y="470" type="line"/>
      <point x="615" y="398" type="line"/>
      <point x="507" y="398" type="line"/>
      <point x="469" y="291" type="line"/>
      <point x="578" y="291" type="line"/>
      <point x="552" y="219" type="line"/>
      <point x="444" y="219" type="line"/>
      <point x="367" y="0" type="line"/>
      <point x="291" y="0" type="line"/>
      <point x="368" y="219" type="line"/>
      <point x="256" y="219" type="line"/>
      <point x="179" y="0" type="line"/>
      <point x="102" y="0" type="line"/>
      <point x="179" y="219" type="line"/>
    </contour>
    <contour>
      <point x="281" y="291" type="line"/>
      <point x="393" y="291" type="line"/>
      <point x="431" y="398" type="line"/>
      <point x="319" y="398" type="line"/>
    </contour>
  </outline>
</glyph>
<glyph name="quotesingle" format="2">
  <advance width="246"/>
  <unicode hex="0027"/>
  <outline>
    <contour>
      <point x="169" y="376" type="line"/>
      <point x="180" y="630" type="line" smooth="yes"/>
      <point x="182" y="682"/>
      <point x="199" y="707"/>
      <point x="261" y="707" type="curve" smooth="yes"/>
      <point x="323" y="707"/>
      <point x="331" y="683"/>
      <point x="311" y="630" type="curve" smooth="yes"/>
      <point x="215" y="376" type="line"/>
    </contour>
  </outline>
</glyph>
<glyph name="parenleft" format="2">
  <advance width="350"/>
  <unicode hex="0028"/>
  <outline>
    <contour>
      <point x="128" y="37" type="curve" smooth="yes"/>
      <point x="114" y="123"/>
      <point x="128" y="225"/>
      <point x="145" y="301" type="curve" smooth="yes"/>
      <point x="161" y="371"/>
      <point x="186" y="471"/>
      <point x="236" y="554" type="curve" smooth="yes"/>
      <point x="293" y="645"/>
      <point x="371" y="704"/>
      <point x="473" y="699" type="curve"/>
      <point x="472" y="665" type="line"/>
      <point x="339" y="642"/>
      <point x="266" y="385"/>
      <point x="244" y="282" type="curve"/>
      <point x="220" y="179"/>
      <point x="191" y="-65"/>
      <point x="292" y="-101" type="curve"/>
      <point x="280" y="-135" type="line"/>
      <point x="192" y="-125"/>
      <point x="144" y="-59"/>
    </contour>
  </outline>
</glyph>
<glyph name="asterisk" format="2">
  <advance width="500"/>
  <unicode hex="002A"/>
  <outline>
    <contour>
      <point x="164" y="413" type="curve" smooth="yes"/>
      <point x="150" y="441"/>
      <point x="154" y="468"/>
      <point x="183" y="475" type="curve" smooth="yes"/>
      <point x="299" y="503" type="line" smooth="yes"/>
      <point x="323" y="509"/>
      <point x="324" y="525"/>
      <point x="298" y="532" type="curve" smooth="yes"/>
      <point x="219" y="553" type="line" smooth="yes"/>
      <point x="189" y="561"/>
      <point x="190" y="596"/>
      <point x="206" y="618" type="curve" smooth="yes"/>
      <point x="225" y="644"/>
      <point x="255" y="650"/>
      <point x="270" y="633" type="curve" smooth="yes"/>
      <point x="325" y="569" type="line" smooth="yes"/>
      <point x="341" y="551"/>
      <point x="355" y="562"/>
      <point x="352" y="585" type="curve"/>
      <point x="344" y="665" type="line"/>
      <point x="342" y="693"/>
      <point x="359" y="707"/>
      <point x="398" y="707" type="curve" smooth="yes"/>
      <point x="438" y="707"/>
      <point x="455" y="689"/>
      <point x="440" y="662" type="curve" smooth="yes"/>
      <point x="395" y="580" type="line" smooth="yes"/>
      <point x="384" y="559"/>
      <point x="400" y="549"/>
      <point x="419" y="566" type="curve" smooth="yes"/>
      <point x="494" y="631" type="line"/>
      <point x="515" y="648"/>
      <point x="541" y="640"/>
      <point x="555" y="614" type="curve" smooth="yes"/>
      <point x="571" y="584"/>
      <point x="563" y="556"/>
      <point x="537" y="550" type="curve"/>
      <point x="425" y="528" type="line" smooth="yes"/>
      <point x="400" y="523"/>
      <point x="395" y="506"/>
      <point x="417" y="500" type="curve"/>
      <point x="498" y="475" type="line" smooth="yes"/>
      <point x="532" y="465"/>
      <point x="530" y="433"/>
      <point x="509" y="405" type="curve" smooth="yes"/>
      <point x="491" y="381"/>
      <point x="468" y="377"/>
      <point x="445" y="404" type="curve" smooth="yes"/>
      <point x="393" y="466" type="line" smooth="yes"/>
      <point x="380" y="482"/>
      <point x="367" y="472"/>
      <point x="369" y="447" type="curve" smooth="yes"/>
      <point x="376" y="357" type="line" smooth="yes"/>
      <point x="379" y="324"/>
      <point x="356" y="315"/>
      <point x="327" y="315" type="curve" smooth="yes"/>
      <point x="285" y="315"/>
      <point x="266" y="336"/>
      <point x="282" y="366" type="curve" smooth="yes"/>
      <point x="327" y="452" type="line" smooth="yes"/>
      <point x="338" y="472"/>
      <point x="322" y="483"/>
      <point x="303" y="465" type="curve" smooth="yes"/>
      <point x="234" y="398" type="line" smooth="yes"/>
      <point x="206" y="372"/>
      <point x="179" y="383"/>
    </contour>
  </outline>
</glyph>
<glyph name="plus" format="2">
  <advance width="600"/>
  <unicode hex="002B"/>
  <outline>
    <contour>
      <point x="118" y="210" type="line"/>
      <point x="118" y="290" type="line"/>
      <point x="312" y="290" type="line"/>
      <point x="312" y="490" type="line"/>
      <point x="408" y="490" type="line"/>
      <point x="408" y="290" type="line"/>
      <point x="602" y="290" type="line"/>
      <point x="602" y="210" type="line"/>
      <point x="408" y="210" type="line"/>
      <point x="408" y="0" type="line"/>
      <point x="312" y="0" type="line"/>
      <point x="312" y="210" type="line"/>
    </contour>
  </outline>
</glyph>
<glyph name="comma" format="2">
  <advance width="280"/>
  <unicode hex="002C"/>
  <outline>
    <contour>
      <point x="26" y="-138" type="line"/>
      <point x="65" y="-100"/>
      <point x="105" y="-51"/>
      <point x="105" y="1" type="curve" smooth="yes"/>
      <point x="105" y="20"/>
      <point x="98" y="39"/>
      <point x="93" y="50" type="curve" smooth="yes"/>
      <point x="85" y="67"/>
      <point x="80" y="79"/>
      <point x="80" y="99" type="curve" smooth="yes"/>
      <point x="80" y="145"/>
      <point x="116" y="180"/>
      <point x="162" y="180" type="curve" smooth="yes"/>
      <point x="216" y="181"/>
      <point x="242" y="139"/>
      <point x="242" y="91" type="curve" smooth="yes"/>
      <point x="242" y="-19"/>
      <point x="132" y="-109"/>
      <point x="52" y="-167" type="curve"/>
    </contour>
  </outline>
</glyph>
<glyph name="hyphen" format="2">
  <advance width="411"/>
  <unicode hex="002D"/>
  <outline>
    <contour>
      <point x="98" y="203" type="line"/>
      <point x="118" y="298" type="line"/>
      <point x="428" y="298" type="line"/>
      <point x="408" y="203" type="line"/>
    </contour>
  </outline>
</glyph>
<glyph name="one" format="2">
  <advance width="441"/>
  <unicode hex="0031"/>
  <outline>
    <contour>
      <point x="45" y="0" type="line"/>
      <point x="53" y="38" type="line"/>
      <point x="125" y="43" type="line" smooth="yes"/>
      <point x="148" y="45"/>
      <point x="160" y="52"/>
      <point x="166" y="81" type="curve" smooth="yes"/>
      <point x="272" y="556" type="line" smooth="yes"/>
      <point x="278" y="586"/>
      <point x="273" y="593"/>
      <point x="256" y="596" type="curve" smooth="yes"/>
      <point x="180" y="609" type="line"/>
      <point x="188" y="642" type="line"/>
      <point x="435" y="680" type="line"/>
      <point x="443" y="673" type="line"/>
      <point x="312" y="81" type="line" smooth="yes"/>
      <point x="306" y="52"/>
      <point x="316" y="44"/>
      <point x="340" y="43" type="curve"/>
      <point x="413" y="38" type="line"/>
      <point x="405" y="0" type="line"/>
    </contour>
  </outline>
</glyph>
<glyph name="two" format="2">
  <advance width="570"/>
  <unicode hex="0032"/>
  <outline>
    <contour>
      <point x="44" y="16" type="line"/>
      <point x="63" y="116"/>
      <point x="150" y="191"/>
      <point x="273" y="277" type="curve" smooth="yes"/>
      <point x="383" y="354"/>
      <point x="462" y="440"/>
      <point x="462" y="555" type="curve" smooth="yes"/>
      <point x="462" y="600"/>
      <point x="445" y="634"/>
      <point x="401" y="634" type="curve" smooth="yes"/>
      <point x="355" y="634"/>
      <point x="323" y="591"/>
      <point x="289" y="509" type="curve" smooth="yes"/>
      <point x="278" y="481"/>
      <point x="266" y="459"/>
      <point x="234" y="459" type="curve" smooth="yes"/>
      <point x="199" y="459"/>
      <point x="161" y="485"/>
      <point x="161" y="530" type="curve" smooth="yes"/>
      <point x="161" y="602"/>
      <point x="250" y="680"/>
      <point x="396" y="680" type="curve" smooth="yes"/>
      <point x="540" y="680"/>
      <point x="618" y="613"/>
      <point x="618" y="504" type="curve" smooth="yes"/>
      <point x="618" y="391"/>
      <point x="540" y="326"/>
      <point x="416" y="274" type="curve" smooth="yes"/>
      <point x="358" y="250"/>
      <point x="225" y="175"/>
      <point x="210" y="116" type="curve"/>
      <point x="444" y="116" type="line" smooth="yes"/>
      <point x="489" y="116"/>
      <point x="501" y="126"/>
      <point x="531" y="173" type="curve"/>
      <point x="571" y="169" type="line"/>
      <point x="511" y="0" type="line"/>
      <point x="57" y="0" type="line"/>
    </contour>
  </outline>
</glyph>
<glyph name="three" format="2">
  <advance width="563"/>
  <unicode hex="0033"/>
  <outline>
    <contour>
      <point x="57" y="118" type="curve" smooth="yes"/>
      <point x="57" y="165"/>
      <point x="101" y="195"/>
      <point x="134" y="195" type="curve" smooth="yes"/>
      <point x="214" y="195"/>
      <point x="169" y="34"/>
      <point x="287" y="34" type="curve" smooth="yes"/>
      <point x="348" y="34"/>
      <point x="403" y="100"/>
      <point x="403" y="216" type="curve" smooth="yes"/>
      <point x="403" y="305"/>
      <point x="368" y="335"/>
      <point x="324" y="335" type="curve" smooth="yes"/>
      <point x="279" y="335"/>
      <point x="244" y="321"/>
      <point x="225" y="321" type="curve" smooth="yes"/>
      <point x="205" y="321"/>
      <point x="200" y="335"/>
      <point x="200" y="352" type="curve" smooth="yes"/>
      <point x="200" y="377"/>
      <point x="211" y="403"/>
      <point x="231" y="403" type="curve" smooth="yes"/>
      <point x="252" y="403"/>
      <point x="285" y="388"/>
      <point x="328" y="388" type="curve" smooth="yes"/>
      <point x="410" y="388"/>
      <point x="452" y="489"/>
      <point x="452" y="558" type="curve" smooth="yes"/>
      <point x="452" y="602"/>
      <point x="428" y="634"/>
      <point x="389" y="634" type="curve" smooth="yes"/>
      <point x="345" y="634"/>
      <point x="313" y="597"/>
      <point x="281" y="525" type="curve" smooth="yes"/>
      <point x="272" y="505"/>
      <point x="262" y="488"/>
      <point x="234" y="488" type="curve" smooth="yes"/>
      <point x="199" y="488"/>
      <point x="164" y="512"/>
      <point x="162" y="550" type="curve" smooth="yes"/>
      <point x="160" y="601"/>
      <point x="248" y="680"/>
      <point x="384" y="680" type="curve" smooth="yes"/>
      <point x="487" y="680"/>
      <point x="603" y="640"/>
      <point x="603" y="517" type="curve" smooth="yes"/>
      <point x="603" y="426"/>
      <point x="532" y="377"/>
      <point x="428" y="367" type="curve"/>
      <point x="428" y="363" type="line"/>
      <point x="510" y="343"/>
      <point x="563" y="286"/>
      <point x="563" y="200" type="curve" smooth="yes"/>
      <point x="563" y="45"/>
      <point x="422" y="-12"/>
      <point x="289" y="-12" type="curve" smooth="yes"/>
      <point x="136" y="-12"/>
      <point x="57" y="56"/>
    </contour>
  </outline>
</glyph>
<glyph name="nine" format="2">
  <advance width="550"/>
  <unicode hex="0039"/>
  <outline>
    <contour>
      <point x="272" y="438" type="curve" smooth="yes"/>
      <point x="272" y="376"/>
      <point x="302" y="328"/>
      <point x="359" y="328" type="curve" smooth="yes"/>
      <point x="449" y="328"/>
      <point x="463" y="442"/>
      <point x="463" y="506" type="curve" smooth="yes"/>
      <point x="463" y="568"/>
      <point x="450" y="634"/>
      <point x="392" y="634" type="curve" smooth="yes"/>
      <point x="301" y="634"/>
      <point x="272" y="507"/>
    </contour>
    <contour>
      <point x="79" y="112" type="curve" smooth="yes"/>
      <point x="79" y="151"/>
      <point x="115" y="181"/>
      <point x="149" y="181" type="curve" smooth="yes"/>
      <point x="225" y="181"/>
      <point x="187" y="36"/>
      <point x="282" y="36" type="curve" smooth="yes"/>
      <point x="357" y="36"/>
      <point x="409" y="127"/>
      <point x="444" y="321" type="curve"/>
      <point x="442" y="322" type="line"/>
      <point x="408" y="285"/>
      <point x="365" y="256"/>
      <point x="306" y="256" type="curve" smooth="yes"/>
      <point x="207" y="256"/>
      <point x="126" y="324"/>
      <point x="126" y="430" type="curve" smooth="yes"/>
      <point x="126" y="577"/>
      <point x="230" y="680"/>
      <point x="377" y="680" type="curve" smooth="yes"/>
      <point x="541" y="680"/>
      <point x="601" y="580"/>
      <point x="601" y="434" type="curve" smooth="yes"/>
      <point x="601" y="169"/>
      <point x="474" y="-13"/>
      <point x="290" y="-13" type="curve" smooth="yes"/>
      <point x="218" y="-13"/>
      <point x="79" y="22"/>
    </contour>
  </outline>
</glyph>
<glyph name="colon" format="2">
  <advance width="280"/>
  <unicode hex="003A"/>
  <outline>
    <contour>
      <point x="135" y="391" type="curve" smooth="yes"/>
      <point x="135" y="452"/>
      <point x="178" y="490"/>
      <point x="231" y="490" type="curve" smooth="yes"/>
      <point x="289" y="490"/>
      <point x="315" y="453"/>
      <point x="315" y="412" type="curve" smooth="yes"/>
      <point x="315" y="351"/>
      <point x="273" y="312"/>
      <point x="222" y="312" type="curve" smooth="yes"/>
      <point x="162" y="312"/>
      <point x="135" y="348"/>
    </contour>
    <contour>
      <point x="67" y="67" type="curve" smooth="yes"/>
      <point x="67" y="128"/>
      <point x="110" y="166"/>
      <point x="163" y="166" type="curve" smooth="yes"/>
      <point x="221" y="166"/>
      <point x="247" y="129"/>
      <point x="247" y="88" type="curve" smooth="yes"/>
      <point x="247" y="27"/>
      <point x="205" y="-12"/>
      <point x="154" y="-12" type="curve" smooth="yes"/>
      <point x="94" y="-12"/>
      <point x="67" y="24"/>
    </contour>
  </outline>
</glyph>
<glyph name="less" format="2">
  <advance width="600"/>
  <unicode hex="003C"/>
  <outline>
    <contour>
      <point x="101" y="209" type="line"/>
      <point x="101" y="291" type="line"/>
      <point x="579" y="495" type="line"/>
      <point x="579" y="404" type="line"/>
      <point x="198" y="250" type="line"/>
      <point x="579" y="96" type="line"/>
      <point x="579" y="5" type="line"/>
    </contour>
  </outline>
</glyph>
<glyph name="equal" format="2">
  <advance width="600"/>
  <unicode hex="003D"/>
  <outline>
    <contour>
      <point x="118" y="317" type="line"/>
      <point x="118" y="397" type="line"/>
      <point x="602" y="397" type="line"/>
      <point x="602" y="317" type="line"/>
    </contour>
    <contour>
      <point x="118" y="103" type="line"/>
      <point x="118" y="183" type="line"/>
      <point x="602" y="183" type="line"/>
      <point x="602" y="103" type="line"/>
    </contour>
  </outline>
</glyph>
<glyph name="question" format="2">
  <advance width="454"/>
  <unicode hex="003F"/>
  <outline>
    <contour>
      <point x="150" y="67" type="curve" smooth="yes"/>
      <point x="150" y="128"/>
      <point x="193" y="166"/>
      <point x="246" y="166" type="curve" smooth="yes"/>
      <point x="304" y="166"/>
      <point x="330" y="129"/>
      <point x="330" y="88" type="curve" smooth="yes"/>
      <point x="330" y="27"/>
      <point x="288" y="-12"/>
      <point x="237" y="-12" type="curve" smooth="yes"/>
      <point x="177" y="-12"/>
      <point x="150" y="24"/>
    </contour>
    <contour>
      <point x="153" y="585" type="curve" smooth="yes"/>
      <point x="153" y="634"/>
      <point x="215" y="707"/>
      <point x="355" y="707" type="curve" smooth="yes"/>
      <point x="479" y="707"/>
      <point x="542" y="661"/>
      <point x="549" y="588" type="curve" smooth="yes"/>
      <point x="550" y="583"/>
      <point x="550" y="578"/>
      <point x="550" y="573" type="curve" smooth="yes"/>
      <point x="550" y="496"/>
      <point x="489" y="455"/>
      <point x="412" y="425" type="curve" smooth="yes"/>
      <point x="351" y="402"/>
      <point x="306" y="373"/>
      <point x="306" y="329" type="curve" smooth="yes"/>
      <point x="306" y="299"/>
      <point x="334" y="284"/>
      <point x="355" y="282" type="curve" smooth="yes"/>
      <point x="373" y="280"/>
      <point x="386" y="280"/>
      <point x="398" y="282" type="curve"/>
      <point x="405" y="253" type="line"/>
      <point x="371" y="230"/>
      <point x="318" y="218"/>
      <point x="278" y="218" type="curve" smooth="yes"/>
      <point x="210" y="218"/>
      <point x="162" y="256"/>
      <point x="162" y="313" type="curve" smooth="yes"/>
      <point x="162" y="364"/>
      <point x="202" y="401"/>
      <point x="269" y="437" type="curve" smooth="yes"/>
      <point x="353" y="482"/>
      <point x="401" y="541"/>
      <point x="401" y="615" type="curve" smooth="yes"/>
      <point x="401" y="639"/>
      <point x="391" y="661"/>
      <point x="367" y="661" type="curve" smooth="yes"/>
      <point x="338" y="661"/>
      <point x="309" y="627"/>
      <point x="278" y="556" type="curve" smooth="yes"/>
      <point x="276" y="551"/>
      <point x="273" y="546"/>
      <point x="270" y="542" type="curve" smooth="yes"/>
      <point x="261" y="529"/>
      <point x="249" y="522"/>
      <point x="229" y="522" type="curve" smooth="yes"/>
      <point x="200" y="522"/>
      <point x="153" y="539"/>
    </contour>
  </outline>
</glyph>
<glyph name="A" format="2">
  <advance width="634"/>
  <unicode hex="0041"/>
  <anchor x="441" y="730" name="top"/>
  <anchor x="288" y="707" name="tonos"/>
  <anchor x="469" y="660" name="aring"/>
  <anchor x="520" y="10" name="ogonek"/>
  <outline>
    <contour>
      <point x="-24" y="0" type="line"/>
      <point x="-17" y="38" type="line"/>
      <point x="10" y="41" type="line" smooth="yes"/>
      <point x="40" y="44"/>
      <point x="55" y="54"/>
      <point x="75" y="87" type="curve" smooth="yes"/>
      <point x="103" y="133"/>
      <point x="166" y="243"/>
      <point x="226" y="349" type="curve" smooth="yes"/>
      <point x="420" y="692" type="line"/>
      <point x="538" y="692" type="line"/>
      <point x="602" y="86" type="line" smooth="yes"/>
      <point x="605" y="58"/>
      <point x="610" y="43"/>
      <point x="633" y="41" type="curve" smooth="yes"/>
      <point x="674" y="38" type="line"/>
      <point x="666" y="0" type="line"/>
      <point x="366" y="0" type="line"/>
      <point x="374" y="38" type="line"/>
      <point x="426" y="42" type="line" smooth="yes"/>
      <point x="446" y="44"/>
      <point x="451" y="55"/>
      <point x="449" y="79" type="curve" smooth="yes"/>
      <point x="434" y="246" type="line"/>
      <point x="234" y="246" type="line"/>
      <point x="202" y="188"/>
      <point x="176" y="132"/>
      <point x="148" y="79" type="curve" smooth="yes"/>
      <point x="138" y="59"/>
      <point x="139" y="43"/>
      <point x="161" y="42" type="curve" smooth="yes"/>
      <point x="217" y="38" type="line"/>
      <point x="210" y="0" type="line"/>
    </contour>
    <contour>
      <point x="260" y="294" type="curve"/>
      <point x="429" y="294" type="line"/>
      <point x="405" y="555" type="line"/>
      <point x="403" y="555" type="line"/>
      <point x="386" y="528"/>
      <point x="273" y="319"/>
    </contour>
  </outline>
</glyph>
<glyph name="D" format="2">
  <advance width="774"/>
  <unicode hex="0044"/>
  <outline>
    <contour>
      <point x="40" y="0" type="line"/>
      <point x="49" y="38" type="line"/>
      <point x="94" y="42" type="line" smooth="yes"/>
      <point x="123" y="44"/>
      <point x="130" y="62"/>
      <point x="138" y="98" type="curve" smooth="yes"/>
      <point x="249" y="594" type="line" smooth="yes"/>
      <point x="257" y="630"/>
      <point x="258" y="647"/>
      <point x="230" y="649" type="curve"/>
      <point x="179" y="654" type="line"/>
      <point x="189" y="692" type="line"/>
      <point x="464" y="692" type="line" smooth="yes"/>
      <point x="668" y="692"/>
      <point x="819" y="634"/>
      <point x="819" y="403" type="curve" smooth="yes"/>
      <point x="819" y="178"/>
      <point x="616" y="0"/>
      <point x="361" y="0" type="curve" smooth="yes"/>
    </contour>
    <contour>
      <point x="292" y="97" type="line" smooth="yes"/>
      <point x="282" y="54"/>
      <point x="312" y="46"/>
      <point x="360" y="46" type="curve" smooth="yes"/>
      <point x="592" y="46"/>
      <point x="656" y="336"/>
      <point x="656" y="454" type="curve" smooth="yes"/>
      <point x="656" y="549"/>
      <point x="633" y="646"/>
      <point x="490" y="646" type="curve" smooth="yes"/>
      <point x="426" y="646"/>
      <point x="412" y="639"/>
      <point x="405" y="606" type="curve" smooth="yes"/>
    </contour>
  </outline>
</glyph>
<glyph name="E" format="2">
  <advance width="622"/>
  <unicode hex="0045"/>
  <anchor x="148" y="702" name="tonos"/>
  <anchor x="148" y="692" name="greek.UC.tonos"/>
  <anchor x="480" y="10" name="ogonek"/>
  <anchor x="456" y="730" name="top"/>
  <outline>
    <contour>
      <point x="40" y="0" type="line"/>
      <point x="49" y="38" type="line"/>
      <point x="94" y="42" type="line" smooth="yes"/>
      <point x="123" y="44"/>
      <point x="130" y="62"/>
      <point x="138" y="98" type="curve" smooth="yes"/>
      <point x="249" y="594" type="line" smooth="yes"/>
      <point x="251.263" y="604.183"/>
      <point x="252.406" y="612.846"/>
      <point x="252.406" y="620.079" type="curve" smooth="yes"/>
      <point x="252.406" y="638.417"/>
      <point x="245.06" y="647.566"/>
      <point x="230" y="649" type="curve" smooth="yes"/>
      <point x="179" y="654" type="line"/>
      <point x="190" y="692" type="line"/>
      <point x="722" y="692" type="line"/>
      <point x="682" y="507" type="line"/>
      <point x="644" y="507" type="line"/>
      <point x="639" y="562" type="line" smooth="yes"/>
      <point x="635" y="609"/>
      <point x="613" y="646"/>
      <point x="525" y="646" type="curve" smooth="yes"/>
      <point x="456" y="646" type="line" smooth="yes"/>
      <point x="421" y="646"/>
      <point x="414" y="642"/>
      <point x="407" y="613" type="curve" smooth="yes"/>
      <point x="357" y="387" type="line"/>
      <point x="451" y="387" type="line" smooth="yes"/>
      <point x="514" y="387"/>
      <point x="530" y="404"/>
      <point x="562" y="477" type="curve"/>
      <point x="600" y="477" type="line"/>
      <point x="550" y="249" type="line"/>
      <point x="512" y="249" type="line"/>
      <point x="512.505" y="254.944"/>
      <point x="512.505" y="265.358"/>
      <point x="512.505" y="280.543" type="curve" smooth="yes"/>
      <point x="512.505" y="318.43"/>
      <point x="494.834" y="339"/>
      <point x="440" y="339" type="curve" smooth="yes"/>
      <point x="346" y="339" type="line"/>
      <point x="293" y="103" type="line" smooth="yes"/>
      <point x="291.093" y="94.9337"/>
      <point x="290.112" y="88.0073"/>
      <point x="290.112" y="82.0601" type="curve" smooth="yes"/>
      <point x="290.112" y="47.4564"/>
      <point x="323.346" y="46"/>
      <point x="401" y="46" type="curve" smooth="yes"/>
      <point x="480" y="46"/>
      <point x="528" y="67"/>
      <point x="579" y="154" type="curve" smooth="yes"/>
      <point x="611" y="208" type="line"/>
      <point x="649" y="208" type="line"/>
      <point x="590" y="0" type="line"/>
    </contour>
  </outline>
</glyph>
<glyph name="F" format="2">
  <advance width="585"/>
  <unicode hex="0046"/>
  <outline>
    <contour>
      <point x="40" y="0" type="line"/>
      <point x="49" y="38" type="line"/>
      <point x="94" y="42" type="line" smooth="yes"/>
      <point x="123" y="44"/>
      <point x="130" y="62"/>
      <point x="138" y="98" type="curve" smooth="yes"/>
      <point x="249" y="594" type="line" smooth="yes"/>
      <point x="257" y="630"/>
      <point x="258" y="646"/>
      <point x="230" y="649" type="curve" smooth="yes"/>
      <point x="179" y="654" type="line"/>
      <point x="189" y="692" type="line"/>
      <point x="718" y="692" type="line"/>
      <point x="678" y="509" type="line"/>
      <point x="640" y="509" type="line"/>
      <point x="635" y="562" type="line" smooth="yes"/>
      <point x="631" y="612"/>
      <point x="609" y="646"/>
      <point x="521" y="646" type="curve" smooth="yes"/>
      <point x="447" y="646" type="line" smooth="yes"/>
      <point x="422" y="646"/>
      <point x="413" y="639"/>
      <point x="408" y="617" type="curve" smooth="yes"/>
      <point x="353" y="368" type="line"/>
      <point x="466" y="368" type="line" smooth="yes"/>
      <point x="529" y="368"/>
      <point x="546" y="386"/>
      <point x="578" y="459" type="curve"/>
      <point x="616" y="459" type="line"/>
      <point x="566" y="229" type="line"/>
      <point x="528" y="229" type="line"/>
      <point x="531" y="292"/>
      <point x="520" y="320"/>
      <point x="456" y="320" type="curve" smooth="yes"/>
      <point x="341" y="320" type="line"/>
      <point x="290" y="95" type="line" smooth="yes"/>
      <point x="282" y="59"/>
      <point x="287" y="45"/>
      <point x="319" y="42" type="curve" smooth="yes"/>
      <point x="374" y="38" type="line"/>
      <point x="366" y="0" type="line"/>
    </contour>
  </outline>
</glyph>
<glyph name="I" format="2">
  <advance width="386"/>
  <unicode hex="0049"/>
  <anchor x="334" y="740" name="top"/>
  <anchor x="155" y="707" name="tonos"/>
  <outline>
    <contour>
      <point x="40" y="0" type="line"/>
      <point x="49" y="38" type="line"/>
      <point x="94" y="42" type="line" smooth="yes"/>
      <point x="123" y="45"/>
      <point x="130" y="62"/>
      <point x="138" y="98" type="curve" smooth="yes"/>
      <point x="249" y="594" type="line" smooth="yes"/>
      <point x="251.909" y="607.091"/>
      <point x="253.893" y="617.537"/>
      <point x="253.893" y="625.675" type="curve" smooth="yes"/>
      <point x="253.893" y="639.917"/>
      <point x="247.818" y="647.091"/>
      <point x="230" y="649" type="curve" smooth="yes"/>
      <point x="179" y="654" type="line"/>
      <point x="189" y="692" type="line"/>
      <point x="501" y="692" type="line"/>
      <point x="491" y="654" type="line"/>
      <point x="447" y="650" type="line" smooth="yes"/>
      <point x="418" y="647"/>
      <point x="411" y="630"/>
      <point x="403" y="594" type="curve" smooth="yes"/>
      <point x="292" y="98" type="line" smooth="yes"/>
      <point x="289.091" y="84.9091"/>
      <point x="287.107" y="74.1983"/>
      <point x="287.107" y="65.7716" type="curve" smooth="yes"/>
      <point x="287.107" y="51.0248"/>
      <point x="293.182" y="43.2727"/>
      <point x="311" y="42" type="curve" smooth="yes"/>
      <point x="361" y="38" type="line"/>
      <point x="352" y="0" type="line"/>
    </contour>
  </outline>
  <guideline angle="77.3856" x="138" y="98"/>
</glyph>
<glyph name="J" format="2">
  <advance width="388"/>
  <unicode hex="004A"/>
  <outline>
    <contour>
      <point x="-15" y="-79" type="line"/>
      <point x="23" y="-73"/>
      <point x="61" y="-58"/>
      <point x="84" y="-31" type="curve" smooth="yes"/>
      <point x="114" y="3"/>
      <point x="138" y="57"/>
      <point x="161" y="158" type="curve" smooth="yes"/>
      <point x="260" y="594" type="line" smooth="yes"/>
      <point x="268" y="630"/>
      <point x="269" y="647"/>
      <point x="241" y="649" type="curve"/>
      <point x="190" y="654" type="line"/>
      <point x="200" y="692" type="line"/>
      <point x="512" y="692" type="line"/>
      <point x="502" y="654" type="line"/>
      <point x="458" y="650" type="line" smooth="yes"/>
      <point x="429" y="648"/>
      <point x="422" y="630"/>
      <point x="414" y="594" type="curve" smooth="yes"/>
      <point x="303" y="106" type="line" smooth="yes"/>
      <point x="287" y="36"/>
      <point x="263" y="-19"/>
      <point x="224" y="-54" type="curve" smooth="yes"/>
      <point x="169" y="-104"/>
      <point x="88" y="-114"/>
      <point x="28" y="-114" type="curve" smooth="yes"/>
      <point x="14" y="-114"/>
      <point x="1" y="-115"/>
      <point x="-13" y="-112" type="curve"/>
    </contour>
  </outline>
</glyph>
<glyph name="K" format="2">
  <advance width="688"/>
  <unicode hex="004B"/>
  <outline>
    <contour>
      <point x="40" y="0" type="line"/>
      <point x="49" y="38" type="line"/>
      <point x="94" y="42" type="line" smooth="yes"/>
      <point x="123" y="44"/>
      <point x="130" y="62"/>
      <point x="138" y="98" type="curve" smooth="yes"/>
      <point x="249" y="594" type="line" smooth="yes"/>
      <point x="257" y="630"/>
      <point x="258" y="647"/>
      <point x="230" y="649" type="curve"/>
      <point x="179" y="654" type="line"/>
      <point x="189" y="692" type="line"/>
      <point x="501" y="692" type="line"/>
      <point x="491" y="654" type="line"/>
      <point x="447" y="650" type="line" smooth="yes"/>
      <point x="418" y="648"/>
      <point x="411" y="630"/>
      <point x="403" y="594" type="curve" smooth="yes"/>
      <point x="351" y="362" type="line"/>
      <point x="353" y="360" type="line"/>
      <point x="444" y="444"/>
      <point x="529" y="527"/>
      <point x="612" y="614" type="curve" smooth="yes"/>
      <point x="634" y="637"/>
      <point x="638" y="647"/>
      <point x="607" y="651" type="curve" smooth="yes"/>
      <point x="582" y="654" type="line"/>
      <point x="589" y="692" type="line"/>
      <point x="858" y="692" type="line"/>
      <point x="851" y="654" type="line"/>
      <point x="790" y="648"/>
      <point x="772" y="646"/>
      <point x="725" y="614" type="curve" smooth="yes"/>
      <point x="634" y="553"/>
      <point x="555" y="483"/>
      <point x="474" y="403" type="curve"/>
      <point x="519" y="297"/>
      <point x="567" y="189"/>
      <point x="636" y="96" type="curve" smooth="yes"/>
      <point x="660" y="63"/>
      <point x="680" y="43"/>
      <point x="719" y="30" type="curve"/>
      <point x="713" y="-6" type="line"/>
      <point x="671" y="-6" type="line" smooth="yes"/>
      <point x="532" y="-6"/>
      <point x="491" y="31"/>
      <point x="445" y="115" type="curve" smooth="yes"/>
      <point x="405" y="187"/>
      <point x="377" y="253"/>
      <point x="347" y="336" type="curve"/>
      <point x="345" y="336" type="line"/>
      <point x="292" y="98" type="line" smooth="yes"/>
      <point x="284" y="62"/>
      <point x="283" y="45"/>
      <point x="311" y="42" type="curve"/>
      <point x="361" y="38" type="line"/>
      <point x="352" y="0" type="line"/>
    </contour>
  </outline>
</glyph>
<glyph name="L" format="2">
  <advance width="586"/>
  <unicode hex="004C"/>
  <outline>
    <contour>
      <point x="40" y="0" type="line"/>
      <point x="49" y="38" type="line"/>
      <point x="94" y="42" type="line" smooth="yes"/>
      <point x="123" y="45"/>
      <point x="130" y="62"/>
      <point x="138" y="98" type="curve" smooth="yes"/>
      <point x="249" y="594" type="line" smooth="yes"/>
      <point x="257" y="630"/>
      <point x="258" y="648"/>
      <point x="230" y="650" type="curve" smooth="yes"/>
      <point x="179" y="654" type="line"/>
      <point x="189" y="692" type="line"/>
      <point x="501" y="692" type="line"/>
      <point x="491" y="654" type="line"/>
      <point x="447" y="650" type="line" smooth="yes"/>
      <point x="418" y="647"/>
      <point x="411" y="630"/>
      <point x="403" y="594" type="curve" smooth="yes"/>
      <point x="293" y="101" type="line" smooth="yes"/>
      <point x="282" y="52"/>
      <point x="310" y="46"/>
      <point x="384" y="46" type="curve" smooth="yes"/>
      <point x="458" y="46"/>
      <point x="506" y="70"/>
      <point x="558" y="153" type="curve" smooth="yes"/>
      <point x="588" y="201" type="line"/>
      <point x="626" y="201" type="line"/>
      <point x="568" y="0" type="line"/>
    </contour>
  </outline>
</glyph>
<glyph name="O" format="2">
  <advance width="761"/>
  <unicode hex="004F"/>
  <anchor x="515" y="730" name="top"/>
  <anchor x="397" y="10" name="ogonek"/>
  <anchor x="154" y="707" name="tonos"/>
  <outline>
    <contour>
      <point x="113" y="264" type="curve" smooth="yes"/>
      <point x="113" y="501"/>
      <point x="248" y="707"/>
      <point x="507" y="707" type="curve" smooth="yes"/>
      <point x="675" y="707"/>
      <point x="803" y="621"/>
      <point x="803" y="419" type="curve" smooth="yes"/>
      <point x="803" y="189"/>
      <point x="673" y="-15"/>
      <point x="420" y="-15" type="curve" smooth="yes"/>
      <point x="219" y="-15"/>
      <point x="113" y="95"/>
    </contour>
    <contour>
      <point x="278" y="190" type="curve" smooth="yes"/>
      <point x="278" y="88"/>
      <point x="319" y="31"/>
      <point x="403" y="31" type="curve" smooth="yes"/>
      <point x="551" y="31"/>
      <point x="638" y="312"/>
      <point x="638" y="506" type="curve" smooth="yes"/>
      <point x="638" y="594"/>
      <point x="611" y="661"/>
      <point x="522" y="661" type="curve" smooth="yes"/>
      <point x="357" y="661"/>
      <point x="278" y="349"/>
    </contour>
  </outline>
</glyph>
<glyph name="U" format="2">
  <advance width="776"/>
  <unicode hex="0055"/>
  <anchor x="548" y="730" name="top"/>
  <outline>
    <contour>
      <point x="159" y="241" type="curve" smooth="yes"/>
      <point x="238" y="594" type="line" smooth="yes"/>
      <point x="246" y="630"/>
      <point x="247" y="647"/>
      <point x="219" y="649" type="curve"/>
      <point x="168" y="654" type="line"/>
      <point x="178" y="692" type="line"/>
      <point x="490" y="692" type="line"/>
      <point x="480" y="654" type="line"/>
      <point x="436" y="650" type="line" smooth="yes"/>
      <point x="407" y="648"/>
      <point x="400" y="630"/>
      <point x="392" y="594" type="curve" smooth="yes"/>
      <point x="312" y="233" type="line" smooth="yes"/>
      <point x="279" y="82"/>
      <point x="328" y="31"/>
      <point x="407" y="31" type="curve" smooth="yes"/>
      <point x="495" y="31"/>
      <point x="541" y="104"/>
      <point x="575" y="258" type="curve" smooth="yes"/>
      <point x="650" y="594" type="line" smooth="yes"/>
      <point x="658" y="630"/>
      <point x="659" y="647"/>
      <point x="631" y="649" type="curve"/>
      <point x="580" y="654" type="line"/>
      <point x="590" y="692" type="line"/>
      <point x="902" y="692" type="line"/>
      <point x="892" y="654" type="line"/>
      <point x="848" y="650" type="line" smooth="yes"/>
      <point x="819" y="648"/>
      <point x="812" y="630"/>
      <point x="804" y="594" type="curve" smooth="yes"/>
      <point x="726" y="253" type="line" smooth="yes"/>
      <point x="683" y="61"/>
      <point x="601" y="-15"/>
      <point x="402" y="-15" type="curve" smooth="yes"/>
      <point x="225" y="-15"/>
      <point x="117" y="52"/>
    </contour>
  </outline>
</glyph>
<glyph name="W" format="2">
  <advance width="920"/>
  <unicode hex="0057"/>
  <outline>
    <contour>
      <point x="115" y="654" type="line"/>
      <point x="122" y="692" type="line"/>
      <point x="406" y="692" type="line"/>
      <point x="399" y="654" type="line"/>
      <point x="344" y="649" type="line" smooth="yes"/>
      <point x="325" y="647"/>
      <point x="323" y="634"/>
      <point x="324" y="615" type="curve" smooth="yes"/>
      <point x="340" y="146" type="line"/>
      <point x="345" y="146" type="line"/>
      <point x="576" y="676" type="line"/>
      <point x="688" y="676" type="line"/>
      <point x="719" y="146" type="line"/>
      <point x="724" y="146" type="line"/>
      <point x="827" y="374" type="line" smooth="yes"/>
      <point x="867" y="463"/>
      <point x="899" y="539"/>
      <point x="924" y="605" type="curve" smooth="yes"/>
      <point x="934" y="632"/>
      <point x="934" y="647"/>
      <point x="912" y="649" type="curve" smooth="yes"/>
      <point x="859" y="654" type="line"/>
      <point x="866" y="692" type="line"/>
      <point x="1097" y="692" type="line"/>
      <point x="1090" y="654" type="line"/>
      <point x="1030" y="648"/>
      <point x="1023" y="645"/>
      <point x="994" y="588" type="curve" smooth="yes"/>
      <point x="960" y="517"/>
      <point x="910" y="419"/>
      <point x="862" y="316" type="curve" smooth="yes"/>
      <point x="713" y="0" type="line"/>
      <point x="590" y="0" type="line"/>
      <point x="562" y="497" type="line"/>
      <point x="557" y="497" type="line"/>
      <point x="335" y="0" type="line"/>
      <point x="212" y="0" type="line"/>
      <point x="177" y="610" type="line" smooth="yes"/>
      <point x="175" y="638"/>
      <point x="171" y="648"/>
      <point x="155" y="650" type="curve" smooth="yes"/>
    </contour>
  </outline>
</glyph>
<glyph name="X" format="2">
  <advance width="630"/>
  <unicode hex="0058"/>
  <outline>
    <contour>
      <point x="-21" y="0" type="line"/>
      <point x="-14" y="38" type="line"/>
      <point x="39" y="44"/>
      <point x="69" y="52"/>
      <point x="104" y="86" type="curve" smooth="yes"/>
      <point x="160" y="141"/>
      <point x="253" y="249"/>
      <point x="324" y="334" type="curve"/>
      <point x="286" y="426"/>
      <point x="246" y="530"/>
      <point x="209" y="614" type="curve" smooth="yes"/>
      <point x="198" y="639"/>
      <point x="177" y="652"/>
      <point x="124" y="654" type="curve"/>
      <point x="134" y="692" type="line"/>
      <point x="441" y="692" type="line"/>
      <point x="434" y="654" type="line"/>
      <point x="383" y="647" type="line"/>
      <point x="364" y="645"/>
      <point x="362" y="634"/>
      <point x="370" y="614" type="curve" smooth="yes"/>
      <point x="434" y="450" type="line"/>
      <point x="437" y="450" type="line"/>
      <point x="485" y="508"/>
      <point x="539" y="571"/>
      <point x="576" y="620" type="curve" smooth="yes"/>
      <point x="588" y="636"/>
      <point x="587" y="648"/>
      <point x="571" y="650" type="curve"/>
      <point x="524" y="654" type="line"/>
      <point x="533" y="692" type="line"/>
      <point x="779" y="692" type="line"/>
      <point x="770" y="654" type="line"/>
      <point x="721" y="651"/>
      <point x="688" y="638"/>
      <point x="664" y="615" type="curve" smooth="yes"/>
      <point x="609" y="562"/>
      <point x="520" y="473"/>
      <point x="457" y="399" type="curve"/>
      <point x="497" y="297"/>
      <point x="543" y="184"/>
      <point x="584" y="91" type="curve" smooth="yes"/>
      <point x="598" y="60"/>
      <point x="627" y="43"/>
      <point x="679" y="38" type="curve"/>
      <point x="672" y="0" type="line"/>
      <point x="344" y="0" type="line"/>
      <point x="352" y="38" type="line"/>
      <point x="406" y="44" type="line" smooth="yes"/>
      <point x="426" y="46"/>
      <point x="435" y="58"/>
      <point x="428" y="76" type="curve" smooth="yes"/>
      <point x="348" y="277" type="line"/>
      <point x="346" y="277" type="line"/>
      <point x="291" y="209"/>
      <point x="232" y="134"/>
      <point x="189" y="74" type="curve" smooth="yes"/>
      <point x="177" y="56"/>
      <point x="178" y="44"/>
      <point x="193" y="43" type="curve" smooth="yes"/>
      <point x="255" y="38" type="line"/>
      <point x="247" y="0" type="line"/>
    </contour>
  </outline>
</glyph>
<glyph name="Y" format="2">
  <advance width="622"/>
  <unicode hex="0059"/>
  <outline>
    <contour>
      <point x="127" y="656" type="curve"/>
      <point x="135" y="692" type="line"/>
      <point x="436" y="692" type="line"/>
      <point x="428" y="654" type="line"/>
      <point x="373" y="648" type="line" smooth="yes"/>
      <point x="358.714" y="646.571"/>
      <point x="354.122" y="641.061"/>
      <point x="354.122" y="631.834" type="curve" smooth="yes"/>
      <point x="354.122" y="628.143"/>
      <point x="354.857" y="623.857"/>
      <point x="356" y="619" type="curve" smooth="yes"/>
      <point x="426" y="347" type="line"/>
      <point x="429" y="347" type="line"/>
      <point x="456.125" y="385.569"/>
      <point x="486.663" y="430.604"/>
      <point x="515.133" y="473.503" type="curve" smooth="yes"/>
      <point x="534.113" y="502.25" type="line" smooth="yes"/>
      <point x="564.98" y="549.245"/>
      <point x="591.598" y="590.996"/>
      <point x="601.222" y="607.036" type="curve" smooth="yes"/>
      <point x="610.568" y="622.614"/>
      <point x="612.963" y="629.068"/>
      <point x="612.963" y="634.252" type="curve" smooth="yes"/>
      <point x="612.963" y="642.687"/>
      <point x="606.625" y="647.761"/>
      <point x="593" y="649" type="curve" smooth="yes"/>
      <point x="540" y="654" type="line"/>
      <point x="548" y="692" type="line"/>
      <point x="800" y="692" type="line"/>
      <point x="793" y="654" type="line"/>
      <point x="733" y="648"/>
      <point x="716" y="636"/>
      <point x="683.981" y="598.499" type="curve" smooth="yes"/>
      <point x="662.157" y="572.938"/>
      <point x="623.24" y="523.682"/>
      <point x="582.546" y="469.61" type="curve" smooth="yes"/>
      <point x="561.283" y="441.132" type="line" smooth="yes"/>
      <point x="531.673" y="401.16"/>
      <point x="502.157" y="359.973"/>
      <point x="477" y="323" type="curve" smooth="yes"/>
      <point x="459" y="297"/>
      <point x="449" y="278"/>
      <point x="443" y="251" type="curve" smooth="yes"/>
      <point x="408" y="98" type="line" smooth="yes"/>
      <point x="405.091" y="84.9091"/>
      <point x="403.107" y="74.3306"/>
      <point x="403.107" y="66.0721" type="curve" smooth="yes"/>
      <point x="403.107" y="51.6198"/>
      <point x="409.182" y="44.2727"/>
      <point x="427" y="43" type="curve" smooth="yes"/>
      <point x="491" y="38" type="line"/>
      <point x="482" y="0" type="line"/>
      <point x="143" y="0" type="line"/>
      <point x="152" y="38" type="line"/>
      <point x="211" y="42" type="line" smooth="yes"/>
      <point x="234" y="44"/>
      <point x="247" y="62"/>
      <point x="255" y="98" type="curve" smooth="yes"/>
      <point x="287" y="246" type="line" smooth="yes"/>
      <point x="289.361" y="256.626"/>
      <point x="290.329" y="266.014"/>
      <point x="290.329" y="274.649" type="curve" smooth="yes"/>
      <point x="290.329" y="287.956"/>
      <point x="288.032" y="299.478"/>
      <point x="285" y="311" type="curve" smooth="yes"/>
      <point x="260" y="414"/>
      <point x="231" y="515"/>
      <point x="202" y="609" type="curve" smooth="yes"/>
      <point x="192" y="641"/>
      <point x="175" y="652"/>
    </contour>
  </outline>
</glyph>
<glyph name="bracketleft" format="2">
  <advance width="350"/>
  <unicode hex="005B"/>
  <outline>
    <contour>
      <point x="91" y="-128" type="line"/>
      <point x="277" y="692" type="line"/>
      <point x="463" y="692" type="line"/>
      <point x="455" y="658" type="line"/>
      <point x="434" y="656"/>
      <point x="414" y="653"/>
      <point x="393" y="651" type="curve" smooth="yes"/>
      <point x="365" y="648"/>
      <point x="359" y="633"/>
      <point x="352" y="604" type="curve" smooth="yes"/>
      <point x="207" y="-40" type="line"/>
      <point x="207" y="-40" type="line"/>
      <point x="200" y="-69"/>
      <point x="202" y="-84"/>
      <point x="227" y="-87" type="curve" smooth="yes"/>
      <point x="246" y="-89"/>
      <point x="266" y="-92"/>
      <point x="285" y="-94" type="curve"/>
      <point x="277" y="-128" type="line"/>
    </contour>
  </outline>
</glyph>
<glyph name="backslash" format="2">
  <advance width="460"/>
  <unicode hex="005C"/>
  <outline>
    <contour>
      <point x="149" y="707" type="line"/>
      <point x="249" y="707" type="line"/>
      <point x="460" y="-15" type="line"/>
      <point x="360" y="-15" type="line"/>
    </contour>
  </outline>
</glyph>
<glyph name="d" format="2">
  <advance width="609"/>
  <unicode hex="0064"/>
  <outline>
    <contour>
      <point x="64" y="114" type="curve" smooth="yes"/>
      <point x="64" y="240"/>
      <point x="166" y="502"/>
      <point x="401" y="502" type="curve" smooth="yes"/>
      <point x="436" y="502"/>
      <point x="464" y="496"/>
      <point x="483" y="485" type="curve"/>
      <point x="485" y="486" type="line"/>
      <point x="520" y="635" type="line" smooth="yes"/>
      <point x="522" y="644"/>
      <point x="523" y="650"/>
      <point x="523" y="656" type="curve" smooth="yes"/>
      <point x="523" y="669"/>
      <point x="518" y="675"/>
      <point x="505" y="677" type="curve" smooth="yes"/>
      <point x="454" y="684" type="line"/>
      <point x="461" y="715" type="line"/>
      <point x="679" y="742" type="line"/>
      <point x="686" y="736" type="line"/>
      <point x="540" y="117" type="line"/>
      <point x="538" y="107"/>
      <point x="536" y="98"/>
      <point x="536" y="90" type="curve" smooth="yes"/>
      <point x="536" y="78"/>
      <point x="540" y="67"/>
      <point x="550" y="67" type="curve" smooth="yes"/>
      <point x="574" y="67"/>
      <point x="612" y="123"/>
      <point x="637" y="168" type="curve"/>
      <point x="666" y="154" type="line"/>
      <point x="626" y="64"/>
      <point x="562" y="-13"/>
      <point x="468" y="-13" type="curve" smooth="yes"/>
      <point x="421" y="-13"/>
      <point x="393" y="7"/>
      <point x="393" y="54" type="curve" smooth="yes"/>
      <point x="393" y="67"/>
      <point x="395" y="86"/>
      <point x="400" y="105" type="curve" smooth="yes"/>
      <point x="430" y="213" type="line"/>
      <point x="426" y="214" type="line"/>
      <point x="369" y="113"/>
      <point x="298" y="-12"/>
      <point x="176" y="-12" type="curve" smooth="yes"/>
      <point x="87" y="-12"/>
      <point x="64" y="54"/>
    </contour>
    <contour>
      <point x="218" y="128" type="curve" smooth="yes"/>
      <point x="218" y="92"/>
      <point x="230" y="67"/>
      <point x="254" y="67" type="curve" smooth="yes"/>
      <point x="323" y="67"/>
      <point x="434" y="258"/>
      <point x="474" y="440" type="curve"/>
      <point x="462" y="450"/>
      <point x="443" y="456"/>
      <point x="424" y="456" type="curve" smooth="yes"/>
      <point x="302" y="456"/>
      <point x="218" y="222"/>
    </contour>
  </outline>
</glyph>
<glyph name="e" format="2">
  <advance width="476"/>
  <unicode hex="0065"/>
  <outline>
    <contour>
      <point x="73" y="161" type="curve" smooth="yes"/>
      <point x="73" y="333"/>
      <point x="203" y="502"/>
      <point x="384" y="502" type="curve" smooth="yes"/>
      <point x="469" y="502"/>
      <point x="532" y="457"/>
      <point x="532" y="386" type="curve" smooth="yes"/>
      <point x="532" y="246"/>
      <point x="335" y="201"/>
      <point x="222" y="187" type="curve"/>
      <point x="222" y="163" type="line" smooth="yes"/>
      <point x="222" y="109"/>
      <point x="241" y="54"/>
      <point x="300" y="54" type="curve" smooth="yes"/>
      <point x="360" y="54"/>
      <point x="407" y="100"/>
      <point x="460" y="176" type="curve"/>
      <point x="490" y="152" type="line"/>
      <point x="417" y="20"/>
      <point x="323" y="-12"/>
      <point x="236" y="-12" type="curve" smooth="yes"/>
      <point x="164" y="-12"/>
      <point x="73" y="23"/>
    </contour>
    <contour>
      <point x="226" y="232" type="curve"/>
      <point x="342" y="255"/>
      <point x="404" y="334"/>
      <point x="404" y="412" type="curve" smooth="yes"/>
      <point x="404" y="440"/>
      <point x="391" y="456"/>
      <point x="367" y="456" type="curve" smooth="yes"/>
      <point x="308" y="456"/>
      <point x="240" y="347"/>
    </contour>
  </outline>
</glyph>
<glyph name="f" format="2">
  <advance width="348"/>
  <unicode hex="0066"/>
  <outline>
    <contour>
      <point x="-94" y="-168" type="curve" smooth="yes"/>
      <point x="-94" y="-137"/>
      <point x="-66" y="-109"/>
      <point x="-34" y="-109" type="curve" smooth="yes"/>
      <point x="-12" y="-109"/>
      <point x="-4" y="-125"/>
      <point x="5" y="-140" type="curve" smooth="yes"/>
      <point x="29" y="-182"/>
      <point x="42" y="-196"/>
      <point x="52" y="-196" type="curve" smooth="yes"/>
      <point x="60" y="-196"/>
      <point x="67" y="-187"/>
      <point x="71" y="-169" type="curve" smooth="yes"/>
      <point x="194" y="442" type="line"/>
      <point x="105" y="442" type="line"/>
      <point x="119" y="490" type="line"/>
      <point x="205" y="490" type="line"/>
      <point x="212" y="516" type="line" smooth="yes"/>
      <point x="243" y="631"/>
      <point x="299" y="742"/>
      <point x="445" y="742" type="curve" smooth="yes"/>
      <point x="531" y="742"/>
      <point x="588" y="700"/>
      <point x="588" y="654" type="curve" smooth="yes"/>
      <point x="588" y="618"/>
      <point x="550" y="594"/>
      <point x="519" y="594" type="curve" smooth="yes"/>
      <point x="495" y="594"/>
      <point x="485" y="608"/>
      <point x="477" y="624" type="curve"/>
      <point x="450" y="682"/>
      <point x="437" y="696"/>
      <point x="422" y="696" type="curve" smooth="yes"/>
      <point x="406" y="696"/>
      <point x="396" y="678"/>
      <point x="386" y="636" type="curve" smooth="yes"/>
      <point x="351" y="490" type="line"/>
      <point x="479" y="490" type="line"/>
      <point x="467" y="442" type="line"/>
      <point x="342" y="442" type="line"/>
      <point x="245" y="28" type="line" smooth="yes"/>
      <point x="203" y="-151"/>
      <point x="143" y="-242"/>
      <point x="26" y="-242" type="curve" smooth="yes"/>
      <point x="-51" y="-242"/>
      <point x="-94" y="-210"/>
    </contour>
  </outline>
</glyph>
<glyph name="h" format="2">
  <advance width="629"/>
  <unicode hex="0068"/>
  <outline>
    <contour>
      <point x="79" y="-12" type="line"/>
      <point x="222" y="633" type="line" smooth="yes"/>
      <point x="224.112" y="641.748"/>
      <point x="225.222" y="648.948"/>
      <point x="225.222" y="654.794" type="curve" smooth="yes"/>
      <point x="225.222" y="668.329"/>
      <point x="219.269" y="674.603"/>
      <point x="206" y="676" type="curve" smooth="yes"/>
      <point x="148" y="683" type="line"/>
      <point x="156" y="715" type="line"/>
      <point x="385" y="742" type="line"/>
      <point x="390" y="737" type="line"/>
      <point x="283" y="295" type="line"/>
      <point x="288" y="295" type="line"/>
      <point x="342" y="397"/>
      <point x="431" y="502"/>
      <point x="534.907" y="502" type="curve" smooth="yes"/>
      <point x="594.072" y="502"/>
      <point x="623.505" y="467.958"/>
      <point x="623.505" y="413.378" type="curve" smooth="yes"/>
      <point x="623.505" y="393.709"/>
      <point x="619.682" y="371.372"/>
      <point x="612" y="347" type="curve" smooth="yes"/>
      <point x="540" y="115" type="line" smooth="yes"/>
      <point x="536.852" y="103.981"/>
      <point x="534.942" y="94.3561"/>
      <point x="534.942" y="86.7343" type="curve" smooth="yes"/>
      <point x="534.942" y="74.9883"/>
      <point x="539.477" y="68"/>
      <point x="548.674" y="68" type="curve" smooth="yes"/>
      <point x="574" y="68"/>
      <point x="612" y="121"/>
      <point x="637" y="167" type="curve"/>
      <point x="666" y="152" type="line"/>
      <point x="626" y="65"/>
      <point x="565" y="-12"/>
      <point x="473.028" y="-12" type="curve" smooth="yes"/>
      <point x="420.633" y="-12"/>
      <point x="390.901" y="12.9901"/>
      <point x="390.901" y="62.5112" type="curve" smooth="yes"/>
      <point x="390.901" y="77.1896"/>
      <point x="393.513" y="94.0231"/>
      <point x="399" y="113" type="curve" smooth="yes"/>
      <point x="473" y="364" type="line" smooth="yes"/>
      <point x="476.187" y="374.718"/>
      <point x="477.695" y="384.094"/>
      <point x="477.695" y="392.006" type="curve" smooth="yes"/>
      <point x="477.695" y="411.405"/>
      <point x="468.627" y="422"/>
      <point x="453" y="422" type="curve" smooth="yes"/>
      <point x="404" y="422"/>
      <point x="322" y="314"/>
      <point x="283" y="213" type="curve" smooth="yes"/>
      <point x="260" y="156"/>
      <point x="245" y="102"/>
      <point x="218" y="0" type="curve"/>
    </contour>
  </outline>
</glyph>
<glyph name="i" format="2">
  <advance width="339"/>
  <unicode hex="0069"/>
  <outline>
    <contour>
      <point x="108" y="107" type="curve" smooth="yes"/>
      <point x="185" y="392" type="line" smooth="yes"/>
      <point x="187.086" y="400.046"/>
      <point x="188.195" y="406.849"/>
      <point x="188.195" y="412.488" type="curve" smooth="yes"/>
      <point x="188.195" y="425.771"/>
      <point x="182.04" y="432.596"/>
      <point x="168" y="434" type="curve" smooth="yes"/>
      <point x="110" y="440" type="line"/>
      <point x="118" y="473" type="line"/>
      <point x="348" y="502" type="line"/>
      <point x="354" y="496" type="line"/>
      <point x="251" y="115" type="line" smooth="yes"/>
      <point x="248.212" y="104.645"/>
      <point x="246.376" y="95.0829"/>
      <point x="246.376" y="87.3248" type="curve" smooth="yes"/>
      <point x="246.376" y="75.6036"/>
      <point x="250.567" y="68"/>
      <point x="262" y="68" type="curve" smooth="yes"/>
      <point x="285" y="68"/>
      <point x="323" y="121"/>
      <point x="348" y="166" type="curve"/>
      <point x="378" y="149" type="line"/>
      <point x="336" y="65"/>
      <point x="275" y="-12"/>
      <point x="178" y="-12" type="curve" smooth="yes"/>
      <point x="126.715" y="-12"/>
      <point x="100.624" y="12.608"/>
      <point x="100.624" y="58.6846" type="curve" smooth="yes"/>
      <point x="100.624" y="72.804"/>
      <point x="103.074" y="88.9392"/>
    </contour>
    <contour>
      <point x="225" y="632" type="curve" smooth="yes"/>
      <point x="225" y="675"/>
      <point x="253" y="720"/>
      <point x="312" y="720" type="curve" smooth="yes"/>
      <point x="356" y="720"/>
      <point x="392" y="696"/>
      <point x="392" y="647" type="curve" smooth="yes"/>
      <point x="392" y="592"/>
      <point x="357" y="559"/>
      <point x="306" y="559" type="curve" smooth="yes"/>
      <point x="258" y="559"/>
      <point x="225" y="587"/>
    </contour>
  </outline>
</glyph>
<glyph name="l" format="2">
  <advance width="327"/>
  <unicode hex="006C"/>
  <outline>
    <contour>
      <point x="112" y="149.133" type="line"/>
      <point x="229" y="633.929" type="line" smooth="yes"/>
      <point x="231" y="642.944"/>
      <point x="232" y="649.956"/>
      <point x="232" y="655.965" type="curve" smooth="yes"/>
      <point x="232" y="669.988"/>
      <point x="226" y="675.998"/>
      <point x="213" y="677" type="curve"/>
      <point x="155" y="683.821" type="line"/>
      <point x="162" y="715" type="line"/>
      <point x="389" y="742" type="line"/>
      <point x="395" y="737" type="line"/>
      <point x="252" y="149.133" type="line"/>
    </contour>
    <contour>
      <point x="102" y="107.064" type="curve" smooth="yes"/>
      <point x="112" y="149.133" type="line"/>
      <point x="252" y="149.133" type="line"/>
      <point x="245" y="115.077" type="line" smooth="yes"/>
      <point x="242.951" y="104.402"/>
      <point x="241.237" y="94.5688"/>
      <point x="241.237" y="86.6806" type="curve" smooth="yes"/>
      <point x="241.237" y="75.3246"/>
      <point x="244.788" y="68"/>
      <point x="254.054" y="68" type="curve" smooth="yes"/>
      <point x="279" y="68"/>
      <point x="317" y="121.087"/>
      <point x="342" y="166.161" type="curve"/>
      <point x="372" y="149.133" type="line"/>
      <point x="330" y="65"/>
      <point x="269" y="-12"/>
      <point x="173.865" y="-12" type="curve" smooth="yes"/>
      <point x="120.353" y="-12"/>
      <point x="95.4453" y="12.3629"/>
      <point x="95.4453" y="59.2857" type="curve" smooth="yes"/>
      <point x="95.4453" y="73.2341"/>
      <point x="97.6463" y="89.1761"/>
    </contour>
  </outline>
  <guideline angle="76.4119" x="76" y="0"/>
  <guideline angle="256.349" x="395" y="737"/>
</glyph>
<glyph name="m" format="2">
  <advance width="914"/>
  <unicode hex="006D"/>
  <outline>
    <contour>
      <point x="81" y="-12" type="line"/>
      <point x="182" y="391" type="line" smooth="yes"/>
      <point x="189" y="418"/>
      <point x="186" y="432"/>
      <point x="167" y="434" type="curve" smooth="yes"/>
      <point x="109" y="440" type="line"/>
      <point x="116" y="473" type="line"/>
      <point x="344" y="502" type="line"/>
      <point x="349" y="496" type="line"/>
      <point x="285" y="283" type="line"/>
      <point x="290" y="283" type="line"/>
      <point x="352" y="401"/>
      <point x="446" y="502"/>
      <point x="535" y="502" type="curve" smooth="yes"/>
      <point x="614" y="502"/>
      <point x="621" y="439"/>
      <point x="596" y="356" type="curve" smooth="yes"/>
      <point x="575" y="284" type="line"/>
      <point x="580" y="283" type="line"/>
      <point x="642" y="402"/>
      <point x="731" y="502"/>
      <point x="830" y="502" type="curve" smooth="yes"/>
      <point x="909" y="502"/>
      <point x="925" y="435"/>
      <point x="901" y="357" type="curve" smooth="yes"/>
      <point x="828" y="115" type="line"/>
      <point x="819" y="89"/>
      <point x="819" y="68"/>
      <point x="838" y="68" type="curve" smooth="yes"/>
      <point x="862" y="68"/>
      <point x="900" y="121"/>
      <point x="925" y="166" type="curve"/>
      <point x="952" y="148" type="line"/>
      <point x="912" y="65"/>
      <point x="852" y="-12"/>
      <point x="754" y="-12" type="curve" smooth="yes"/>
      <point x="695" y="-12"/>
      <point x="666" y="29"/>
      <point x="687" y="107" type="curve" smooth="yes"/>
      <point x="763" y="364" type="line" smooth="yes"/>
      <point x="773" y="398"/>
      <point x="772" y="422"/>
      <point x="745" y="422" type="curve" smooth="yes"/>
      <point x="698" y="422"/>
      <point x="609" y="289"/>
      <point x="578" y="214" type="curve" smooth="yes"/>
      <point x="555" y="156"/>
      <point x="536" y="102"/>
      <point x="508" y="0" type="curve"/>
      <point x="370" y="-12" type="line"/>
      <point x="475" y="374" type="line" smooth="yes"/>
      <point x="484" y="409"/>
      <point x="479" y="422"/>
      <point x="455" y="422" type="curve" smooth="yes"/>
      <point x="408" y="422"/>
      <point x="318" y="287"/>
      <point x="288" y="212" type="curve" smooth="yes"/>
      <point x="266" y="156"/>
      <point x="248" y="102"/>
      <point x="219" y="0" type="curve"/>
    </contour>
  </outline>
</glyph>
<glyph name="n" format="2">
  <advance width="635"/>
  <unicode hex="006E"/>
  <outline>
    <contour>
      <point x="81.0935" y="-12" type="line"/>
      <point x="184.094" y="391" type="line" smooth="yes"/>
      <point x="186.321" y="399.714"/>
      <point x="187.533" y="407.044"/>
      <point x="187.533" y="413.051" type="curve" smooth="yes"/>
      <point x="187.533" y="426.171"/>
      <point x="182.025" y="433.525"/>
      <point x="169.094" y="435" type="curve" smooth="yes"/>
      <point x="109.094" y="440.846" type="line"/>
      <point x="117.094" y="473" type="line"/>
      <point x="350.094" y="502" type="line"/>
      <point x="355.094" y="497" type="line"/>
      <point x="287.094" y="280" type="line"/>
      <point x="293.094" y="280" type="line"/>
      <point x="355.094" y="396"/>
      <point x="446.094" y="502"/>
      <point x="549.881" y="502" type="curve" smooth="yes"/>
      <point x="608.94" y="502"/>
      <point x="632.895" y="467.611"/>
      <point x="632.895" y="418.464" type="curve" smooth="yes"/>
      <point x="632.895" y="399.719"/>
      <point x="629.39" y="378.857"/>
      <point x="623.074" y="357" type="curve" smooth="yes"/>
      <point x="548.636" y="115" type="line" smooth="yes"/>
      <point x="545.617" y="105.115"/>
      <point x="543.889" y="95.9524"/>
      <point x="543.889" y="88.3921" type="curve" smooth="yes"/>
      <point x="543.889" y="76.0672"/>
      <point x="548.48" y="68"/>
      <point x="558.273" y="68" type="curve" smooth="yes"/>
      <point x="583.374" y="68"/>
      <point x="621.089" y="121"/>
      <point x="645" y="166" type="curve"/>
      <point x="674" y="148" type="line"/>
      <point x="633" y="64"/>
      <point x="573.448" y="-12"/>
      <point x="480.652" y="-12" type="curve" smooth="yes"/>
      <point x="426.826" y="-12"/>
      <point x="398.773" y="13.218"/>
      <point x="398.773" y="60.3971" type="curve" smooth="yes"/>
      <point x="398.773" y="74.1043"/>
      <point x="401.141" y="89.6652"/>
      <point x="406.094" y="107" type="curve" smooth="yes"/>
      <point x="482.094" y="363" type="line" smooth="yes"/>
      <point x="485.494" y="374.334"/>
      <point x="487.895" y="385.525"/>
      <point x="487.895" y="395.063" type="curve" smooth="yes"/>
      <point x="487.895" y="410.773"/>
      <point x="481.382" y="422"/>
      <point x="466.277" y="422" type="curve" smooth="yes"/>
      <point x="414.094" y="422"/>
      <point x="324.094" y="288"/>
      <point x="294.094" y="213" type="curve" smooth="yes"/>
      <point x="271.094" y="155"/>
      <point x="251.094" y="102"/>
      <point x="222.094" y="0" type="curve"/>
    </contour>
  </outline>
</glyph>
<glyph name="o" format="2">
  <advance width="562"/>
  <unicode hex="006F"/>
  <outline>
    <contour>
      <point x="77" y="174" type="curve" smooth="yes"/>
      <point x="77" y="350"/>
      <point x="197" y="502"/>
      <point x="386.691" y="502" type="curve" smooth="yes"/>
      <point x="484" y="502"/>
      <point x="591" y="462"/>
      <point x="591" y="304.865" type="curve" smooth="yes"/>
      <point x="591" y="133"/>
      <point x="463" y="-12"/>
      <point x="276.088" y="-12" type="curve" smooth="yes"/>
      <point x="139" y="-12"/>
      <point x="77" y="66"/>
    </contour>
    <contour>
      <point x="222" y="108.838" type="curve" smooth="yes"/>
      <point x="222" y="57"/>
      <point x="245" y="34"/>
      <point x="277.267" y="34" type="curve" smooth="yes"/>
      <point x="387" y="34"/>
      <point x="446" y="300"/>
      <point x="446" y="382.171" type="curve" smooth="yes"/>
      <point x="446" y="416"/>
      <point x="436" y="456"/>
      <point x="391.631" y="456" type="curve" smooth="yes"/>
      <point x="277" y="456"/>
      <point x="222" y="189"/>
    </contour>
  </outline>
</glyph>
<glyph name="p" format="2">
  <advance width="606"/>
  <unicode hex="0070"/>
  <outline>
    <contour>
      <point x="35" y="-242" type="line"/>
      <point x="173" y="391" type="line" smooth="yes"/>
      <point x="179" y="417"/>
      <point x="177" y="432"/>
      <point x="158" y="434" type="curve" smooth="yes"/>
      <point x="99" y="440" type="line"/>
      <point x="106" y="473" type="line"/>
      <point x="335" y="502" type="line"/>
      <point x="340" y="497" type="line"/>
      <point x="283" y="286" type="line"/>
      <point x="287" y="286" type="line"/>
      <point x="364" y="429"/>
      <point x="449" y="502"/>
      <point x="536" y="502" type="curve" smooth="yes"/>
      <point x="612" y="502"/>
      <point x="648" y="452"/>
      <point x="648" y="374" type="curve" smooth="yes"/>
      <point x="648" y="286"/>
      <point x="578" y="-12"/>
      <point x="339" y="-12" type="curve" smooth="yes"/>
      <point x="287" y="-12"/>
      <point x="252" y="-3"/>
      <point x="232" y="9" type="curve"/>
      <point x="175" y="-230" type="line"/>
    </contour>
    <contour>
      <point x="243" y="64" type="curve"/>
      <point x="261" y="46"/>
      <point x="287" y="34"/>
      <point x="318" y="34" type="curve" smooth="yes"/>
      <point x="433" y="34"/>
      <point x="494" y="284"/>
      <point x="494" y="367" type="curve" smooth="yes"/>
      <point x="494" y="403"/>
      <point x="483" y="422"/>
      <point x="457" y="422" type="curve" smooth="yes"/>
      <point x="418" y="422"/>
      <point x="366" y="364"/>
      <point x="321" y="283" type="curve" smooth="yes"/>
      <point x="285" y="217"/>
      <point x="255" y="117"/>
    </contour>
  </outline>
</glyph>
<glyph name="q" format="2">
  <advance width="584"/>
  <unicode hex="0071"/>
  <outline>
    <contour>
      <point x="64" y="106" type="curve" smooth="yes"/>
      <point x="64" y="247"/>
      <point x="167" y="502"/>
      <point x="419" y="502" type="curve" smooth="yes"/>
      <point x="474" y="502"/>
      <point x="515" y="491"/>
      <point x="543" y="479" type="curve"/>
      <point x="583" y="513" type="line"/>
      <point x="639" y="513" type="line"/>
      <point x="465" y="-221" type="line"/>
      <point x="320" y="-242" type="line"/>
      <point x="418" y="190" type="line"/>
      <point x="415" y="190" type="line"/>
      <point x="340" y="64"/>
      <point x="259" y="-12"/>
      <point x="171" y="-12" type="curve" smooth="yes"/>
      <point x="99" y="-12"/>
      <point x="64" y="38"/>
    </contour>
    <contour>
      <point x="218" y="122" type="curve" smooth="yes"/>
      <point x="218" y="95"/>
      <point x="224" y="68"/>
      <point x="252" y="68" type="curve" smooth="yes"/>
      <point x="281" y="68"/>
      <point x="311" y="92"/>
      <point x="360" y="161" type="curve" smooth="yes"/>
      <point x="412" y="234"/>
      <point x="458" y="335"/>
      <point x="483" y="442" type="curve"/>
      <point x="469" y="451"/>
      <point x="450" y="456"/>
      <point x="431" y="456" type="curve" smooth="yes"/>
      <point x="295" y="456"/>
      <point x="218" y="217"/>
    </contour>
  </outline>
</glyph>
<glyph name="u" format="2">
  <advance width="634"/>
  <unicode hex="0075"/>
  <outline>
    <contour>
      <point x="106.09" y="67.0448" type="curve" smooth="yes"/>
      <point x="106.09" y="86.8375"/>
      <point x="109.768" y="109.258"/>
      <point x="116" y="133" type="curve" smooth="yes"/>
      <point x="183" y="391" type="line" smooth="yes"/>
      <point x="185.564" y="400.615"/>
      <point x="186.895" y="408.586"/>
      <point x="186.895" y="415.046" type="curve" smooth="yes"/>
      <point x="186.895" y="428.741"/>
      <point x="180.911" y="435.641"/>
      <point x="168" y="437" type="curve" smooth="yes"/>
      <point x="109" y="443" type="line"/>
      <point x="117" y="476" type="line"/>
      <point x="348" y="502" type="line"/>
      <point x="353" y="497" type="line"/>
      <point x="259" y="128" type="line" smooth="yes"/>
      <point x="255.398" y="114.673"/>
      <point x="253.223" y="103.162"/>
      <point x="253.223" y="93.8884" type="curve" smooth="yes"/>
      <point x="253.223" y="77.4152"/>
      <point x="260.085" y="68"/>
      <point x="273.809" y="68" type="curve" smooth="yes"/>
      <point x="325" y="68"/>
      <point x="407" y="199"/>
      <point x="445.598" y="289.506" type="curve" smooth="yes"/>
      <point x="465" y="335"/>
      <point x="481" y="388"/>
      <point x="510" y="490" type="curve"/>
      <point x="652" y="502" type="line"/>
      <point x="551" y="115" type="line" smooth="yes"/>
      <point x="548.405" y="105.058"/>
      <point x="546.772" y="95.9212"/>
      <point x="546.768" y="88.3996" type="curve" smooth="yes"/>
      <point x="546.761" y="76.0076"/>
      <point x="551.176" y="68"/>
      <point x="560.924" y="68" type="curve" smooth="yes"/>
      <point x="586" y="68"/>
      <point x="623" y="121"/>
      <point x="649" y="166" type="curve"/>
      <point x="678" y="148" type="line"/>
      <point x="637" y="65"/>
      <point x="576" y="-12"/>
      <point x="487.044" y="-12" type="curve" smooth="yes"/>
      <point x="436.057" y="-12"/>
      <point x="409.557" y="13.2958"/>
      <point x="409.557" y="57.8526" type="curve" smooth="yes"/>
      <point x="409.557" y="69.3257"/>
      <point x="411.314" y="82.0758"/>
      <point x="415" y="96" type="curve" smooth="yes"/>
      <point x="446" y="210" type="line"/>
      <point x="442" y="210" type="line"/>
      <point x="379" y="94"/>
      <point x="296" y="-12"/>
      <point x="186.849" y="-12" type="curve" smooth="yes"/>
      <point x="126.742" y="-12"/>
      <point x="106.09" y="20.1444"/>
    </contour>
  </outline>
</glyph>
<glyph name="w" format="2">
  <advance width="811"/>
  <unicode hex="0077"/>
  <outline>
    <contour>
      <point x="110" y="443" type="line"/>
      <point x="117" y="476" type="line"/>
      <point x="344" y="502" type="line"/>
      <point x="349" y="497" type="line"/>
      <point x="264" y="140" type="line" smooth="yes"/>
      <point x="260.679" y="126.206"/>
      <point x="259.185" y="114.761"/>
      <point x="259.185" y="105.365" type="curve" smooth="yes"/>
      <point x="259.185" y="77.9784"/>
      <point x="271.875" y="68"/>
      <point x="288.579" y="68" type="curve" smooth="yes"/>
      <point x="386.986" y="68"/>
      <point x="480.548" y="414.346"/>
      <point x="499" y="487" type="curve"/>
      <point x="635" y="493" type="line"/>
      <point x="566" y="185" type="line" smooth="yes"/>
      <point x="559.929" y="158.357"/>
      <point x="556.702" y="136.377"/>
      <point x="556.702" y="118.946" type="curve" smooth="yes"/>
      <point x="556.702" y="84.6909"/>
      <point x="569.165" y="68"/>
      <point x="592.259" y="68" type="curve" smooth="yes"/>
      <point x="661" y="68"/>
      <point x="746" y="215.871"/>
      <point x="746" y="355" type="curve" smooth="yes"/>
      <point x="746" y="404"/>
      <point x="742" y="442"/>
      <point x="732" y="481" type="curve"/>
      <point x="769" y="494"/>
      <point x="800" y="502"/>
      <point x="835" y="502" type="curve" smooth="yes"/>
      <point x="843" y="502"/>
      <point x="866" y="466"/>
      <point x="866" y="418.862" type="curve" smooth="yes"/>
      <point x="866" y="282.759"/>
      <point x="674.259" y="-12"/>
      <point x="513.104" y="-12" type="curve" smooth="yes"/>
      <point x="453" y="-12"/>
      <point x="427" y="29"/>
      <point x="427" y="85.6026" type="curve" smooth="yes"/>
      <point x="427" y="117"/>
      <point x="435" y="156"/>
      <point x="444" y="195" type="curve"/>
      <point x="440" y="195" type="line"/>
      <point x="377" y="74"/>
      <point x="291" y="-12"/>
      <point x="202.215" y="-12" type="curve" smooth="yes"/>
      <point x="150.392" y="-12"/>
      <point x="114.504" y="17.3"/>
      <point x="114.504" y="78.5269" type="curve" smooth="yes"/>
      <point x="114.504" y="93.1778"/>
      <point x="116.559" y="109.657"/>
      <point x="121" y="128" type="curve" smooth="yes"/>
      <point x="184" y="391" type="line" smooth="yes"/>
      <point x="186.138" y="400.469"/>
      <point x="187.25" y="408.259"/>
      <point x="187.25" y="414.569" type="curve" smooth="yes"/>
      <point x="187.25" y="428.916"/>
      <point x="181.502" y="435.611"/>
      <point x="169" y="437" type="curve" smooth="yes"/>
    </contour>
  </outline>
</glyph>
<glyph name="x" format="2">
  <advance width="516"/>
  <unicode hex="0078"/>
  <outline>
    <contour>
      <point x="9" y="50" type="curve" smooth="yes"/>
      <point x="9" y="89"/>
      <point x="37" y="124"/>
      <point x="67" y="124" type="curve" smooth="yes"/>
      <point x="86" y="124"/>
      <point x="103" y="111"/>
      <point x="115" y="103" type="curve"/>
      <point x="126" y="95"/>
      <point x="135" y="90"/>
      <point x="147" y="90" type="curve" smooth="yes"/>
      <point x="165" y="90"/>
      <point x="191" y="129"/>
      <point x="223" y="190" type="curve" smooth="yes"/>
      <point x="228" y="200"/>
      <point x="240" y="221"/>
      <point x="245" y="232" type="curve"/>
      <point x="206" y="393" type="line" smooth="yes"/>
      <point x="200" y="419"/>
      <point x="190" y="423"/>
      <point x="166" y="423" type="curve"/>
      <point x="106" y="421" type="line"/>
      <point x="103" y="452" type="line"/>
      <point x="313" y="502" type="line"/>
      <point x="320" y="498" type="line"/>
      <point x="351" y="352" type="line"/>
      <point x="353" y="352" type="line"/>
      <point x="363" y="370"/>
      <point x="383" y="402"/>
      <point x="399" y="424" type="curve" smooth="yes"/>
      <point x="437" y="476"/>
      <point x="474" y="502"/>
      <point x="520" y="502" type="curve" smooth="yes"/>
      <point x="552" y="502"/>
      <point x="581" y="484"/>
      <point x="581" y="445" type="curve" smooth="yes"/>
      <point x="581" y="408"/>
      <point x="554" y="376"/>
      <point x="525" y="376" type="curve" smooth="yes"/>
      <point x="510" y="376"/>
      <point x="494" y="383"/>
      <point x="483" y="388" type="curve"/>
      <point x="469" y="395"/>
      <point x="458" y="399"/>
      <point x="447" y="399" type="curve" smooth="yes"/>
      <point x="421" y="399"/>
      <point x="391" y="350"/>
      <point x="363" y="301" type="curve"/>
      <point x="406" y="128" type="line" smooth="yes"/>
      <point x="417" y="84"/>
      <point x="425" y="68"/>
      <point x="442" y="68" type="curve"/>
      <point x="467" y="69"/>
      <point x="497" y="122"/>
      <point x="523" y="179" type="curve"/>
      <point x="554" y="164" type="line"/>
      <point x="523" y="78"/>
      <point x="467" y="-12"/>
      <point x="372" y="-12" type="curve" smooth="yes"/>
      <point x="311" y="-12"/>
      <point x="290" y="37"/>
      <point x="275" y="102" type="curve" smooth="yes"/>
      <point x="259" y="170" type="line"/>
      <point x="256" y="170" type="line"/>
      <point x="248" y="154"/>
      <point x="230" y="121"/>
      <point x="223" y="107" type="curve"/>
      <point x="186" y="40"/>
      <point x="151" y="-12"/>
      <point x="87" y="-12" type="curve" smooth="yes"/>
      <point x="38" y="-12"/>
      <point x="9" y="15"/>
    </contour>
  </outline>
</glyph>
<glyph name="braceleft" format="2">
  <advance width="340"/>
  <unicode hex="007B"/>
  <outline>
    <contour>
      <point x="125" y="265" type="curve"/>
      <point x="132" y="299" type="line"/>
      <point x="226" y="299"/>
      <point x="236" y="340"/>
      <point x="245" y="411" type="curve" smooth="yes"/>
      <point x="247" y="430"/>
      <point x="250" y="449"/>
      <point x="252" y="467" type="curve" smooth="yes"/>
      <point x="254" y="480"/>
      <point x="255" y="492"/>
      <point x="257" y="505" type="curve" smooth="yes"/>
      <point x="267" y="588"/>
      <point x="289" y="692"/>
      <point x="431" y="692" type="curve" smooth="yes"/>
      <point x="438" y="692"/>
      <point x="445" y="692"/>
      <point x="453" y="692" type="curve" smooth="yes"/>
      <point x="474" y="692" type="line"/>
      <point x="466" y="658" type="line"/>
      <point x="404" y="653"/>
      <point x="381" y="624"/>
      <point x="370" y="580" type="curve"/>
      <point x="366" y="567"/>
      <point x="364" y="554"/>
      <point x="362" y="539" type="curve" smooth="yes"/>
      <point x="360" y="520"/>
      <point x="357" y="501"/>
      <point x="355" y="481" type="curve" smooth="yes"/>
      <point x="354" y="475"/>
      <point x="353" y="468"/>
      <point x="352" y="462" type="curve" smooth="yes"/>
      <point x="340" y="362"/>
      <point x="335" y="309"/>
      <point x="221" y="285" type="curve"/>
      <point x="220" y="279" type="line"/>
      <point x="333" y="255"/>
      <point x="297" y="182"/>
      <point x="271" y="102" type="curve" smooth="yes"/>
      <point x="267" y="89"/>
      <point x="262" y="76"/>
      <point x="258" y="64" type="curve" smooth="yes"/>
      <point x="253" y="51"/>
      <point x="249" y="38"/>
      <point x="244" y="25" type="curve" smooth="yes"/>
      <point x="235" y="0"/>
      <point x="229" y="-22"/>
      <point x="230" y="-40" type="curve"/>
      <point x="230" y="-70"/>
      <point x="247" y="-90"/>
      <point x="296" y="-94" type="curve"/>
      <point x="289" y="-128" type="line"/>
      <point x="262" y="-128" type="line" smooth="yes"/>
      <point x="165" y="-128"/>
      <point x="135" y="-89"/>
      <point x="133" y="-39" type="curve" smooth="yes"/>
      <point x="132" y="-8"/>
      <point x="142" y="27"/>
      <point x="152" y="59" type="curve" smooth="yes"/>
      <point x="158" y="78"/>
      <point x="165" y="97"/>
      <point x="171" y="115" type="curve" smooth="yes"/>
      <point x="175" y="128"/>
      <point x="180" y="140"/>
      <point x="184" y="153" type="curve" smooth="yes"/>
      <point x="207" y="224"/>
      <point x="202" y="265"/>
    </contour>
  </outline>
</glyph>
<glyph name="bar" format="2">
  <advance width="265"/>
  <unicode hex="007C"/>
  <outline>
    <contour>
      <point x="152" y="-250" type="line"/>
      <point x="152" y="750" type="line"/>
      <point x="256" y="750" type="line"/>
      <point x="256" y="-250" type="line"/>
    </contour>
  </outline>
</glyph>
<glyph name="braceright" format="2">
  <advance width="340"/>
  <unicode hex="007D"/>
  <outline>
    <contour>
      <point x="-7" y="-128" type="line"/>
      <point x="1" y="-94" type="line"/>
      <point x="63" y="-89"/>
      <point x="86" y="-60"/>
      <point x="97" y="-16" type="curve"/>
      <point x="101" y="-3"/>
      <point x="103" y="10"/>
      <point x="105" y="25" type="curve" smooth="yes"/>
      <point x="108" y="44"/>
      <point x="110" y="64"/>
      <point x="113" y="83" type="curve"/>
      <point x="113" y="89"/>
      <point x="114" y="96"/>
      <point x="115" y="102" type="curve" smooth="yes"/>
      <point x="127" y="202"/>
      <point x="132" y="255"/>
      <point x="246" y="279" type="curve"/>
      <point x="247" y="285" type="line"/>
      <point x="134" y="309"/>
      <point x="170" y="382"/>
      <point x="196" y="462" type="curve"/>
      <point x="201" y="475"/>
      <point x="205" y="488"/>
      <point x="210" y="501" type="curve" smooth="yes"/>
      <point x="214" y="513"/>
      <point x="219" y="526"/>
      <point x="223" y="539" type="curve" smooth="yes"/>
      <point x="232" y="564"/>
      <point x="238" y="586"/>
      <point x="237" y="604" type="curve"/>
      <point x="237" y="634"/>
      <point x="220" y="654"/>
      <point x="171" y="658" type="curve"/>
      <point x="178" y="692" type="line"/>
      <point x="205" y="692" type="line" smooth="yes"/>
      <point x="302" y="692"/>
      <point x="332" y="653"/>
      <point x="334" y="603" type="curve" smooth="yes"/>
      <point x="335" y="572"/>
      <point x="325" y="537"/>
      <point x="315" y="505" type="curve" smooth="yes"/>
      <point x="309" y="486"/>
      <point x="302" y="467"/>
      <point x="296" y="449" type="curve" smooth="yes"/>
      <point x="292" y="436"/>
      <point x="287" y="424"/>
      <point x="283" y="411" type="curve" smooth="yes"/>
      <point x="260" y="340"/>
      <point x="265" y="299"/>
      <point x="342" y="299" type="curve"/>
      <point x="335" y="265" type="line"/>
      <point x="236" y="265"/>
      <point x="231" y="224"/>
      <point x="222" y="153" type="curve" smooth="yes"/>
      <point x="220" y="134"/>
      <point x="217" y="115"/>
      <point x="215" y="97" type="curve" smooth="yes"/>
      <point x="213" y="84"/>
      <point x="212" y="72"/>
      <point x="210" y="59" type="curve" smooth="yes"/>
      <point x="200" y="-24"/>
      <point x="178" y="-128"/>
      <point x="36" y="-128" type="curve" smooth="yes"/>
      <point x="29" y="-128"/>
      <point x="22" y="-128"/>
      <point x="15" y="-128" type="curve" smooth="yes"/>
    </contour>
  </outline>
</glyph>
<glyph name="yen" format="2">
  <advance width="560"/>
  <unicode hex="00A5"/>
  <outline>
    <contour>
      <point x="100" y="179" type="line"/>
      <point x="111" y="227" type="line"/>
      <point x="259" y="227" type="line"/>
      <point x="267" y="262" type="line" smooth="yes"/>
      <point x="273" y="286"/>
      <point x="271" y="301"/>
      <point x="269" y="314" type="curve"/>
      <point x="134" y="314" type="line"/>
      <point x="145" y="362" type="line"/>
      <point x="258" y="362" type="line"/>
      <point x="233" y="469"/>
      <point x="213" y="544"/>
      <point x="201" y="589" type="curve" smooth="yes"/>
      <point x="193" y="619"/>
      <point x="184" y="625"/>
      <point x="168" y="627" type="curve"/>
      <point x="138" y="632" type="line"/>
      <point x="147" y="668" type="line"/>
      <point x="424" y="668" type="line"/>
      <point x="415" y="632" type="line"/>
      <point x="368" y="628" type="line" smooth="yes"/>
      <point x="348" y="626"/>
      <point x="346" y="617"/>
      <point x="348" y="600" type="curve" smooth="yes"/>
      <point x="356" y="542"/>
      <point x="375" y="454"/>
      <point x="395" y="361" type="curve"/>
      <point x="397" y="361" type="line"/>
      <point x="457" y="453"/>
      <point x="526" y="573"/>
      <point x="540" y="598" type="curve" smooth="yes"/>
      <point x="549" y="614"/>
      <point x="547" y="625"/>
      <point x="532" y="627" type="curve"/>
      <point x="477" y="632" type="line"/>
      <point x="486" y="668" type="line"/>
      <point x="711" y="668" type="line"/>
      <point x="703" y="632" type="line"/>
      <point x="674" y="629" type="line" smooth="yes"/>
      <point x="649" y="626"/>
      <point x="637" y="613"/>
      <point x="611" y="581" type="curve" smooth="yes"/>
      <point x="597" y="564"/>
      <point x="527" y="466"/>
      <point x="459" y="362" type="curve"/>
      <point x="587" y="362" type="line"/>
      <point x="577" y="314" type="line"/>
      <point x="429" y="314" type="line"/>
      <point x="425" y="306"/>
      <point x="416" y="285"/>
      <point x="411" y="263" type="curve" smooth="yes"/>
      <point x="403" y="227" type="line"/>
      <point x="566" y="227" type="line"/>
      <point x="556" y="179" type="line"/>
      <point x="392" y="179" type="line"/>
      <point x="370" y="79" type="line" smooth="yes"/>
      <point x="368" y="72"/>
      <point x="367" y="66"/>
      <point x="368" y="60" type="curve"/>
      <point x="368" y="49"/>
      <point x="374" y="42"/>
      <point x="390" y="41" type="curve"/>
      <point x="390" y="41"/>
      <point x="390" y="41"/>
      <point x="390" y="41" type="curve"/>
      <point x="449" y="36" type="line"/>
      <point x="442" y="0" type="line"/>
      <point x="127" y="0" type="line"/>
      <point x="134" y="36" type="line"/>
      <point x="191" y="40" type="line" smooth="yes"/>
      <point x="213" y="42"/>
      <point x="222" y="58"/>
      <point x="227" y="79" type="curve" smooth="yes"/>
      <point x="249" y="179" type="line"/>
    </contour>
  </outline>
</glyph>
<glyph name="brokenbar" format="2">
  <advance width="265"/>
  <unicode hex="00A6"/>
  <outline>
    <contour>
      <point x="152" y="325" type="line"/>
      <point x="152" y="675" type="line"/>
      <point x="256" y="675" type="line"/>
      <point x="256" y="325" type="line"/>
    </contour>
    <contour>
      <point x="152" y="-175" type="line"/>
      <point x="152" y="175" type="line"/>
      <point x="256" y="175" type="line"/>
      <point x="256" y="-175" type="line"/>
    </contour>
  </outline>
</glyph>
<glyph name="guillemotleft" format="2">
  <advance width="560"/>
  <unicode hex="00AB"/>
  <outline>
    <contour>
      <point x="132" y="231" type="line" smooth="yes"/>
      <point x="121" y="246"/>
      <point x="124" y="256"/>
      <point x="139" y="270" type="curve" smooth="yes"/>
      <point x="344" y="464" type="line"/>
      <point x="368" y="443" type="line"/>
      <point x="258" y="272" type="line" smooth="yes"/>
      <point x="249" y="257"/>
      <point x="246" y="246"/>
      <point x="250" y="232" type="curve" smooth="yes"/>
      <point x="297" y="54" type="line"/>
      <point x="269" y="37" type="line"/>
    </contour>
    <contour>
      <point x="332" y="231" type="line" smooth="yes"/>
      <point x="321" y="246"/>
      <point x="324" y="256"/>
      <point x="339" y="270" type="curve" smooth="yes"/>
      <point x="544" y="464" type="line"/>
      <point x="568" y="443" type="line"/>
      <point x="458" y="272" type="line" smooth="yes"/>
      <point x="449" y="257"/>
      <point x="446" y="246"/>
      <point x="450" y="232" type="curve" smooth="yes"/>
      <point x="497" y="54" type="line"/>
      <point x="469" y="37" type="line"/>
    </contour>
  </outline>
</glyph>
<glyph name="registered" format="2">
  <advance width="824"/>
  <unicode hex="00AE"/>
  <outline>
    <contour>
      <point x="457" y="363" type="line"/>
      <point x="481" y="363" type="line"/>
      <point x="481" y="363" type="line"/>
      <point x="506" y="363"/>
      <point x="521" y="370"/>
      <point x="531" y="382" type="curve" smooth="yes"/>
      <point x="541" y="395"/>
      <point x="546" y="413"/>
      <point x="546" y="437" type="curve" smooth="yes"/>
      <point x="546" y="488"/>
      <point x="519" y="508"/>
      <point x="488" y="508" type="curve" smooth="yes"/>
      <point x="461" y="508"/>
      <point x="457" y="503"/>
      <point x="457" y="488" type="curve" smooth="yes"/>
    </contour>
    <contour>
      <point x="311" y="159" type="line"/>
      <point x="311" y="185" type="line"/>
      <point x="338" y="189" type="line" smooth="yes"/>
      <point x="354" y="191"/>
      <point x="357" y="201"/>
      <point x="357" y="219" type="curve" smooth="yes"/>
      <point x="357" y="481" type="line" smooth="yes"/>
      <point x="357" y="498"/>
      <point x="354" y="508"/>
      <point x="338" y="510" type="curve" smooth="yes"/>
      <point x="311" y="514" type="line"/>
      <point x="311" y="540" type="line"/>
      <point x="505" y="540" type="line" smooth="yes"/>
      <point x="510" y="540"/>
      <point x="514" y="540"/>
      <point x="519" y="540" type="curve" smooth="yes"/>
      <point x="618" y="540"/>
      <point x="651" y="500"/>
      <point x="651" y="448" type="curve" smooth="yes"/>
      <point x="651" y="396"/>
      <point x="615" y="361"/>
      <point x="562" y="351" type="curve"/>
      <point x="562" y="349" type="line"/>
      <point x="617" y="334"/>
      <point x="623" y="297"/>
      <point x="634" y="253" type="curve" smooth="yes"/>
      <point x="640" y="228"/>
      <point x="649" y="205"/>
      <point x="661" y="196" type="curve" smooth="yes"/>
      <point x="667" y="191"/>
      <point x="675" y="188"/>
      <point x="685" y="185" type="curve"/>
      <point x="685" y="159" type="line"/>
      <point x="630" y="159" type="line" smooth="yes"/>
      <point x="579" y="159"/>
      <point x="559" y="170"/>
      <point x="546" y="193" type="curve" smooth="yes"/>
      <point x="544" y="197"/>
      <point x="543" y="200"/>
      <point x="541" y="204" type="curve" smooth="yes"/>
      <point x="530" y="230"/>
      <point x="523" y="274"/>
      <point x="517" y="295" type="curve" smooth="yes"/>
      <point x="511" y="316"/>
      <point x="502" y="331"/>
      <point x="475" y="331" type="curve" smooth="yes"/>
      <point x="457" y="331" type="line"/>
      <point x="457" y="219" type="line"/>
      <point x="457" y="219" type="line"/>
      <point x="457" y="201"/>
      <point x="461" y="191"/>
      <point x="477" y="189" type="curve" smooth="yes"/>
      <point x="504" y="185" type="line"/>
      <point x="504" y="159" type="line"/>
    </contour>
    <contour>
      <point x="209" y="346" type="curve" smooth="yes"/>
      <point x="209" y="178"/>
      <point x="335" y="48"/>
      <point x="490" y="48" type="curve" smooth="yes"/>
      <point x="645" y="48"/>
      <point x="771" y="178"/>
      <point x="771" y="346" type="curve" smooth="yes"/>
      <point x="771" y="514"/>
      <point x="645" y="644"/>
      <point x="490" y="644" type="curve" smooth="yes"/>
      <point x="335" y="644"/>
      <point x="209" y="514"/>
    </contour>
    <contour>
      <point x="126" y="346" type="curve" smooth="yes"/>
      <point x="126" y="546"/>
      <point x="289" y="707"/>
      <point x="490" y="707" type="curve" smooth="yes"/>
      <point x="691" y="707"/>
      <point x="854" y="546"/>
      <point x="854" y="346" type="curve" smooth="yes"/>
      <point x="854" y="146"/>
      <point x="691" y="-15"/>
      <point x="490" y="-15" type="curve" smooth="yes"/>
      <point x="289" y="-15"/>
      <point x="126" y="146"/>
    </contour>
  </outline>
</glyph>
<glyph name="uni00B2" format="2">
  <advance width="402"/>
  <unicode hex="00B2"/>
  <outline>
    <contour>
      <point x="94" y="418" type="line"/>
      <point x="97" y="465"/>
      <point x="157" y="523"/>
      <point x="254" y="579" type="curve" smooth="yes"/>
      <point x="329" y="623"/>
      <point x="363" y="685"/>
      <point x="363" y="730" type="curve" smooth="yes"/>
      <point x="363" y="758"/>
      <point x="356" y="778"/>
      <point x="335" y="778" type="curve" smooth="yes"/>
      <point x="312" y="778"/>
      <point x="287" y="752"/>
      <point x="262" y="697" type="curve" smooth="yes"/>
      <point x="256" y="683"/>
      <point x="247" y="667"/>
      <point x="222" y="667" type="curve" smooth="yes"/>
      <point x="196" y="667"/>
      <point x="165" y="687"/>
      <point x="165" y="715" type="curve" smooth="yes"/>
      <point x="165" y="762"/>
      <point x="227" y="816"/>
      <point x="330" y="816" type="curve" smooth="yes"/>
      <point x="449" y="816"/>
      <point x="488" y="760"/>
      <point x="488" y="702" type="curve" smooth="yes"/>
      <point x="488" y="625"/>
      <point x="427" y="592"/>
      <point x="350" y="565" type="curve" smooth="yes"/>
      <point x="284" y="542"/>
      <point x="245" y="517"/>
      <point x="225" y="490" type="curve"/>
      <point x="376" y="490" type="line" smooth="yes"/>
      <point x="403" y="490"/>
      <point x="414" y="495"/>
      <point x="434" y="523" type="curve"/>
      <point x="462" y="515" type="line"/>
      <point x="415" y="408" type="line"/>
      <point x="104" y="408" type="line"/>
    </contour>
  </outline>
</glyph>
<glyph name="uni00B3" format="2">
  <advance width="402"/>
  <unicode hex="00B3"/>
  <outline>
    <contour>
      <point x="109" y="485" type="curve" smooth="yes"/>
      <point x="109" y="515"/>
      <point x="140" y="539"/>
      <point x="169" y="539" type="curve" smooth="yes"/>
      <point x="188" y="539"/>
      <point x="200" y="526"/>
      <point x="206" y="509" type="curve" smooth="yes"/>
      <point x="222" y="460"/>
      <point x="238" y="439"/>
      <point x="265" y="439" type="curve" smooth="yes"/>
      <point x="289" y="439"/>
      <point x="322" y="468"/>
      <point x="322" y="544" type="curve" smooth="yes"/>
      <point x="322" y="594"/>
      <point x="300" y="604"/>
      <point x="281" y="604" type="curve" smooth="yes"/>
      <point x="259" y="604"/>
      <point x="233" y="593"/>
      <point x="219" y="593" type="curve" smooth="yes"/>
      <point x="206" y="593"/>
      <point x="199" y="602"/>
      <point x="199" y="617" type="curve" smooth="yes"/>
      <point x="199" y="636"/>
      <point x="207" y="653"/>
      <point x="221" y="653" type="curve" smooth="yes"/>
      <point x="237" y="653"/>
      <point x="263" y="639"/>
      <point x="289" y="639" type="curve" smooth="yes"/>
      <point x="328" y="639"/>
      <point x="350" y="698"/>
      <point x="350" y="735" type="curve" smooth="yes"/>
      <point x="350" y="759"/>
      <point x="340" y="778"/>
      <point x="318" y="778" type="curve" smooth="yes"/>
      <point x="299" y="778"/>
      <point x="280" y="759"/>
      <point x="254" y="714" type="curve" smooth="yes"/>
      <point x="244" y="697"/>
      <point x="235" y="684"/>
      <point x="213" y="684" type="curve" smooth="yes"/>
      <point x="192" y="684"/>
      <point x="164" y="701"/>
      <point x="164" y="729" type="curve" smooth="yes"/>
      <point x="164" y="769"/>
      <point x="221" y="816"/>
      <point x="321" y="816" type="curve" smooth="yes"/>
      <point x="401" y="816"/>
      <point x="471" y="777"/>
      <point x="471" y="715" type="curve" smooth="yes"/>
      <point x="471" y="649"/>
      <point x="407" y="629"/>
      <point x="360" y="623" type="curve"/>
      <point x="359" y="621" type="line"/>
      <point x="410" y="610"/>
      <point x="450" y="577"/>
      <point x="450" y="526" type="curve" smooth="yes"/>
      <point x="450" y="448"/>
      <point x="381" y="401"/>
      <point x="265" y="401" type="curve" smooth="yes"/>
      <point x="167" y="401"/>
      <point x="109" y="440"/>
    </contour>
  </outline>
</glyph>
<glyph name="cedilla" format="2">
  <advance width="400"/>
  <unicode hex="00B8"/>
  <outline>
    <contour>
      <point x="120" y="-243" type="curve"/>
      <point x="122" y="-211" type="line"/>
      <point x="178" y="-211"/>
      <point x="219" y="-196"/>
      <point x="223" y="-153" type="curve" smooth="yes"/>
      <point x="228" y="-109"/>
      <point x="185" y="-100"/>
      <point x="163" y="-98" type="curve"/>
      <point x="160" y="-90" type="line"/>
      <point x="226" y="0" type="line"/>
      <point x="284" y="0" type="line"/>
      <point x="240" y="-56" type="line"/>
      <point x="270" y="-60"/>
      <point x="334" y="-79"/>
      <point x="327" y="-151" type="curve" smooth="yes"/>
      <point x="319" y="-232"/>
      <point x="215" y="-246"/>
      <point x="168" y="-246" type="curve" smooth="yes"/>
      <point x="148" y="-246"/>
      <point x="137" y="-245"/>
    </contour>
  </outline>
</glyph>
<glyph name="guillemotright" format="2">
  <advance width="560"/>
  <unicode hex="00BB"/>
  <outline>
    <contour>
      <point x="93" y="58" type="line"/>
      <point x="203" y="229" type="line" smooth="yes"/>
      <point x="212" y="244"/>
      <point x="215" y="255"/>
      <point x="211" y="269" type="curve" smooth="yes"/>
      <point x="164" y="447" type="line"/>
      <point x="192" y="464" type="line"/>
      <point x="329" y="270" type="line" smooth="yes"/>
      <point x="340" y="255"/>
      <point x="337" y="245"/>
      <point x="322" y="231" type="curve" smooth="yes"/>
      <point x="117" y="37" type="line"/>
    </contour>
    <contour>
      <point x="294" y="58" type="line"/>
      <point x="404" y="229" type="line" smooth="yes"/>
      <point x="413" y="244"/>
      <point x="416" y="255"/>
      <point x="412" y="269" type="curve" smooth="yes"/>
      <point x="365" y="447" type="line"/>
      <point x="393" y="464" type="line"/>
      <point x="530" y="270" type="line" smooth="yes"/>
      <point x="541" y="255"/>
      <point x="538" y="245"/>
      <point x="523" y="231" type="curve" smooth="yes"/>
      <point x="318" y="37" type="line"/>
    </contour>
  </outline>
</glyph>
<glyph name="onehalf" format="2">
  <advance width="940"/>
  <unicode hex="00BD"/>
  <outline>
    <contour>
      <point x="569" y="10" type="line"/>
      <point x="572" y="57"/>
      <point x="632" y="115"/>
      <point x="729" y="171" type="curve" smooth="yes"/>
      <point x="804" y="215"/>
      <point x="838" y="277"/>
      <point x="838" y="327" type="curve" smooth="yes"/>
      <point x="838" y="350"/>
      <point x="831" y="370"/>
      <point x="810" y="370" type="curve" smooth="yes"/>
      <point x="787" y="370"/>
      <point x="762" y="344"/>
      <point x="739" y="294" type="curve" smooth="yes"/>
      <point x="731" y="275"/>
      <point x="722" y="259"/>
      <point x="697" y="259" type="curve" smooth="yes"/>
      <point x="671" y="259"/>
      <point x="640" y="279"/>
      <point x="640" y="310" type="curve" smooth="yes"/>
      <point x="640" y="354"/>
      <point x="702" y="408"/>
      <point x="812" y="408" type="curve" smooth="yes"/>
      <point x="924" y="408"/>
      <point x="963" y="352"/>
      <point x="963" y="292" type="curve" smooth="yes"/>
      <point x="963" y="217"/>
      <point x="901" y="187"/>
      <point x="825" y="157" type="curve" smooth="yes"/>
      <point x="802" y="148" type="line" smooth="yes"/>
      <point x="750" y="128"/>
      <point x="718" y="106"/>
      <point x="700" y="82" type="curve"/>
      <point x="851" y="82" type="line" smooth="yes"/>
      <point x="878" y="82"/>
      <point x="889" y="87"/>
      <point x="909" y="115" type="curve"/>
      <point x="937" y="107" type="line"/>
      <point x="890" y="0" type="line"/>
      <point x="579" y="0" type="line"/>
    </contour>
    <contour>
      <point x="147" y="272" type="line"/>
      <point x="153" y="299" type="line"/>
      <point x="192" y="304" type="line" smooth="yes"/>
      <point x="216" y="307"/>
      <point x="224" y="316"/>
      <point x="229" y="340" type="curve" smooth="yes"/>
      <point x="286" y="590" type="line" smooth="yes"/>
      <point x="287" y="594"/>
      <point x="288" y="602"/>
      <point x="288" y="605" type="curve" smooth="yes"/>
      <point x="288" y="614"/>
      <point x="281" y="622"/>
      <point x="270" y="624" type="curve" smooth="yes"/>
      <point x="230" y="630" type="line"/>
      <point x="236" y="656" type="line"/>
      <point x="418" y="680" type="line"/>
      <point x="424" y="673" type="line"/>
      <point x="348" y="340" type="line" smooth="yes"/>
      <point x="347" y="335"/>
      <point x="346" y="325"/>
      <point x="346" y="321" type="curve" smooth="yes"/>
      <point x="346" y="312"/>
      <point x="354" y="306"/>
      <point x="369" y="304" type="curve" smooth="yes"/>
      <point x="406" y="299" type="line"/>
      <point x="400" y="272" type="line"/>
    </contour>
    <contour>
      <point x="238" y="11" type="line"/>
      <point x="740" y="695" type="line"/>
      <point x="784" y="661" type="line"/>
      <point x="279" y="-27" type="line"/>
    </contour>
  </outline>
</glyph>
<glyph name="AE" format="2">
  <advance width="890"/>
  <unicode hex="00C6"/>
  <outline>
    <contour>
      <point x="336" y="387" type="curve"/>
      <point x="476" y="387" type="line"/>
      <point x="532" y="640" type="line"/>
      <point x="522" y="640" type="line"/>
      <point x="460" y="556"/>
      <point x="396" y="472"/>
    </contour>
    <contour>
      <point x="-72" y="0" type="line"/>
      <point x="-65" y="38" type="line"/>
      <point x="-29" y="43" type="line" smooth="yes"/>
      <point x="-7" y="46"/>
      <point x="10" y="59"/>
      <point x="28" y="78" type="curve" smooth="yes"/>
      <point x="34" y="85"/>
      <point x="40" y="92"/>
      <point x="47" y="100" type="curve" smooth="yes"/>
      <point x="107" y="172"/>
      <point x="301" y="436"/>
      <point x="402" y="571" type="curve"/>
      <point x="402" y="571" type="line"/>
      <point x="445" y="629"/>
      <point x="448" y="645"/>
      <point x="425" y="647" type="curve" smooth="yes"/>
      <point x="357" y="654" type="line"/>
      <point x="367" y="692" type="line"/>
      <point x="993" y="692" type="line"/>
      <point x="953" y="507" type="line"/>
      <point x="915" y="507" type="line"/>
      <point x="913" y="525"/>
      <point x="912" y="544"/>
      <point x="910" y="562" type="curve" smooth="yes"/>
      <point x="906" y="609"/>
      <point x="884" y="646"/>
      <point x="796" y="646" type="curve" smooth="yes"/>
      <point x="722" y="646" type="line" smooth="yes"/>
      <point x="712" y="646"/>
      <point x="704" y="646"/>
      <point x="698" y="644" type="curve" smooth="yes"/>
      <point x="686" y="640"/>
      <point x="682" y="632"/>
      <point x="677" y="611" type="curve" smooth="yes"/>
      <point x="627" y="387" type="line"/>
      <point x="719" y="387" type="line" smooth="yes"/>
      <point x="782" y="387"/>
      <point x="798" y="405"/>
      <point x="830" y="478" type="curve"/>
      <point x="868" y="478" type="line"/>
      <point x="818" y="248" type="line"/>
      <point x="780" y="248" type="line"/>
      <point x="783" y="310"/>
      <point x="772" y="339"/>
      <point x="708" y="339" type="curve" smooth="yes"/>
      <point x="616" y="339" type="line"/>
      <point x="563" y="105" type="line" smooth="yes"/>
      <point x="558" y="82"/>
      <point x="559" y="68"/>
      <point x="569" y="60" type="curve" smooth="yes"/>
      <point x="583" y="47"/>
      <point x="616" y="46"/>
      <point x="669" y="46" type="curve" smooth="yes"/>
      <point x="746" y="46"/>
      <point x="794" y="69"/>
      <point x="845" y="154" type="curve" smooth="yes"/>
      <point x="856" y="172"/>
      <point x="866" y="190"/>
      <point x="877" y="208" type="curve"/>
      <point x="915" y="208" type="line"/>
      <point x="856" y="0" type="line"/>
      <point x="311" y="0" type="line"/>
      <point x="320" y="38" type="line"/>
      <point x="365" y="42" type="line"/>
      <point x="394" y="44"/>
      <point x="401" y="62"/>
      <point x="409" y="98" type="curve" smooth="yes"/>
      <point x="465" y="339" type="line"/>
      <point x="300" y="339" type="line"/>
      <point x="196" y="185"/>
      <point x="160" y="134"/>
      <point x="125" y="80" type="curve" smooth="yes"/>
      <point x="114" y="63"/>
      <point x="113" y="46"/>
      <point x="131" y="44" type="curve" smooth="yes"/>
      <point x="199" y="38" type="line"/>
      <point x="192" y="0" type="line"/>
    </contour>
  </outline>
</glyph>
<glyph name="Eth" format="2">
  <advance width="780"/>
  <unicode hex="00D0"/>
  <outline>
    <contour>
      <point x="298" y="97" type="line" smooth="yes"/>
      <point x="288" y="54"/>
      <point x="318" y="46"/>
      <point x="366" y="46" type="curve" smooth="yes"/>
      <point x="482" y="46"/>
      <point x="556" y="119"/>
      <point x="601" y="206" type="curve" smooth="yes"/>
      <point x="640" y="282"/>
      <point x="658" y="370"/>
      <point x="661" y="430" type="curve" smooth="yes"/>
      <point x="662" y="439"/>
      <point x="662" y="447"/>
      <point x="662" y="454" type="curve" smooth="yes"/>
      <point x="662" y="549"/>
      <point x="639" y="646"/>
      <point x="496" y="646" type="curve" smooth="yes"/>
      <point x="432" y="646"/>
      <point x="418" y="639"/>
      <point x="411" y="606" type="curve" smooth="yes"/>
      <point x="363" y="387" type="line"/>
      <point x="507" y="387" type="line"/>
      <point x="495" y="339" type="line"/>
      <point x="352" y="339" type="line"/>
    </contour>
    <contour>
      <point x="46" y="0" type="line"/>
      <point x="55" y="38" type="line"/>
      <point x="100" y="42" type="line"/>
      <point x="129" y="44"/>
      <point x="136" y="62"/>
      <point x="144" y="98" type="curve" smooth="yes"/>
      <point x="198" y="339" type="line"/>
      <point x="103" y="339" type="line"/>
      <point x="115" y="387" type="line"/>
      <point x="209" y="387" type="line"/>
      <point x="255" y="594" type="line" smooth="yes"/>
      <point x="258" y="606"/>
      <point x="260" y="616"/>
      <point x="260" y="624" type="curve" smooth="yes"/>
      <point x="260" y="640"/>
      <point x="255" y="648"/>
      <point x="236" y="649" type="curve"/>
      <point x="185" y="654" type="line"/>
      <point x="195" y="692" type="line"/>
      <point x="470" y="692" type="line"/>
      <point x="589" y="691"/>
      <point x="674" y="672"/>
      <point x="733" y="627" type="curve" smooth="yes"/>
      <point x="792" y="582"/>
      <point x="825" y="510"/>
      <point x="825" y="403" type="curve" smooth="yes"/>
      <point x="825" y="362"/>
      <point x="813" y="266"/>
      <point x="759" y="182" type="curve" smooth="yes"/>
      <point x="690" y="73"/>
      <point x="585" y="0"/>
      <point x="367" y="0" type="curve" smooth="yes"/>
    </contour>
  </outline>
</glyph>
<glyph name="multiply" format="2">
  <advance width="600"/>
  <unicode hex="00D7"/>
  <outline>
    <contour>
      <point x="145" y="83" type="line"/>
      <point x="310" y="249" type="line"/>
      <point x="145" y="415" type="line"/>
      <point x="203" y="478" type="line"/>
      <point x="370" y="310" type="line"/>
      <point x="536" y="478" type="line"/>
      <point x="595" y="415" type="line"/>
      <point x="430" y="249" type="line"/>
      <point x="595" y="83" type="line"/>
      <point x="536" y="22" type="line"/>
      <point x="370" y="189" type="line"/>
      <point x="203" y="22" type="line"/>
    </contour>
  </outline>
</glyph>
<glyph name="Oslash" format="2">
  <advance width="761"/>
  <unicode hex="00D8"/>
  <outline>
    <contour>
      <point x="294" y="94" type="line"/>
      <point x="314" y="53"/>
      <point x="350" y="31"/>
      <point x="401" y="31" type="curve" smooth="yes"/>
      <point x="487" y="31"/>
      <point x="553" y="123"/>
      <point x="594" y="238" type="curve" smooth="yes"/>
      <point x="620" y="310"/>
      <point x="636" y="391"/>
      <point x="641" y="465" type="curve" smooth="yes"/>
      <point x="642" y="480"/>
      <point x="642" y="494"/>
      <point x="642" y="508" type="curve" smooth="yes"/>
      <point x="642" y="520"/>
      <point x="640" y="531"/>
      <point x="638" y="541" type="curve"/>
    </contour>
    <contour>
      <point x="274" y="188" type="curve" smooth="yes"/>
      <point x="274" y="176"/>
      <point x="277" y="165"/>
      <point x="278" y="154" type="curve"/>
      <point x="623" y="602" type="line"/>
      <point x="607" y="638"/>
      <point x="576" y="661"/>
      <point x="523" y="661" type="curve"/>
      <point x="523" y="661"/>
      <point x="523" y="661"/>
      <point x="523" y="661" type="curve"/>
      <point x="440" y="661"/>
      <point x="378" y="583"/>
      <point x="336" y="485" type="curve" smooth="yes"/>
      <point x="295" y="387"/>
      <point x="274" y="269"/>
    </contour>
    <contour>
      <point x="112" y="260" type="curve" smooth="yes"/>
      <point x="112" y="313"/>
      <point x="117" y="406"/>
      <point x="170" y="508" type="curve" smooth="yes"/>
      <point x="174" y="515"/>
      <point x="177" y="522"/>
      <point x="181" y="528" type="curve" smooth="yes"/>
      <point x="238" y="623"/>
      <point x="338" y="707"/>
      <point x="507" y="707" type="curve" smooth="yes"/>
      <point x="569" y="707"/>
      <point x="626" y="695"/>
      <point x="675" y="670" type="curve"/>
      <point x="724" y="734" type="line"/>
      <point x="763" y="702" type="line"/>
      <point x="716" y="642" type="line"/>
      <point x="771" y="594"/>
      <point x="804" y="522"/>
      <point x="804" y="419" type="curve" smooth="yes"/>
      <point x="804" y="366"/>
      <point x="796" y="274"/>
      <point x="745" y="176" type="curve" smooth="yes"/>
      <point x="691" y="74"/>
      <point x="600" y="-15"/>
      <point x="420" y="-15" type="curve" smooth="yes"/>
      <point x="348" y="-15"/>
      <point x="288" y="-1"/>
      <point x="241" y="24" type="curve"/>
      <point x="183" y="-51" type="line"/>
      <point x="147" y="-16" type="line"/>
      <point x="200" y="53" type="line"/>
      <point x="142" y="101"/>
      <point x="112" y="173"/>
    </contour>
  </outline>
</glyph>
<glyph name="Thorn" format="2">
  <advance width="629"/>
  <unicode hex="00DE"/>
  <outline>
    <contour>
      <point x="327" y="261" type="line" smooth="yes"/>
      <point x="321" y="233"/>
      <point x="328" y="222"/>
      <point x="364" y="222" type="curve" smooth="yes"/>
      <point x="481" y="222"/>
      <point x="527" y="301"/>
      <point x="535" y="380" type="curve" smooth="yes"/>
      <point x="536" y="386"/>
      <point x="536" y="392"/>
      <point x="536" y="398" type="curve" smooth="yes"/>
      <point x="537" y="463"/>
      <point x="500" y="502"/>
      <point x="437" y="502" type="curve" smooth="yes"/>
      <point x="392" y="502"/>
      <point x="380" y="491"/>
      <point x="374" y="464" type="curve" smooth="yes"/>
    </contour>
    <contour>
      <point x="40" y="0" type="line"/>
      <point x="49" y="38" type="line"/>
      <point x="94" y="42" type="line"/>
      <point x="94" y="42" type="line"/>
      <point x="116" y="44"/>
      <point x="125" y="54"/>
      <point x="132" y="74" type="curve" smooth="yes"/>
      <point x="134" y="81"/>
      <point x="136" y="89"/>
      <point x="138" y="98" type="curve" smooth="yes"/>
      <point x="250" y="594" type="line"/>
      <point x="250" y="594" type="line"/>
      <point x="258" y="630"/>
      <point x="259" y="647"/>
      <point x="231" y="649" type="curve"/>
      <point x="180" y="654" type="line"/>
      <point x="190" y="692" type="line"/>
      <point x="501" y="692" type="line"/>
      <point x="491" y="654" type="line"/>
      <point x="447" y="650" type="line"/>
      <point x="447" y="650" type="line"/>
      <point x="425" y="649"/>
      <point x="416" y="638"/>
      <point x="409" y="618" type="curve" smooth="yes"/>
      <point x="407" y="611"/>
      <point x="405" y="603"/>
      <point x="403" y="594" type="curve" smooth="yes"/>
      <point x="392" y="548" type="line"/>
      <point x="456" y="548" type="line" smooth="yes"/>
      <point x="591" y="548"/>
      <point x="697" y="501"/>
      <point x="695" y="373" type="curve" smooth="yes"/>
      <point x="693" y="310"/>
      <point x="663" y="260"/>
      <point x="614" y="226" type="curve" smooth="yes"/>
      <point x="565" y="192"/>
      <point x="490" y="176"/>
      <point x="406" y="176" type="curve" smooth="yes"/>
      <point x="398" y="176"/>
      <point x="390" y="176"/>
      <point x="382" y="176" type="curve" smooth="yes"/>
      <point x="310" y="176" type="line"/>
      <point x="292" y="98" type="line" smooth="yes"/>
      <point x="284" y="64"/>
      <point x="283" y="45"/>
      <point x="313" y="43" type="curve" smooth="yes"/>
      <point x="378" y="38" type="line"/>
      <point x="370" y="0" type="line"/>
    </contour>
  </outline>
</glyph>
<glyph name="agrave" format="2">
  <advance width="596"/>
  <unicode hex="00E0"/>
  <outline>
    <contour>
      <point x="232" y="680" type="curve" smooth="yes"/>
      <point x="232" y="705"/>
      <point x="261" y="740"/>
      <point x="285" y="740" type="curve" smooth="yes"/>
      <point x="305" y="740"/>
      <point x="322" y="728"/>
      <point x="359" y="690" type="curve" smooth="yes"/>
      <point x="504" y="541" type="line"/>
      <point x="483" y="511" type="line"/>
      <point x="300" y="614" type="line" smooth="yes"/>
      <point x="264" y="634"/>
      <point x="232" y="654"/>
    </contour>
    <contour>
      <point x="215" y="115" type="curve" smooth="yes"/>
      <point x="215" y="87"/>
      <point x="221" y="68"/>
      <point x="244" y="68" type="curve" smooth="yes"/>
      <point x="276" y="68"/>
      <point x="315" y="116"/>
      <point x="364" y="194" type="curve" smooth="yes"/>
      <point x="368" y="200"/>
      <point x="371" y="206"/>
      <point x="375" y="213" type="curve" smooth="yes"/>
      <point x="418" y="289"/>
      <point x="450" y="376"/>
      <point x="467" y="442" type="curve"/>
      <point x="454" y="451"/>
      <point x="437" y="456"/>
      <point x="418" y="456" type="curve" smooth="yes"/>
      <point x="305" y="456"/>
      <point x="215" y="220"/>
    </contour>
    <contour>
      <point x="61" y="108" type="curve" smooth="yes"/>
      <point x="61" y="239"/>
      <point x="171" y="502"/>
      <point x="409" y="502" type="curve" smooth="yes"/>
      <point x="418" y="502"/>
      <point x="427" y="501"/>
      <point x="435" y="500" type="curve" smooth="yes"/>
      <point x="452" y="497"/>
      <point x="468" y="492"/>
      <point x="480" y="485" type="curve"/>
      <point x="484" y="494" type="line"/>
      <point x="621" y="494" type="line"/>
      <point x="520" y="115" type="line"/>
      <point x="520" y="115" type="line"/>
      <point x="513" y="88"/>
      <point x="513" y="68"/>
      <point x="531" y="68" type="curve" smooth="yes"/>
      <point x="555" y="68"/>
      <point x="593" y="121"/>
      <point x="618" y="165" type="curve"/>
      <point x="647" y="149" type="line"/>
      <point x="609" y="73"/>
      <point x="554" y="2"/>
      <point x="473" y="-10" type="curve" smooth="yes"/>
      <point x="465" y="-11"/>
      <point x="457" y="-12"/>
      <point x="448" y="-12" type="curve" smooth="yes"/>
      <point x="385" y="-12"/>
      <point x="362" y="29"/>
      <point x="386" y="114" type="curve" smooth="yes"/>
      <point x="411" y="202" type="line"/>
      <point x="405" y="202" type="line"/>
      <point x="352" y="111"/>
      <point x="278" y="-12"/>
      <point x="159" y="-12" type="curve" smooth="yes"/>
      <point x="88" y="-12"/>
      <point x="61" y="47"/>
    </contour>
  </outline>
</glyph>
<glyph name="atilde" format="2">
  <advance width="596"/>
  <unicode hex="00E3"/>
  <outline>
    <contour>
      <point x="215" y="115" type="curve" smooth="yes"/>
      <point x="215" y="87"/>
      <point x="221" y="68"/>
      <point x="244" y="68" type="curve" smooth="yes"/>
      <point x="276" y="68"/>
      <point x="315" y="116"/>
      <point x="364" y="194" type="curve" smooth="yes"/>
      <point x="368" y="200"/>
      <point x="371" y="206"/>
      <point x="375" y="213" type="curve" smooth="yes"/>
      <point x="418" y="289"/>
      <point x="450" y="376"/>
      <point x="467" y="442" type="curve"/>
      <point x="454" y="451"/>
      <point x="437" y="456"/>
      <point x="418" y="456" type="curve" smooth="yes"/>
      <point x="305" y="456"/>
      <point x="215" y="220"/>
    </contour>
    <contour>
      <point x="61" y="108" type="curve" smooth="yes"/>
      <point x="61" y="239"/>
      <point x="171" y="502"/>
      <point x="409" y="502" type="curve" smooth="yes"/>
      <point x="418" y="502"/>
      <point x="427" y="501"/>
      <point x="435" y="500" type="curve" smooth="yes"/>
      <point x="452" y="497"/>
      <point x="468" y="492"/>
      <point x="480" y="485" type="curve"/>
      <point x="484" y="494" type="line"/>
      <point x="621" y="494" type="line"/>
      <point x="520" y="115" type="line"/>
      <point x="520" y="115" type="line"/>
      <point x="513" y="88"/>
      <point x="513" y="68"/>
      <point x="531" y="68" type="curve" smooth="yes"/>
      <point x="555" y="68"/>
      <point x="593" y="121"/>
      <point x="618" y="165" type="curve"/>
      <point x="647" y="149" type="line"/>
      <point x="609" y="73"/>
      <point x="554" y="2"/>
      <point x="473" y="-10" type="curve" smooth="yes"/>
      <point x="465" y="-11"/>
      <point x="457" y="-12"/>
      <point x="448" y="-12" type="curve" smooth="yes"/>
      <point x="385" y="-12"/>
      <point x="362" y="29"/>
      <point x="386" y="114" type="curve" smooth="yes"/>
      <point x="411" y="202" type="line"/>
      <point x="405" y="202" type="line"/>
      <point x="352" y="111"/>
      <point x="278" y="-12"/>
      <point x="159" y="-12" type="curve" smooth="yes"/>
      <point x="88" y="-12"/>
      <point x="61" y="47"/>
    </contour>
    <contour>
      <point x="227" y="567" type="line"/>
      <point x="235" y="609"/>
      <point x="271" y="688"/>
      <point x="352" y="688" type="curve" smooth="yes"/>
      <point x="380" y="688"/>
      <point x="413" y="677"/>
      <point x="446" y="666" type="curve" smooth="yes"/>
      <point x="479" y="656"/>
      <point x="512" y="645"/>
      <point x="538" y="646" type="curve"/>
      <point x="559" y="648"/>
      <point x="577" y="656"/>
      <point x="613" y="697" type="curve"/>
      <point x="635" y="684" type="line"/>
      <point x="603" y="620"/>
      <point x="581" y="562"/>
      <point x="508" y="562" type="curve" smooth="yes"/>
      <point x="487" y="562"/>
      <point x="456" y="573"/>
      <point x="423" y="583" type="curve" smooth="yes"/>
      <point x="390" y="594"/>
      <point x="354" y="604"/>
      <point x="324" y="604" type="curve" smooth="yes"/>
      <point x="287" y="604"/>
      <point x="271" y="588"/>
      <point x="249" y="549" type="curve"/>
    </contour>
  </outline>
</glyph>
<glyph name="eacute" format="2">
  <advance width="476"/>
  <unicode hex="00E9"/>
  <outline>
    <contour>
      <point x="226" y="232" type="curve"/>
      <point x="342" y="255"/>
      <point x="404" y="334"/>
      <point x="404" y="412" type="curve" smooth="yes"/>
      <point x="404" y="440"/>
      <point x="391" y="456"/>
      <point x="367" y="456" type="curve" smooth="yes"/>
      <point x="362" y="456"/>
      <point x="358" y="455"/>
      <point x="353" y="454" type="curve" smooth="yes"/>
      <point x="298" y="439"/>
      <point x="239" y="338"/>
    </contour>
    <contour>
      <point x="73" y="161" type="curve" smooth="yes"/>
      <point x="73" y="238"/>
      <point x="100" y="320"/>
      <point x="154" y="388" type="curve" smooth="yes"/>
      <point x="208" y="456"/>
      <point x="285" y="502"/>
      <point x="384" y="502" type="curve" smooth="yes"/>
      <point x="393" y="502"/>
      <point x="403" y="501"/>
      <point x="411" y="500" type="curve" smooth="yes"/>
      <point x="482" y="492"/>
      <point x="532" y="449"/>
      <point x="532" y="386" type="curve" smooth="yes"/>
      <point x="532" y="355"/>
      <point x="525" y="322"/>
      <point x="486" y="286" type="curve" smooth="yes"/>
      <point x="443" y="248"/>
      <point x="372" y="216"/>
      <point x="222" y="187" type="curve"/>
      <point x="222" y="179"/>
      <point x="222" y="171"/>
      <point x="222" y="163" type="curve" smooth="yes"/>
      <point x="222" y="109"/>
      <point x="241" y="54"/>
      <point x="300" y="54" type="curve" smooth="yes"/>
      <point x="360" y="54"/>
      <point x="407" y="100"/>
      <point x="460" y="176" type="curve"/>
      <point x="490" y="152" type="line"/>
      <point x="417" y="20"/>
      <point x="323" y="-12"/>
      <point x="236" y="-12" type="curve" smooth="yes"/>
      <point x="164" y="-12"/>
      <point x="73" y="23"/>
    </contour>
    <contour>
      <point x="294" y="541" type="line"/>
      <point x="439" y="690" type="line" smooth="yes"/>
      <point x="476" y="728"/>
      <point x="493" y="740"/>
      <point x="513" y="740" type="curve" smooth="yes"/>
      <point x="532" y="740"/>
      <point x="555" y="718"/>
      <point x="563" y="696" type="curve" smooth="yes"/>
      <point x="565" y="690"/>
      <point x="566" y="685"/>
      <point x="566" y="680" type="curve" smooth="yes"/>
      <point x="566" y="654"/>
      <point x="534" y="634"/>
      <point x="498" y="614" type="curve" smooth="yes"/>
      <point x="315" y="511" type="line"/>
    </contour>
  </outline>
</glyph>
<glyph name="edieresis" format="2">
  <advance width="476"/>
  <unicode hex="00EB"/>
  <outline>
    <contour>
      <point x="226" y="232" type="curve"/>
      <point x="342" y="255"/>
      <point x="404" y="334"/>
      <point x="404" y="412" type="curve" smooth="yes"/>
      <point x="404" y="440"/>
      <point x="391" y="456"/>
      <point x="367" y="456" type="curve" smooth="yes"/>
      <point x="362" y="456"/>
      <point x="358" y="455"/>
      <point x="353" y="454" type="curve" smooth="yes"/>
      <point x="298" y="439"/>
      <point x="239" y="338"/>
    </contour>
    <contour>
      <point x="73" y="161" type="curve" smooth="yes"/>
      <point x="73" y="238"/>
      <point x="100" y="320"/>
      <point x="154" y="388" type="curve" smooth="yes"/>
      <point x="208" y="456"/>
      <point x="285" y="502"/>
      <point x="384" y="502" type="curve" smooth="yes"/>
      <point x="393" y="502"/>
      <point x="403" y="501"/>
      <point x="411" y="500" type="curve" smooth="yes"/>
      <point x="482" y="492"/>
      <point x="532" y="449"/>
      <point x="532" y="386" type="curve" smooth="yes"/>
      <point x="532" y="355"/>
      <point x="525" y="322"/>
      <point x="486" y="286" type="curve" smooth="yes"/>
      <point x="443" y="248"/>
      <point x="372" y="216"/>
      <point x="222" y="187" type="curve"/>
      <point x="222" y="179"/>
      <point x="222" y="171"/>
      <point x="222" y="163" type="curve" smooth="yes"/>
      <point x="222" y="109"/>
      <point x="241" y="54"/>
      <point x="300" y="54" type="curve" smooth="yes"/>
      <point x="360" y="54"/>
      <point x="407" y="100"/>
      <point x="460" y="176" type="curve"/>
      <point x="490" y="152" type="line"/>
      <point x="417" y="20"/>
      <point x="323" y="-12"/>
      <point x="236" y="-12" type="curve" smooth="yes"/>
      <point x="164" y="-12"/>
      <point x="73" y="23"/>
    </contour>
    <contour>
      <point x="179" y="635" type="curve" smooth="yes"/>
      <point x="179" y="673"/>
      <point x="207" y="710"/>
      <point x="258" y="710" type="curve"/>
      <point x="258" y="710"/>
      <point x="258" y="710"/>
      <point x="258" y="710" type="curve"/>
      <point x="304" y="710"/>
      <point x="331" y="681"/>
      <point x="336" y="648" type="curve" smooth="yes"/>
      <point x="337" y="643"/>
      <point x="337" y="639"/>
      <point x="337" y="635" type="curve" smooth="yes"/>
      <point x="337" y="597"/>
      <point x="310" y="561"/>
      <point x="258" y="561" type="curve"/>
      <point x="258" y="561"/>
      <point x="258" y="561"/>
      <point x="258" y="561" type="curve"/>
      <point x="207" y="561"/>
      <point x="179" y="597"/>
    </contour>
    <contour>
      <point x="419" y="635" type="curve" smooth="yes"/>
      <point x="419" y="673"/>
      <point x="447" y="710"/>
      <point x="498" y="710" type="curve"/>
      <point x="498" y="710"/>
      <point x="498" y="710"/>
      <point x="498" y="710" type="curve"/>
      <point x="544" y="710"/>
      <point x="571" y="681"/>
      <point x="576" y="648" type="curve" smooth="yes"/>
      <point x="577" y="643"/>
      <point x="577" y="639"/>
      <point x="577" y="635" type="curve" smooth="yes"/>
      <point x="577" y="597"/>
      <point x="550" y="561"/>
      <point x="498" y="561" type="curve"/>
      <point x="498" y="561"/>
      <point x="498" y="561"/>
      <point x="498" y="561" type="curve"/>
      <point x="447" y="561"/>
      <point x="419" y="597"/>
    </contour>
  </outline>
</glyph>
<glyph name="eth" format="2">
  <advance width="562"/>
  <unicode hex="00F0"/>
  <outline>
    <contour>
      <point x="222" y="107" type="curve" smooth="yes"/>
      <point x="222" y="57"/>
      <point x="245" y="34"/>
      <point x="281" y="34" type="curve" smooth="yes"/>
      <point x="287" y="34"/>
      <point x="293" y="35"/>
      <point x="298" y="36" type="curve" smooth="yes"/>
      <point x="393" y="63"/>
      <point x="446" y="304"/>
      <point x="446" y="374" type="curve" smooth="yes"/>
      <point x="446" y="416"/>
      <point x="436" y="456"/>
      <point x="389" y="456" type="curve" smooth="yes"/>
      <point x="383" y="456"/>
      <point x="377" y="455"/>
      <point x="372" y="454" type="curve" smooth="yes"/>
      <point x="333" y="443"/>
      <point x="300" y="399"/>
      <point x="274" y="339" type="curve" smooth="yes"/>
      <point x="242" y="266"/>
      <point x="222" y="174"/>
    </contour>
    <contour>
      <point x="77" y="174" type="curve" smooth="yes"/>
      <point x="77" y="219"/>
      <point x="90" y="300"/>
      <point x="135" y="371" type="curve" smooth="yes"/>
      <point x="179" y="441"/>
      <point x="252" y="502"/>
      <point x="391" y="502" type="curve" smooth="yes"/>
      <point x="408" y="502"/>
      <point x="417" y="500"/>
      <point x="425" y="497" type="curve"/>
      <point x="425" y="500" type="line"/>
      <point x="415" y="526"/>
      <point x="396" y="557"/>
      <point x="372" y="588" type="curve"/>
      <point x="235" y="532" type="line"/>
      <point x="206" y="572" type="line"/>
      <point x="339" y="626" type="line"/>
      <point x="316" y="655"/>
      <point x="284" y="686"/>
      <point x="247" y="716" type="curve"/>
      <point x="248" y="727" type="line"/>
      <point x="305" y="742" type="line"/>
      <point x="344" y="718"/>
      <point x="386" y="689"/>
      <point x="420" y="659" type="curve"/>
      <point x="566" y="718" type="line"/>
      <point x="593" y="678" type="line"/>
      <point x="458" y="623" type="line"/>
      <point x="483" y="597"/>
      <point x="507" y="569"/>
      <point x="526" y="539" type="curve" smooth="yes"/>
      <point x="566" y="479"/>
      <point x="591" y="409"/>
      <point x="591" y="323" type="curve" smooth="yes"/>
      <point x="591" y="265"/>
      <point x="575" y="188"/>
      <point x="529" y="115" type="curve" smooth="yes"/>
      <point x="482" y="40"/>
      <point x="410" y="-12"/>
      <point x="284" y="-12" type="curve" smooth="yes"/>
      <point x="139" y="-12"/>
      <point x="77" y="64"/>
    </contour>
  </outline>
</glyph>
<glyph name="ntilde" format="2">
  <advance width="635"/>
  <unicode hex="00F1"/>
  <outline>
    <contour>
      <point x="80" y="-12" type="line"/>
      <point x="183" y="391" type="line"/>
      <point x="191" y="418"/>
      <point x="187" y="432"/>
      <point x="168" y="434" type="curve" smooth="yes"/>
      <point x="108" y="440" type="line"/>
      <point x="116" y="473" type="line"/>
      <point x="349" y="502" type="line"/>
      <point x="354" y="497" type="line"/>
      <point x="286" y="280" type="line"/>
      <point x="292" y="280" type="line"/>
      <point x="354" y="396"/>
      <point x="445" y="502"/>
      <point x="548" y="502" type="curve" smooth="yes"/>
      <point x="632" y="502"/>
      <point x="646" y="436"/>
      <point x="623" y="357" type="curve" smooth="yes"/>
      <point x="548" y="115" type="line"/>
      <point x="548" y="115" type="line"/>
      <point x="540" y="89"/>
      <point x="541" y="68"/>
      <point x="559" y="68" type="curve" smooth="yes"/>
      <point x="583" y="68"/>
      <point x="621" y="121"/>
      <point x="645" y="166" type="curve"/>
      <point x="674" y="148" type="line"/>
      <point x="633" y="64"/>
      <point x="573" y="-12"/>
      <point x="473" y="-12" type="curve" smooth="yes"/>
      <point x="412" y="-12"/>
      <point x="383" y="30"/>
      <point x="405" y="107" type="curve" smooth="yes"/>
      <point x="481" y="363" type="line"/>
      <point x="481" y="363" type="line"/>
      <point x="490" y="393"/>
      <point x="492" y="422"/>
      <point x="461" y="422" type="curve" smooth="yes"/>
      <point x="413" y="422"/>
      <point x="323" y="288"/>
      <point x="293" y="213" type="curve" smooth="yes"/>
      <point x="270" y="155"/>
      <point x="250" y="102"/>
      <point x="221" y="0" type="curve"/>
    </contour>
    <contour>
      <point x="232" y="567" type="line"/>
      <point x="240" y="609"/>
      <point x="276" y="688"/>
      <point x="357" y="688" type="curve" smooth="yes"/>
      <point x="385" y="688"/>
      <point x="418" y="677"/>
      <point x="451" y="666" type="curve" smooth="yes"/>
      <point x="484" y="656"/>
      <point x="517" y="645"/>
      <point x="543" y="646" type="curve"/>
      <point x="564" y="648"/>
      <point x="582" y="656"/>
      <point x="618" y="697" type="curve"/>
      <point x="640" y="684" type="line"/>
      <point x="608" y="620"/>
      <point x="586" y="562"/>
      <point x="513" y="562" type="curve" smooth="yes"/>
      <point x="492" y="562"/>
      <point x="461" y="573"/>
      <point x="428" y="583" type="curve" smooth="yes"/>
      <point x="395" y="594"/>
      <point x="359" y="604"/>
      <point x="329" y="604" type="curve" smooth="yes"/>
      <point x="292" y="604"/>
      <point x="276" y="588"/>
      <point x="254" y="549" type="curve"/>
    </contour>
  </outline>
</glyph>
<glyph name="ograve" format="2">
  <advance width="562"/>
  <unicode hex="00F2"/>
  <outline>
    <contour>
      <point x="215" y="680" type="curve" smooth="yes"/>
      <point x="215" y="705"/>
      <point x="244" y="740"/>
      <point x="268" y="740" type="curve" smooth="yes"/>
      <point x="288" y="740"/>
      <point x="305" y="728"/>
      <point x="342" y="690" type="curve" smooth="yes"/>
      <point x="487" y="541" type="line"/>
      <point x="466" y="511" type="line"/>
      <point x="283" y="614" type="line" smooth="yes"/>
      <point x="247" y="634"/>
      <point x="215" y="654"/>
    </contour>
    <contour>
      <point x="222" y="107" type="curve" smooth="yes"/>
      <point x="222" y="57"/>
      <point x="245" y="34"/>
      <point x="282" y="34" type="curve" smooth="yes"/>
      <point x="288" y="34"/>
      <point x="294" y="35"/>
      <point x="299" y="36" type="curve" smooth="yes"/>
      <point x="388" y="61"/>
      <point x="440" y="276"/>
      <point x="445" y="360" type="curve"/>
      <point x="446" y="365"/>
      <point x="446" y="370"/>
      <point x="446" y="374" type="curve" smooth="yes"/>
      <point x="446" y="416"/>
      <point x="436" y="456"/>
      <point x="389" y="456" type="curve" smooth="yes"/>
      <point x="383" y="456"/>
      <point x="377" y="455"/>
      <point x="372" y="454" type="curve" smooth="yes"/>
      <point x="333" y="444"/>
      <point x="301" y="399"/>
      <point x="274" y="339" type="curve" smooth="yes"/>
      <point x="242" y="266"/>
      <point x="222" y="174"/>
    </contour>
    <contour>
      <point x="77" y="174" type="curve" smooth="yes"/>
      <point x="77" y="219"/>
      <point x="90" y="300"/>
      <point x="136" y="371" type="curve" smooth="yes"/>
      <point x="181" y="441"/>
      <point x="252" y="502"/>
      <point x="381" y="502" type="curve" smooth="yes"/>
      <point x="475" y="502"/>
      <point x="572" y="469"/>
      <point x="588" y="347" type="curve" smooth="yes"/>
      <point x="590" y="335"/>
      <point x="591" y="322"/>
      <point x="591" y="308" type="curve" smooth="yes"/>
      <point x="591" y="263"/>
      <point x="575" y="188"/>
      <point x="529" y="115" type="curve" smooth="yes"/>
      <point x="482" y="40"/>
      <point x="410" y="-12"/>
      <point x="284" y="-12" type="curve" smooth="yes"/>
      <point x="139" y="-12"/>
      <point x="77" y="66"/>
    </contour>
  </outline>
</glyph>
<glyph name="oacute" format="2">
  <advance width="562"/>
  <unicode hex="00F3"/>
  <outline>
    <contour>
      <point x="222" y="107" type="curve" smooth="yes"/>
      <point x="222" y="57"/>
      <point x="245" y="34"/>
      <point x="282" y="34" type="curve" smooth="yes"/>
      <point x="288" y="34"/>
      <point x="294" y="35"/>
      <point x="299" y="36" type="curve" smooth="yes"/>
      <point x="388" y="61"/>
      <point x="440" y="276"/>
      <point x="445" y="360" type="curve"/>
      <point x="446" y="365"/>
      <point x="446" y="370"/>
      <point x="446" y="374" type="curve" smooth="yes"/>
      <point x="446" y="416"/>
      <point x="436" y="456"/>
      <point x="389" y="456" type="curve" smooth="yes"/>
      <point x="383" y="456"/>
      <point x="377" y="455"/>
      <point x="372" y="454" type="curve" smooth="yes"/>
      <point x="333" y="444"/>
      <point x="301" y="399"/>
      <point x="274" y="339" type="curve" smooth="yes"/>
      <point x="242" y="266"/>
      <point x="222" y="174"/>
    </contour>
    <contour>
      <point x="77" y="174" type="curve" smooth="yes"/>
      <point x="77" y="219"/>
      <point x="90" y="300"/>
      <point x="136" y="371" type="curve" smooth="yes"/>
      <point x="181" y="441"/>
      <point x="252" y="502"/>
      <point x="381" y="502" type="curve" smooth="yes"/>
      <point x="475" y="502"/>
      <point x="572" y="469"/>
      <point x="588" y="347" type="curve" smooth="yes"/>
      <point x="590" y="335"/>
      <point x="591" y="322"/>
      <point x="591" y="308" type="curve" smooth="yes"/>
      <point x="591" y="263"/>
      <point x="575" y="188"/>
      <point x="529" y="115" type="curve" smooth="yes"/>
      <point x="482" y="40"/>
      <point x="410" y="-12"/>
      <point x="284" y="-12" type="curve" smooth="yes"/>
      <point x="139" y="-12"/>
      <point x="77" y="66"/>
    </contour>
    <contour>
      <point x="317" y="541" type="line"/>
      <point x="462" y="690" type="line" smooth="yes"/>
      <point x="499" y="728"/>
      <point x="516" y="740"/>
      <point x="536" y="740" type="curve" smooth="yes"/>
      <point x="555" y="740"/>
      <point x="578" y="718"/>
      <point x="586" y="696" type="curve" smooth="yes"/>
      <point x="588" y="690"/>
      <point x="589" y="685"/>
      <point x="589" y="680" type="curve" smooth="yes"/>
      <point x="589" y="654"/>
      <point x="557" y="634"/>
      <point x="521" y="614" type="curve" smooth="yes"/>
      <point x="338" y="511" type="line"/>
    </contour>
  </outline>
</glyph>
<glyph name="divide" format="2">
  <advance width="600"/>
  <unicode hex="00F7"/>
  <outline>
    <contour>
      <point x="98" y="210" type="line"/>
      <point x="98" y="290" type="line"/>
      <point x="582" y="290" type="line"/>
      <point x="582" y="210" type="line"/>
    </contour>
    <contour>
      <point x="272" y="424" type="curve" smooth="yes"/>
      <point x="272" y="461"/>
      <point x="301" y="493"/>
      <point x="340" y="493" type="curve" smooth="yes"/>
      <point x="380" y="493"/>
      <point x="410" y="461"/>
      <point x="411" y="425" type="curve"/>
      <point x="410" y="424" type="line"/>
      <point x="410" y="385"/>
      <point x="380" y="354"/>
      <point x="340" y="354" type="curve" smooth="yes"/>
      <point x="301" y="354"/>
      <point x="272" y="385"/>
    </contour>
    <contour>
      <point x="272" y="77" type="curve" smooth="yes"/>
      <point x="272" y="114"/>
      <point x="301" y="146"/>
      <point x="340" y="146" type="curve" smooth="yes"/>
      <point x="380" y="146"/>
      <point x="410" y="114"/>
      <point x="411" y="78" type="curve"/>
      <point x="410" y="77" type="line"/>
      <point x="410" y="38"/>
      <point x="380" y="7"/>
      <point x="340" y="7" type="curve" smooth="yes"/>
      <point x="301" y="7"/>
      <point x="272" y="38"/>
    </contour>
  </outline>
</glyph>
<glyph name="ugrave" format="2">
  <advance width="634"/>
  <unicode hex="00F9"/>
  <outline>
    <contour>
      <point x="211" y="680" type="curve" smooth="yes"/>
      <point x="211" y="705"/>
      <point x="240" y="740"/>
      <point x="264" y="740" type="curve" smooth="yes"/>
      <point x="284" y="740"/>
      <point x="301" y="728"/>
      <point x="338" y="690" type="curve" smooth="yes"/>
      <point x="483" y="541" type="line"/>
      <point x="462" y="511" type="line"/>
      <point x="279" y="614" type="line" smooth="yes"/>
      <point x="243" y="634"/>
      <point x="211" y="654"/>
    </contour>
    <contour>
      <point x="109" y="443" type="line"/>
      <point x="117" y="476" type="line"/>
      <point x="348" y="502" type="line"/>
      <point x="353" y="497" type="line"/>
      <point x="259" y="128" type="line" smooth="yes"/>
      <point x="249" y="91"/>
      <point x="250" y="68"/>
      <point x="278" y="68" type="curve" smooth="yes"/>
      <point x="325" y="68"/>
      <point x="407" y="199"/>
      <point x="443" y="285" type="curve"/>
      <point x="465" y="335"/>
      <point x="481" y="388"/>
      <point x="510" y="490" type="curve"/>
      <point x="652" y="502" type="line"/>
      <point x="551" y="115" type="line"/>
      <point x="551" y="115" type="line"/>
      <point x="543" y="89"/>
      <point x="544" y="68"/>
      <point x="563" y="68" type="curve" smooth="yes"/>
      <point x="586" y="68"/>
      <point x="623" y="121"/>
      <point x="649" y="166" type="curve"/>
      <point x="678" y="148" type="line"/>
      <point x="637" y="65"/>
      <point x="576" y="-12"/>
      <point x="479" y="-12" type="curve" smooth="yes"/>
      <point x="425" y="-12"/>
      <point x="397" y="28"/>
      <point x="415" y="96" type="curve" smooth="yes"/>
      <point x="446" y="210" type="line"/>
      <point x="442" y="210" type="line"/>
      <point x="379" y="94"/>
      <point x="296" y="-12"/>
      <point x="183" y="-12" type="curve" smooth="yes"/>
      <point x="103" y="-12"/>
      <point x="95" y="53"/>
      <point x="116" y="133" type="curve" smooth="yes"/>
      <point x="183" y="391" type="line" smooth="yes"/>
      <point x="191" y="421"/>
      <point x="187" y="435"/>
      <point x="168" y="437" type="curve" smooth="yes"/>
    </contour>
  </outline>
</glyph>
<glyph name="ucircumflex" format="2">
  <advance width="634"/>
  <unicode hex="00FB"/>
  <outline>
    <contour>
      <point x="109" y="443" type="line"/>
      <point x="117" y="476" type="line"/>
      <point x="348" y="502" type="line"/>
      <point x="353" y="497" type="line"/>
      <point x="259" y="128" type="line" smooth="yes"/>
      <point x="249" y="91"/>
      <point x="250" y="68"/>
      <point x="278" y="68" type="curve" smooth="yes"/>
      <point x="325" y="68"/>
      <point x="407" y="199"/>
      <point x="443" y="285" type="curve"/>
      <point x="465" y="335"/>
      <point x="481" y="388"/>
      <point x="510" y="490" type="curve"/>
      <point x="652" y="502" type="line"/>
      <point x="551" y="115" type="line"/>
      <point x="551" y="115" type="line"/>
      <point x="543" y="89"/>
      <point x="544" y="68"/>
      <point x="563" y="68" type="curve" smooth="yes"/>
      <point x="586" y="68"/>
      <point x="623" y="121"/>
      <point x="649" y="166" type="curve"/>
      <point x="678" y="148" type="line"/>
      <point x="637" y="65"/>
      <point x="576" y="-12"/>
      <point x="479" y="-12" type="curve" smooth="yes"/>
      <point x="425" y="-12"/>
      <point x="397" y="28"/>
      <point x="415" y="96" type="curve" smooth="yes"/>
      <point x="446" y="210" type="line"/>
      <point x="442" y="210" type="line"/>
      <point x="379" y="94"/>
      <point x="296" y="-12"/>
      <point x="183" y="-12" type="curve" smooth="yes"/>
      <point x="103" y="-12"/>
      <point x="95" y="53"/>
      <point x="116" y="133" type="curve" smooth="yes"/>
      <point x="183" y="391" type="line" smooth="yes"/>
      <point x="191" y="421"/>
      <point x="187" y="435"/>
      <point x="168" y="437" type="curve" smooth="yes"/>
    </contour>
    <contour>
      <point x="225" y="547" type="line"/>
      <point x="392" y="708" type="line" smooth="yes"/>
      <point x="396" y="712"/>
      <point x="401" y="716"/>
      <point x="405" y="720" type="curve" smooth="yes"/>
      <point x="421" y="736"/>
      <point x="438" y="747"/>
      <point x="453" y="747" type="curve" smooth="yes"/>
      <point x="470" y="747"/>
      <point x="479" y="734"/>
      <point x="489" y="719" type="curve" smooth="yes"/>
      <point x="603" y="547" type="line"/>
      <point x="574" y="520" type="line"/>
      <point x="461" y="616" type="line" smooth="yes"/>
      <point x="451" y="625"/>
      <point x="441" y="633"/>
      <point x="431" y="633" type="curve" smooth="yes"/>
      <point x="422" y="633"/>
      <point x="407" y="625"/>
      <point x="393" y="616" type="curve" smooth="yes"/>
      <point x="248" y="520" type="line"/>
    </contour>
  </outline>
</glyph>
<glyph name="udieresis" format="2">
  <advance width="634"/>
  <unicode hex="00FC"/>
  <outline>
    <contour>
      <point x="109" y="443" type="line"/>
      <point x="117" y="476" type="line"/>
      <point x="348" y="502" type="line"/>
      <point x="353" y="497" type="line"/>
      <point x="259" y="128" type="line" smooth="yes"/>
      <point x="249" y="91"/>
      <point x="250" y="68"/>
      <point x="278" y="68" type="curve" smooth="yes"/>
      <point x="325" y="68"/>
      <point x="407" y="199"/>
      <point x="443" y="285" type="curve"/>
      <point x="465" y="335"/>
      <point x="481" y="388"/>
      <point x="510" y="490" type="curve"/>
      <point x="652" y="502" type="line"/>
      <point x="551" y="115" type="line"/>
      <point x="551" y="115" type="line"/>
      <point x="543" y="89"/>
      <point x="544" y="68"/>
      <point x="563" y="68" type="curve" smooth="yes"/>
      <point x="586" y="68"/>
      <point x="623" y="121"/>
      <point x="649" y="166" type="curve"/>
      <point x="678" y="148" type="line"/>
      <point x="637" y="65"/>
      <point x="576" y="-12"/>
      <point x="479" y="-12" type="curve" smooth="yes"/>
      <point x="425" y="-12"/>
      <point x="397" y="28"/>
      <point x="415" y="96" type="curve" smooth="yes"/>
      <point x="446" y="210" type="line"/>
      <point x="442" y="210" type="line"/>
      <point x="379" y="94"/>
      <point x="296" y="-12"/>
      <point x="183" y="-12" type="curve" smooth="yes"/>
      <point x="103" y="-12"/>
      <point x="95" y="53"/>
      <point x="116" y="133" type="curve" smooth="yes"/>
      <point x="183" y="391" type="line" smooth="yes"/>
      <point x="191" y="421"/>
      <point x="187" y="435"/>
      <point x="168" y="437" type="curve" smooth="yes"/>
    </contour>
    <contour>
      <point x="248" y="635" type="curve" smooth="yes"/>
      <point x="248" y="673"/>
      <point x="276" y="710"/>
      <point x="327" y="710" type="curve"/>
      <point x="327" y="710"/>
      <point x="327" y="710"/>
      <point x="327" y="710" type="curve"/>
      <point x="373" y="710"/>
      <point x="400" y="681"/>
      <point x="405" y="648" type="curve" smooth="yes"/>
      <point x="406" y="643"/>
      <point x="406" y="639"/>
      <point x="406" y="635" type="curve" smooth="yes"/>
      <point x="406" y="597"/>
      <point x="379" y="561"/>
      <point x="327" y="561" type="curve"/>
      <point x="327" y="561"/>
      <point x="327" y="561"/>
      <point x="327" y="561" type="curve"/>
      <point x="276" y="561"/>
      <point x="248" y="597"/>
    </contour>
    <contour>
      <point x="488" y="635" type="curve" smooth="yes"/>
      <point x="488" y="673"/>
      <point x="516" y="710"/>
      <point x="567" y="710" type="curve"/>
      <point x="567" y="710"/>
      <point x="567" y="710"/>
      <point x="567" y="710" type="curve"/>
      <point x="613" y="710"/>
      <point x="640" y="681"/>
      <point x="645" y="648" type="curve" smooth="yes"/>
      <point x="646" y="643"/>
      <point x="646" y="639"/>
      <point x="646" y="635" type="curve" smooth="yes"/>
      <point x="646" y="597"/>
      <point x="619" y="561"/>
      <point x="567" y="561" type="curve"/>
      <point x="567" y="561"/>
      <point x="567" y="561"/>
      <point x="567" y="561" type="curve"/>
      <point x="516" y="561"/>
      <point x="488" y="597"/>
    </contour>
  </outline>
</glyph>
<glyph name="Abreve" format="2">
  <advance width="634"/>
  <unicode hex="0102"/>
  <outline>
    <contour>
      <point x="360" y="892" type="curve"/>
      <point x="401" y="892" type="line"/>
      <point x="397" y="868"/>
      <point x="414" y="823"/>
      <point x="509" y="823" type="curve" smooth="yes"/>
      <point x="604" y="823"/>
      <point x="641" y="868"/>
      <point x="649" y="892" type="curve"/>
      <point x="690" y="892" type="line"/>
      <point x="673" y="818"/>
      <point x="626" y="746"/>
      <point x="491" y="746" type="curve" smooth="yes"/>
      <point x="356" y="746"/>
      <point x="343" y="818"/>
    </contour>
    <contour>
      <point x="260" y="294" type="curve"/>
      <point x="429" y="294" type="line"/>
      <point x="405" y="555" type="line"/>
      <point x="403" y="555" type="line"/>
      <point x="386" y="528"/>
      <point x="273" y="319"/>
    </contour>
    <contour>
      <point x="-24" y="0" type="line"/>
      <point x="-17" y="38" type="line"/>
      <point x="10" y="41" type="line" smooth="yes"/>
      <point x="40" y="44"/>
      <point x="55" y="54"/>
      <point x="75" y="87" type="curve" smooth="yes"/>
      <point x="78" y="91"/>
      <point x="80" y="96"/>
      <point x="83" y="101" type="curve" smooth="yes"/>
      <point x="114" y="153"/>
      <point x="171" y="253"/>
      <point x="226" y="349" type="curve" smooth="yes"/>
      <point x="235" y="365"/>
      <point x="244" y="382"/>
      <point x="254" y="398" type="curve"/>
      <point x="420" y="692" type="line"/>
      <point x="538" y="692" type="line"/>
      <point x="572" y="375" type="line" smooth="yes"/>
      <point x="580" y="302"/>
      <point x="594" y="159"/>
      <point x="602" y="86" type="curve"/>
      <point x="606" y="58"/>
      <point x="610" y="43"/>
      <point x="633" y="41" type="curve" smooth="yes"/>
      <point x="674" y="38" type="line"/>
      <point x="666" y="0" type="line"/>
      <point x="366" y="0" type="line"/>
      <point x="374" y="38" type="line"/>
      <point x="426" y="42" type="line"/>
      <point x="446" y="43"/>
      <point x="451" y="55"/>
      <point x="449" y="79" type="curve" smooth="yes"/>
      <point x="434" y="246" type="line"/>
      <point x="234" y="246" type="line"/>
      <point x="202" y="188"/>
      <point x="176" y="132"/>
      <point x="148" y="79" type="curve" smooth="yes"/>
      <point x="138" y="59"/>
      <point x="139" y="43"/>
      <point x="161" y="42" type="curve"/>
      <point x="217" y="38" type="line"/>
      <point x="210" y="0" type="line"/>
    </contour>
  </outline>
</glyph>
<glyph name="aogonek" format="2">
  <advance width="596"/>
  <unicode hex="0105"/>
  <outline>
    <contour>
      <point x="215" y="115" type="curve" smooth="yes"/>
      <point x="215" y="87"/>
      <point x="221" y="68"/>
      <point x="244" y="68" type="curve" smooth="yes"/>
      <point x="276" y="68"/>
      <point x="315" y="116"/>
      <point x="364" y="194" type="curve" smooth="yes"/>
      <point x="368" y="200"/>
      <point x="371" y="206"/>
      <point x="375" y="213" type="curve" smooth="yes"/>
      <point x="418" y="289"/>
      <point x="450" y="376"/>
      <point x="467" y="442" type="curve"/>
      <point x="454" y="451"/>
      <point x="437" y="456"/>
      <point x="418" y="456" type="curve" smooth="yes"/>
      <point x="305" y="456"/>
      <point x="215" y="220"/>
    </contour>
    <contour>
      <point x="61" y="108" type="curve" smooth="yes"/>
      <point x="61" y="239"/>
      <point x="171" y="502"/>
      <point x="409" y="502" type="curve" smooth="yes"/>
      <point x="423" y="502"/>
      <point x="436" y="501"/>
      <point x="448" y="498" type="curve" smooth="yes"/>
      <point x="460" y="495"/>
      <point x="471" y="491"/>
      <point x="480" y="485" type="curve"/>
      <point x="484" y="494" type="line"/>
      <point x="621" y="494" type="line"/>
      <point x="520" y="115" type="line"/>
      <point x="520" y="115" type="line"/>
      <point x="513" y="88"/>
      <point x="513" y="68"/>
      <point x="531" y="68" type="curve" smooth="yes"/>
      <point x="555" y="68"/>
      <point x="593" y="121"/>
      <point x="618" y="165" type="curve"/>
      <point x="647" y="149" type="line"/>
      <point x="608" y="71"/>
      <point x="559" y="8"/>
      <point x="469" y="-13" type="curve" smooth="yes"/>
      <point x="462" y="-15"/>
      <point x="454" y="-16"/>
      <point x="446" y="-17" type="curve" smooth="yes"/>
      <point x="398" y="-23"/>
      <point x="365" y="-103"/>
      <point x="365" y="-133" type="curve" smooth="yes"/>
      <point x="365" y="-164"/>
      <point x="378" y="-188"/>
      <point x="414" y="-188" type="curve" smooth="yes"/>
      <point x="420" y="-188"/>
      <point x="426" y="-188"/>
      <point x="431" y="-187" type="curve" smooth="yes"/>
      <point x="442" y="-185"/>
      <point x="452" y="-181"/>
      <point x="464" y="-175" type="curve"/>
      <point x="478" y="-202" type="line"/>
      <point x="451" y="-220"/>
      <point x="427" y="-232"/>
      <point x="404" y="-238" type="curve" smooth="yes"/>
      <point x="393" y="-241"/>
      <point x="382" y="-242"/>
      <point x="371" y="-242" type="curve" smooth="yes"/>
      <point x="288" y="-242"/>
      <point x="268" y="-204"/>
      <point x="264" y="-167" type="curve" smooth="yes"/>
      <point x="263" y="-162"/>
      <point x="263" y="-156"/>
      <point x="263" y="-151" type="curve" smooth="yes"/>
      <point x="263" y="-96"/>
      <point x="342" y="-24"/>
      <point x="405" y="-1" type="curve"/>
      <point x="375" y="11"/>
      <point x="369" y="55"/>
      <point x="386" y="114" type="curve" smooth="yes"/>
      <point x="411" y="202" type="line"/>
      <point x="405" y="202" type="line"/>
      <point x="352" y="111"/>
      <point x="278" y="-12"/>
      <point x="159" y="-12" type="curve" smooth="yes"/>
      <point x="88" y="-12"/>
      <point x="61" y="47"/>
    </contour>
  </outline>
</glyph>
<glyph name="cacute" format="2">
  <advance width="456"/>
  <unicode hex="0107"/>
  <outline>
    <contour>
      <point x="73" y="155" type="curve" smooth="yes"/>
      <point x="73" y="310"/>
      <point x="179" y="502"/>
      <point x="384" y="502" type="curve" smooth="yes"/>
      <point x="476" y="502"/>
      <point x="533" y="462"/>
      <point x="533" y="405" type="curve" smooth="yes"/>
      <point x="533" y="369"/>
      <point x="481" y="342"/>
      <point x="446" y="342" type="curve" smooth="yes"/>
      <point x="428" y="342"/>
      <point x="418" y="352"/>
      <point x="412" y="366" type="curve" smooth="yes"/>
      <point x="409" y="373"/>
      <point x="407" y="381"/>
      <point x="405" y="389" type="curve" smooth="yes"/>
      <point x="392" y="442"/>
      <point x="381" y="456"/>
      <point x="361" y="456" type="curve" smooth="yes"/>
      <point x="298" y="456"/>
      <point x="226" y="298"/>
      <point x="226" y="162" type="curve" smooth="yes"/>
      <point x="226" y="101"/>
      <point x="244" y="54"/>
      <point x="297" y="54" type="curve" smooth="yes"/>
      <point x="363" y="54"/>
      <point x="410" y="119"/>
      <point x="448" y="180" type="curve"/>
      <point x="478" y="159" type="line"/>
      <point x="406" y="16"/>
      <point x="309" y="-12"/>
      <point x="234" y="-12" type="curve" smooth="yes"/>
      <point x="146" y="-12"/>
      <point x="73" y="34"/>
    </contour>
    <contour>
      <point x="320" y="541" type="line"/>
      <point x="465" y="690" type="line" smooth="yes"/>
      <point x="502" y="728"/>
      <point x="519" y="740"/>
      <point x="539" y="740" type="curve" smooth="yes"/>
      <point x="558" y="740"/>
      <point x="581" y="718"/>
      <point x="589" y="696" type="curve" smooth="yes"/>
      <point x="591" y="690"/>
      <point x="592" y="685"/>
      <point x="592" y="680" type="curve" smooth="yes"/>
      <point x="592" y="654"/>
      <point x="560" y="634"/>
      <point x="524" y="614" type="curve" smooth="yes"/>
      <point x="341" y="511" type="line"/>
    </contour>
  </outline>
</glyph>
<glyph name="ccircumflex" format="2">
  <advance width="456"/>
  <unicode hex="0109"/>
  <outline>
    <contour>
      <point x="73" y="155" type="curve" smooth="yes"/>
      <point x="73" y="310"/>
      <point x="179" y="502"/>
      <point x="384" y="502" type="curve" smooth="yes"/>
      <point x="476" y="502"/>
      <point x="533" y="462"/>
      <point x="533" y="405" type="curve" smooth="yes"/>
      <point x="533" y="369"/>
      <point x="481" y="342"/>
      <point x="446" y="342" type="curve" smooth="yes"/>
      <point x="428" y="342"/>
      <point x="418" y="352"/>
      <point x="412" y="366" type="curve" smooth="yes"/>
      <point x="409" y="373"/>
      <point x="407" y="381"/>
      <point x="405" y="389" type="curve" smooth="yes"/>
      <point x="392" y="442"/>
      <point x="381" y="456"/>
      <point x="361" y="456" type="curve" smooth="yes"/>
      <point x="298" y="456"/>
      <point x="226" y="298"/>
      <point x="226" y="162" type="curve" smooth="yes"/>
      <point x="226" y="101"/>
      <point x="244" y="54"/>
      <point x="297" y="54" type="curve" smooth="yes"/>
      <point x="363" y="54"/>
      <point x="410" y="119"/>
      <point x="448" y="180" type="curve"/>
      <point x="478" y="159" type="line"/>
      <point x="406" y="16"/>
      <point x="309" y="-12"/>
      <point x="234" y="-12" type="curve" smooth="yes"/>
      <point x="146" y="-12"/>
      <point x="73" y="34"/>
    </contour>
    <contour>
      <point x="205" y="547" type="line"/>
      <point x="372" y="708" type="line" smooth="yes"/>
      <point x="376" y="712"/>
      <point x="381" y="716"/>
      <point x="385" y="720" type="curve" smooth="yes"/>
      <point x="401" y="736"/>
      <point x="418" y="747"/>
      <point x="433" y="747" type="curve" smooth="yes"/>
      <point x="450" y="747"/>
      <point x="459" y="734"/>
      <point x="469" y="719" type="curve" smooth="yes"/>
      <point x="583" y="547" type="line"/>
      <point x="554" y="520" type="line"/>
      <point x="441" y="616" type="line" smooth="yes"/>
      <point x="431" y="625"/>
      <point x="421" y="633"/>
      <point x="411" y="633" type="curve" smooth="yes"/>
      <point x="402" y="633"/>
      <point x="387" y="625"/>
      <point x="373" y="616" type="curve" smooth="yes"/>
      <point x="228" y="520" type="line"/>
    </contour>
  </outline>
</glyph>
<glyph name="Ccaron" format="2">
  <advance width="672"/>
  <unicode hex="010C"/>
  <outline>
    <contour>
      <point x="111" y="275" type="curve" smooth="yes"/>
      <point x="111" y="345"/>
      <point x="128" y="444"/>
      <point x="180" y="524" type="curve" smooth="yes"/>
      <point x="250" y="631"/>
      <point x="362" y="707"/>
      <point x="555" y="707" type="curve" smooth="yes"/>
      <point x="611" y="707"/>
      <point x="717" y="696"/>
      <point x="777" y="659" type="curve"/>
      <point x="738" y="480" type="line"/>
      <point x="700" y="480" type="line"/>
      <point x="699" y="571"/>
      <point x="674" y="661"/>
      <point x="557" y="661" type="curve" smooth="yes"/>
      <point x="449" y="661"/>
      <point x="377" y="590"/>
      <point x="334" y="497" type="curve" smooth="yes"/>
      <point x="296" y="416"/>
      <point x="280" y="318"/>
      <point x="280" y="235" type="curve" smooth="yes"/>
      <point x="280" y="96"/>
      <point x="344" y="31"/>
      <point x="434" y="31" type="curve" smooth="yes"/>
      <point x="546" y="31"/>
      <point x="601" y="116"/>
      <point x="665" y="220" type="curve"/>
      <point x="703" y="220" type="line"/>
      <point x="648" y="26" type="line"/>
      <point x="584" y="-7"/>
      <point x="503" y="-15"/>
      <point x="434" y="-15" type="curve" smooth="yes"/>
      <point x="142" y="-15"/>
      <point x="111" y="183"/>
    </contour>
    <contour>
      <point x="406" y="886" type="line"/>
      <point x="430" y="916" type="line"/>
      <point x="536" y="856" type="line" smooth="yes"/>
      <point x="555" y="845"/>
      <point x="565" y="841"/>
      <point x="577" y="841" type="curve" smooth="yes"/>
      <point x="587" y="841"/>
      <point x="600" y="846"/>
      <point x="619" y="854" type="curve" smooth="yes"/>
      <point x="770" y="916" type="line"/>
      <point x="787" y="886" type="line"/>
      <point x="615" y="762" type="line" smooth="yes"/>
      <point x="597" y="749"/>
      <point x="580" y="736"/>
      <point x="563" y="736" type="curve" smooth="yes"/>
      <point x="545" y="736"/>
      <point x="532" y="749"/>
      <point x="518" y="764" type="curve" smooth="yes"/>
    </contour>
  </outline>
</glyph>
<glyph name="ccaron" format="2">
  <advance width="456"/>
  <unicode hex="010D"/>
  <outline>
    <contour>
      <point x="73" y="155" type="curve" smooth="yes"/>
      <point x="73" y="310"/>
      <point x="179" y="502"/>
      <point x="384" y="502" type="curve" smooth="yes"/>
      <point x="476" y="502"/>
      <point x="533" y="462"/>
      <point x="533" y="405" type="curve" smooth="yes"/>
      <point x="533" y="369"/>
      <point x="481" y="342"/>
      <point x="446" y="342" type="curve" smooth="yes"/>
      <point x="428" y="342"/>
      <point x="418" y="352"/>
      <point x="412" y="366" type="curve" smooth="yes"/>
      <point x="409" y="373"/>
      <point x="407" y="381"/>
      <point x="405" y="389" type="curve" smooth="yes"/>
      <point x="392" y="442"/>
      <point x="381" y="456"/>
      <point x="361" y="456" type="curve" smooth="yes"/>
      <point x="298" y="456"/>
      <point x="226" y="298"/>
      <point x="226" y="162" type="curve" smooth="yes"/>
      <point x="226" y="101"/>
      <point x="244" y="54"/>
      <point x="297" y="54" type="curve" smooth="yes"/>
      <point x="363" y="54"/>
      <point x="410" y="119"/>
      <point x="448" y="180" type="curve"/>
      <point x="478" y="159" type="line"/>
      <point x="406" y="16"/>
      <point x="309" y="-12"/>
      <point x="234" y="-12" type="curve" smooth="yes"/>
      <point x="146" y="-12"/>
      <point x="73" y="34"/>
    </contour>
    <contour>
      <point x="238" y="720" type="line"/>
      <point x="267" y="747" type="line"/>
      <point x="380" y="651" type="line" smooth="yes"/>
      <point x="390" y="642"/>
      <point x="400" y="634"/>
      <point x="410" y="634" type="curve" smooth="yes"/>
      <point x="419" y="634"/>
      <point x="434" y="642"/>
      <point x="448" y="651" type="curve" smooth="yes"/>
      <point x="593" y="747" type="line"/>
      <point x="616" y="720" type="line"/>
      <point x="436" y="547" type="line" smooth="yes"/>
      <point x="420" y="531"/>
      <point x="403" y="520"/>
      <point x="388" y="520" type="curve" smooth="yes"/>
      <point x="371" y="520"/>
      <point x="362" y="533"/>
      <point x="352" y="548" type="curve" smooth="yes"/>
    </contour>
  </outline>
</glyph>
<glyph name="dcaron" format="2">
  <advance width="650"/>
  <unicode hex="010F"/>
  <outline>
    <contour>
      <point x="713" y="742" type="curve" smooth="yes"/>
      <point x="713" y="764"/>
      <point x="728" y="811"/>
      <point x="787" y="811" type="curve"/>
      <point x="787" y="811"/>
      <point x="787" y="811"/>
      <point x="787" y="811" type="curve"/>
      <point x="832" y="811"/>
      <point x="854" y="776"/>
      <point x="854" y="731" type="curve" smooth="yes"/>
      <point x="854" y="651"/>
      <point x="792" y="571"/>
      <point x="750" y="532" type="curve"/>
      <point x="722" y="555" type="line"/>
      <point x="743" y="590"/>
      <point x="751" y="641"/>
      <point x="751" y="654" type="curve"/>
      <point x="751" y="654"/>
      <point x="751" y="654"/>
      <point x="751" y="654" type="curve"/>
      <point x="751" y="689"/>
      <point x="713" y="706"/>
    </contour>
    <contour>
      <point x="218" y="126" type="curve" smooth="yes"/>
      <point x="218" y="90"/>
      <point x="230" y="68"/>
      <point x="256" y="68" type="curve" smooth="yes"/>
      <point x="294" y="68"/>
      <point x="345" y="127"/>
      <point x="390" y="212" type="curve" smooth="yes"/>
      <point x="425" y="278"/>
      <point x="457" y="360"/>
      <point x="474" y="440" type="curve"/>
      <point x="462" y="450"/>
      <point x="443" y="456"/>
      <point x="421" y="456" type="curve" smooth="yes"/>
      <point x="302" y="456"/>
      <point x="218" y="220"/>
    </contour>
    <contour>
      <point x="64" y="120" type="curve" smooth="yes"/>
      <point x="64" y="238"/>
      <point x="166" y="502"/>
      <point x="403" y="502" type="curve" smooth="yes"/>
      <point x="414" y="502"/>
      <point x="424" y="501"/>
      <point x="434" y="500" type="curve" smooth="yes"/>
      <point x="454" y="497"/>
      <point x="470" y="492"/>
      <point x="483" y="485" type="curve"/>
      <point x="485" y="486" type="line"/>
      <point x="520" y="635" type="line" smooth="yes"/>
      <point x="526" y="662"/>
      <point x="523" y="674"/>
      <point x="505" y="677" type="curve"/>
      <point x="454" y="684" type="line"/>
      <point x="461" y="715" type="line"/>
      <point x="679" y="742" type="line"/>
      <point x="686" y="736" type="line"/>
      <point x="540" y="115" type="line"/>
      <point x="540" y="115" type="line"/>
      <point x="533" y="88"/>
      <point x="533" y="68"/>
      <point x="552" y="68" type="curve" smooth="yes"/>
      <point x="574" y="68"/>
      <point x="612" y="121"/>
      <point x="637" y="166" type="curve"/>
      <point x="666" y="152" type="line"/>
      <point x="626" y="65"/>
      <point x="562" y="-13"/>
      <point x="470" y="-13" type="curve" smooth="yes"/>
      <point x="406" y="-13"/>
      <point x="378" y="21"/>
      <point x="400" y="103" type="curve" smooth="yes"/>
      <point x="430" y="211" type="line"/>
      <point x="426" y="212" type="line"/>
      <point x="369" y="111"/>
      <point x="298" y="-12"/>
      <point x="171" y="-12" type="curve" smooth="yes"/>
      <point x="87" y="-12"/>
      <point x="64" y="55"/>
    </contour>
  </outline>
</glyph>
<glyph name="Dcroat" format="2">
  <advance width="774"/>
  <unicode hex="0110"/>
  <outline>
    <contour>
      <point x="292" y="97" type="line" smooth="yes"/>
      <point x="282" y="54"/>
      <point x="312" y="46"/>
      <point x="360" y="46" type="curve" smooth="yes"/>
      <point x="483" y="46"/>
      <point x="559" y="127"/>
      <point x="603" y="221" type="curve" smooth="yes"/>
      <point x="637" y="294"/>
      <point x="652" y="375"/>
      <point x="655" y="431" type="curve" smooth="yes"/>
      <point x="656" y="440"/>
      <point x="656" y="447"/>
      <point x="656" y="454" type="curve" smooth="yes"/>
      <point x="656" y="549"/>
      <point x="633" y="646"/>
      <point x="490" y="646" type="curve" smooth="yes"/>
      <point x="426" y="646"/>
      <point x="412" y="639"/>
      <point x="405" y="606" type="curve" smooth="yes"/>
      <point x="357" y="391" type="line"/>
      <point x="444" y="391" type="line"/>
      <point x="429" y="319" type="line"/>
      <point x="341" y="319" type="line"/>
    </contour>
    <contour>
      <point x="40" y="0" type="line"/>
      <point x="49" y="38" type="line"/>
      <point x="94" y="42" type="line"/>
      <point x="123" y="44"/>
      <point x="130" y="62"/>
      <point x="138" y="98" type="curve" smooth="yes"/>
      <point x="187" y="319" type="line"/>
      <point x="118" y="319" type="line"/>
      <point x="133" y="391" type="line"/>
      <point x="203" y="391" type="line"/>
      <point x="249" y="594" type="line" smooth="yes"/>
      <point x="252" y="606"/>
      <point x="254" y="616"/>
      <point x="254" y="624" type="curve" smooth="yes"/>
      <point x="254" y="640"/>
      <point x="249" y="648"/>
      <point x="230" y="649" type="curve"/>
      <point x="179" y="654" type="line"/>
      <point x="189" y="692" type="line"/>
      <point x="464" y="692" type="line"/>
      <point x="583" y="691"/>
      <point x="668" y="672"/>
      <point x="727" y="627" type="curve" smooth="yes"/>
      <point x="786" y="582"/>
      <point x="819" y="510"/>
      <point x="819" y="403" type="curve" smooth="yes"/>
      <point x="819" y="362"/>
      <point x="807" y="266"/>
      <point x="753" y="182" type="curve" smooth="yes"/>
      <point x="684" y="73"/>
      <point x="579" y="0"/>
      <point x="361" y="0" type="curve" smooth="yes"/>
    </contour>
  </outline>
</glyph>
<glyph name="dcroat" format="2">
  <advance width="609"/>
  <unicode hex="0111"/>
  <outline>
    <contour>
      <point x="218" y="126" type="curve" smooth="yes"/>
      <point x="218" y="90"/>
      <point x="230" y="68"/>
      <point x="256" y="68" type="curve" smooth="yes"/>
      <point x="294" y="68"/>
      <point x="345" y="127"/>
      <point x="390" y="212" type="curve" smooth="yes"/>
      <point x="425" y="278"/>
      <point x="457" y="360"/>
      <point x="474" y="440" type="curve"/>
      <point x="462" y="450"/>
      <point x="443" y="456"/>
      <point x="421" y="456" type="curve" smooth="yes"/>
      <point x="302" y="456"/>
      <point x="218" y="220"/>
    </contour>
    <contour>
      <point x="64" y="120" type="curve" smooth="yes"/>
      <point x="64" y="238"/>
      <point x="166" y="502"/>
      <point x="403" y="502" type="curve" smooth="yes"/>
      <point x="411" y="502"/>
      <point x="419" y="502"/>
      <point x="427" y="501" type="curve" smooth="yes"/>
      <point x="449" y="499"/>
      <point x="469" y="493"/>
      <point x="483" y="485" type="curve"/>
      <point x="485" y="486" type="line"/>
      <point x="503" y="565" type="line"/>
      <point x="398" y="565" type="line"/>
      <point x="414" y="637" type="line"/>
      <point x="499" y="637" type="line"/>
      <point x="520" y="637" type="line"/>
      <point x="526" y="662"/>
      <point x="522" y="674"/>
      <point x="505" y="677" type="curve"/>
      <point x="454" y="684" type="line"/>
      <point x="461" y="715" type="line"/>
      <point x="679" y="742" type="line"/>
      <point x="686" y="736" type="line"/>
      <point x="663" y="637" type="line"/>
      <point x="725" y="637" type="line"/>
      <point x="709" y="565" type="line"/>
      <point x="646" y="565" type="line"/>
      <point x="540" y="115" type="line"/>
      <point x="540" y="115" type="line"/>
      <point x="533" y="88"/>
      <point x="533" y="68"/>
      <point x="552" y="68" type="curve" smooth="yes"/>
      <point x="574" y="68"/>
      <point x="612" y="121"/>
      <point x="637" y="166" type="curve"/>
      <point x="666" y="152" type="line"/>
      <point x="626" y="65"/>
      <point x="564" y="-15"/>
      <point x="470" y="-15" type="curve" smooth="yes"/>
      <point x="408" y="-15"/>
      <point x="378" y="21"/>
      <point x="400" y="103" type="curve" smooth="yes"/>
      <point x="430" y="211" type="line"/>
      <point x="426" y="212" type="line"/>
      <point x="369" y="111"/>
      <point x="298" y="-12"/>
      <point x="171" y="-12" type="curve" smooth="yes"/>
      <point x="87" y="-12"/>
      <point x="64" y="55"/>
    </contour>
  </outline>
</glyph>
<glyph name="emacron" format="2">
  <advance width="476"/>
  <unicode hex="0113"/>
  <outline>
    <contour>
      <point x="226" y="232" type="curve"/>
      <point x="342" y="255"/>
      <point x="404" y="334"/>
      <point x="404" y="412" type="curve" smooth="yes"/>
      <point x="404" y="440"/>
      <point x="391" y="456"/>
      <point x="367" y="456" type="curve" smooth="yes"/>
      <point x="362" y="456"/>
      <point x="358" y="455"/>
      <point x="353" y="454" type="curve" smooth="yes"/>
      <point x="298" y="439"/>
      <point x="239" y="338"/>
    </contour>
    <contour>
      <point x="73" y="161" type="curve" smooth="yes"/>
      <point x="73" y="238"/>
      <point x="100" y="320"/>
      <point x="154" y="388" type="curve" smooth="yes"/>
      <point x="208" y="456"/>
      <point x="285" y="502"/>
      <point x="384" y="502" type="curve" smooth="yes"/>
      <point x="393" y="502"/>
      <point x="403" y="501"/>
      <point x="411" y="500" type="curve" smooth="yes"/>
      <point x="482" y="492"/>
      <point x="532" y="449"/>
      <point x="532" y="386" type="curve" smooth="yes"/>
      <point x="532" y="355"/>
      <point x="525" y="322"/>
      <point x="486" y="286" type="curve" smooth="yes"/>
      <point x="443" y="248"/>
      <point x="372" y="216"/>
      <point x="222" y="187" type="curve"/>
      <point x="222" y="179"/>
      <point x="222" y="171"/>
      <point x="222" y="163" type="curve" smooth="yes"/>
      <point x="222" y="109"/>
      <point x="241" y="54"/>
      <point x="300" y="54" type="curve" smooth="yes"/>
      <point x="360" y="54"/>
      <point x="407" y="100"/>
      <point x="460" y="176" type="curve"/>
      <point x="490" y="152" type="line"/>
      <point x="417" y="20"/>
      <point x="323" y="-12"/>
      <point x="236" y="-12" type="curve" smooth="yes"/>
      <point x="164" y="-12"/>
      <point x="73" y="23"/>
    </contour>
    <contour>
      <point x="250" y="592" type="line"/>
      <point x="265" y="664" type="line"/>
      <point x="576" y="664" type="line"/>
      <point x="561" y="592" type="line"/>
    </contour>
  </outline>
</glyph>
<glyph name="ebreve" format="2">
  <advance width="476"/>
  <unicode hex="0115"/>
  <outline>
    <contour>
      <point x="226" y="232" type="curve"/>
      <point x="342" y="255"/>
      <point x="404" y="334"/>
      <point x="404" y="412" type="curve" smooth="yes"/>
      <point x="404" y="440"/>
      <point x="391" y="456"/>
      <point x="367" y="456" type="curve" smooth="yes"/>
      <point x="362" y="456"/>
      <point x="358" y="455"/>
      <point x="353" y="454" type="curve" smooth="yes"/>
      <point x="298" y="439"/>
      <point x="239" y="338"/>
    </contour>
    <contour>
      <point x="73" y="161" type="curve" smooth="yes"/>
      <point x="73" y="238"/>
      <point x="100" y="320"/>
      <point x="154" y="388" type="curve" smooth="yes"/>
      <point x="208" y="456"/>
      <point x="285" y="502"/>
      <point x="384" y="502" type="curve" smooth="yes"/>
      <point x="393" y="502"/>
      <point x="403" y="501"/>
      <point x="411" y="500" type="curve" smooth="yes"/>
      <point x="482" y="492"/>
      <point x="532" y="449"/>
      <point x="532" y="386" type="curve" smooth="yes"/>
      <point x="532" y="355"/>
      <point x="525" y="322"/>
      <point x="486" y="286" type="curve" smooth="yes"/>
      <point x="443" y="248"/>
      <point x="372" y="216"/>
      <point x="222" y="187" type="curve"/>
      <point x="222" y="179"/>
      <point x="222" y="171"/>
      <point x="222" y="163" type="curve" smooth="yes"/>
      <point x="222" y="109"/>
      <point x="241" y="54"/>
      <point x="300" y="54" type="curve" smooth="yes"/>
      <point x="360" y="54"/>
      <point x="407" y="100"/>
      <point x="460" y="176" type="curve"/>
      <point x="490" y="152" type="line"/>
      <point x="417" y="20"/>
      <point x="323" y="-12"/>
      <point x="236" y="-12" type="curve" smooth="yes"/>
      <point x="164" y="-12"/>
      <point x="73" y="23"/>
    </contour>
    <contour>
      <point x="277" y="714" type="curve"/>
      <point x="311" y="714" type="line"/>
      <point x="306" y="688"/>
      <point x="311" y="639"/>
      <point x="411" y="639" type="curve" smooth="yes"/>
      <point x="514" y="639"/>
      <point x="545" y="688"/>
      <point x="555" y="714" type="curve"/>
      <point x="589" y="714" type="line"/>
      <point x="573" y="632"/>
      <point x="534" y="556"/>
      <point x="395" y="556" type="curve" smooth="yes"/>
      <point x="302" y="556"/>
      <point x="271" y="594"/>
      <point x="266" y="641" type="curve" smooth="yes"/>
      <point x="264" y="664"/>
      <point x="269" y="690"/>
    </contour>
  </outline>
</glyph>
<glyph name="ecaron" format="2">
  <advance width="476"/>
  <unicode hex="011B"/>
  <outline>
    <contour>
      <point x="226" y="232" type="curve"/>
      <point x="342" y="255"/>
      <point x="404" y="334"/>
      <point x="404" y="412" type="curve" smooth="yes"/>
      <point x="404" y="440"/>
      <point x="391" y="456"/>
      <point x="367" y="456" type="curve" smooth="yes"/>
      <point x="362" y="456"/>
      <point x="358" y="455"/>
      <point x="353" y="454" type="curve" smooth="yes"/>
      <point x="298" y="439"/>
      <point x="239" y="338"/>
    </contour>
    <contour>
      <point x="73" y="161" type="curve" smooth="yes"/>
      <point x="73" y="238"/>
      <point x="100" y="320"/>
      <point x="154" y="388" type="curve" smooth="yes"/>
      <point x="208" y="456"/>
      <point x="285" y="502"/>
      <point x="384" y="502" type="curve" smooth="yes"/>
      <point x="393" y="502"/>
      <point x="403" y="501"/>
      <point x="411" y="500" type="curve" smooth="yes"/>
      <point x="482" y="492"/>
      <point x="532" y="449"/>
      <point x="532" y="386" type="curve" smooth="yes"/>
      <point x="532" y="355"/>
      <point x="525" y="322"/>
      <point x="486" y="286" type="curve" smooth="yes"/>
      <point x="443" y="248"/>
      <point x="372" y="216"/>
      <point x="222" y="187" type="curve"/>
      <point x="222" y="179"/>
      <point x="222" y="171"/>
      <point x="222" y="163" type="curve" smooth="yes"/>
      <point x="222" y="109"/>
      <point x="241" y="54"/>
      <point x="300" y="54" type="curve" smooth="yes"/>
      <point x="360" y="54"/>
      <point x="407" y="100"/>
      <point x="460" y="176" type="curve"/>
      <point x="490" y="152" type="line"/>
      <point x="417" y="20"/>
      <point x="323" y="-12"/>
      <point x="236" y="-12" type="curve" smooth="yes"/>
      <point x="164" y="-12"/>
      <point x="73" y="23"/>
    </contour>
    <contour>
      <point x="238" y="720" type="line"/>
      <point x="267" y="747" type="line"/>
      <point x="380" y="651" type="line" smooth="yes"/>
      <point x="390" y="642"/>
      <point x="400" y="634"/>
      <point x="410" y="634" type="curve" smooth="yes"/>
      <point x="419" y="634"/>
      <point x="434" y="642"/>
      <point x="448" y="651" type="curve" smooth="yes"/>
      <point x="593" y="747" type="line"/>
      <point x="616" y="720" type="line"/>
      <point x="436" y="547" type="line" smooth="yes"/>
      <point x="420" y="531"/>
      <point x="403" y="520"/>
      <point x="388" y="520" type="curve" smooth="yes"/>
      <point x="371" y="520"/>
      <point x="362" y="533"/>
      <point x="352" y="548" type="curve" smooth="yes"/>
    </contour>
  </outline>
</glyph>
<glyph name="Gbreve" format="2">
  <advance width="726"/>
  <unicode hex="011E"/>
  <outline>
    <contour>
      <point x="111" y="284" type="curve" smooth="yes"/>
      <point x="111" y="374"/>
      <point x="138" y="473"/>
      <point x="203" y="558" type="curve" smooth="yes"/>
      <point x="267" y="642"/>
      <point x="382" y="707"/>
      <point x="551" y="707" type="curve" smooth="yes"/>
      <point x="617" y="707"/>
      <point x="714" y="697"/>
      <point x="775" y="655" type="curve"/>
      <point x="740" y="480" type="line"/>
      <point x="702" y="480" type="line"/>
      <point x="693" y="582"/>
      <point x="653" y="661"/>
      <point x="549" y="661" type="curve" smooth="yes"/>
      <point x="355" y="661"/>
      <point x="280" y="416"/>
      <point x="280" y="241" type="curve" smooth="yes"/>
      <point x="280" y="105"/>
      <point x="326" y="31"/>
      <point x="437" y="31" type="curve" smooth="yes"/>
      <point x="497" y="31"/>
      <point x="509" y="43"/>
      <point x="518" y="82" type="curve" smooth="yes"/>
      <point x="520" y="91"/>
      <point x="522" y="100"/>
      <point x="525" y="109" type="curve"/>
      <point x="551" y="216" type="line" smooth="yes"/>
      <point x="554" y="228"/>
      <point x="555" y="237"/>
      <point x="555" y="245" type="curve" smooth="yes"/>
      <point x="555" y="261"/>
      <point x="548" y="270"/>
      <point x="535" y="271" type="curve" smooth="yes"/>
      <point x="471" y="276" type="line"/>
      <point x="479" y="314" type="line"/>
      <point x="791" y="314" type="line"/>
      <point x="782" y="276" type="line"/>
      <point x="741" y="270" type="line" smooth="yes"/>
      <point x="725" y="268"/>
      <point x="718" y="259"/>
      <point x="713" y="244" type="curve" smooth="yes"/>
      <point x="710" y="236"/>
      <point x="708" y="227"/>
      <point x="705" y="216" type="curve" smooth="yes"/>
      <point x="663" y="38" type="line"/>
      <point x="591" y="-3"/>
      <point x="502" y="-15"/>
      <point x="427" y="-15" type="curve" smooth="yes"/>
      <point x="332" y="-15"/>
      <point x="253" y="7"/>
      <point x="198" y="55" type="curve" smooth="yes"/>
      <point x="143" y="104"/>
      <point x="111" y="179"/>
    </contour>
    <contour>
      <point x="429" y="892" type="curve"/>
      <point x="470" y="892" type="line"/>
      <point x="466" y="868"/>
      <point x="483" y="823"/>
      <point x="578" y="823" type="curve" smooth="yes"/>
      <point x="673" y="823"/>
      <point x="710" y="868"/>
      <point x="718" y="892" type="curve"/>
      <point x="759" y="892" type="line"/>
      <point x="742" y="818"/>
      <point x="695" y="746"/>
      <point x="560" y="746" type="curve" smooth="yes"/>
      <point x="425" y="746"/>
      <point x="412" y="818"/>
    </contour>
  </outline>
</glyph>
<glyph name="Gdotaccent" format="2">
  <advance width="726"/>
  <unicode hex="0120"/>
  <outline>
    <contour>
      <point x="111" y="284" type="curve" smooth="yes"/>
      <point x="111" y="374"/>
      <point x="138" y="473"/>
      <point x="203" y="558" type="curve" smooth="yes"/>
      <point x="267" y="642"/>
      <point x="382" y="707"/>
      <point x="551" y="707" type="curve" smooth="yes"/>
      <point x="617" y="707"/>
      <point x="714" y="697"/>
      <point x="775" y="655" type="curve"/>
      <point x="740" y="480" type="line"/>
      <point x="702" y="480" type="line"/>
      <point x="693" y="582"/>
      <point x="653" y="661"/>
      <point x="549" y="661" type="curve" smooth="yes"/>
      <point x="355" y="661"/>
      <point x="280" y="416"/>
      <point x="280" y="241" type="curve" smooth="yes"/>
      <point x="280" y="105"/>
      <point x="326" y="31"/>
      <point x="437" y="31" type="curve" smooth="yes"/>
      <point x="497" y="31"/>
      <point x="509" y="43"/>
      <point x="518" y="82" type="curve" smooth="yes"/>
      <point x="520" y="91"/>
      <point x="522" y="100"/>
      <point x="525" y="109" type="curve"/>
      <point x="551" y="216" type="line" smooth="yes"/>
      <point x="554" y="228"/>
      <point x="555" y="237"/>
      <point x="555" y="245" type="curve" smooth="yes"/>
      <point x="555" y="261"/>
      <point x="548" y="270"/>
      <point x="535" y="271" type="curve" smooth="yes"/>
      <point x="471" y="276" type="line"/>
      <point x="479" y="314" type="line"/>
      <point x="791" y="314" type="line"/>
      <point x="782" y="276" type="line"/>
      <point x="741" y="270" type="line" smooth="yes"/>
      <point x="725" y="268"/>
      <point x="718" y="259"/>
      <point x="713" y="244" type="curve" smooth="yes"/>
      <point x="710" y="236"/>
      <point x="708" y="227"/>
      <point x="705" y="216" type="curve" smooth="yes"/>
      <point x="663" y="38" type="line"/>
      <point x="591" y="-3"/>
      <point x="502" y="-15"/>
      <point x="427" y="-15" type="curve" smooth="yes"/>
      <point x="332" y="-15"/>
      <point x="253" y="7"/>
      <point x="198" y="55" type="curve" smooth="yes"/>
      <point x="143" y="104"/>
      <point x="111" y="179"/>
    </contour>
    <contour>
      <point x="495" y="806" type="curve" smooth="yes"/>
      <point x="495" y="844"/>
      <point x="523" y="881"/>
      <point x="574" y="881" type="curve"/>
      <point x="574" y="881"/>
      <point x="574" y="881"/>
      <point x="574" y="881" type="curve"/>
      <point x="620" y="881"/>
      <point x="647" y="852"/>
      <point x="652" y="819" type="curve" smooth="yes"/>
      <point x="653" y="814"/>
      <point x="653" y="810"/>
      <point x="653" y="806" type="curve" smooth="yes"/>
      <point x="653" y="768"/>
      <point x="626" y="732"/>
      <point x="574" y="732" type="curve"/>
      <point x="574" y="732"/>
      <point x="574" y="732"/>
      <point x="574" y="732" type="curve"/>
      <point x="523" y="732"/>
      <point x="495" y="768"/>
    </contour>
  </outline>
</glyph>
<glyph name="Hcircumflex" format="2">
  <advance width="800"/>
  <unicode hex="0124"/>
  <outline>
    <contour>
      <point x="40" y="0" type="line"/>
      <point x="49" y="38" type="line"/>
      <point x="94" y="42" type="line"/>
      <point x="123" y="44"/>
      <point x="130" y="62"/>
      <point x="138" y="98" type="curve" smooth="yes"/>
      <point x="249" y="594" type="line" smooth="yes"/>
      <point x="252" y="606"/>
      <point x="254" y="616"/>
      <point x="254" y="624" type="curve" smooth="yes"/>
      <point x="254" y="640"/>
      <point x="249" y="648"/>
      <point x="230" y="649" type="curve"/>
      <point x="179" y="654" type="line"/>
      <point x="189" y="692" type="line"/>
      <point x="501" y="692" type="line"/>
      <point x="491" y="654" type="line"/>
      <point x="447" y="650" type="line"/>
      <point x="418" y="648"/>
      <point x="411" y="630"/>
      <point x="403" y="594" type="curve" smooth="yes"/>
      <point x="357" y="387" type="line"/>
      <point x="617" y="387" type="line"/>
      <point x="663" y="594" type="line" smooth="yes"/>
      <point x="666" y="606"/>
      <point x="668" y="616"/>
      <point x="668" y="624" type="curve" smooth="yes"/>
      <point x="668" y="640"/>
      <point x="663" y="648"/>
      <point x="644" y="649" type="curve"/>
      <point x="593" y="654" type="line"/>
      <point x="603" y="692" type="line"/>
      <point x="915" y="692" type="line"/>
      <point x="905" y="654" type="line"/>
      <point x="861" y="650" type="line"/>
      <point x="832" y="648"/>
      <point x="825" y="630"/>
      <point x="817" y="594" type="curve" smooth="yes"/>
      <point x="706" y="98" type="line" smooth="yes"/>
      <point x="703" y="86"/>
      <point x="701" y="76"/>
      <point x="701" y="68" type="curve" smooth="yes"/>
      <point x="701" y="52"/>
      <point x="706" y="44"/>
      <point x="725" y="42" type="curve" smooth="yes"/>
      <point x="775" y="38" type="line"/>
      <point x="766" y="0" type="line"/>
      <point x="454" y="0" type="line"/>
      <point x="463" y="38" type="line"/>
      <point x="508" y="42" type="line"/>
      <point x="537" y="44"/>
      <point x="544" y="62"/>
      <point x="552" y="98" type="curve" smooth="yes"/>
      <point x="606" y="339" type="line"/>
      <point x="346" y="339" type="line"/>
      <point x="292" y="98" type="line" smooth="yes"/>
      <point x="289" y="86"/>
      <point x="287" y="76"/>
      <point x="287" y="68" type="curve" smooth="yes"/>
      <point x="287" y="52"/>
      <point x="292" y="44"/>
      <point x="311" y="42" type="curve" smooth="yes"/>
      <point x="361" y="38" type="line"/>
      <point x="352" y="0" type="line"/>
    </contour>
    <contour>
      <point x="381" y="755" type="line"/>
      <point x="553" y="879" type="line" smooth="yes"/>
      <point x="571" y="892"/>
      <point x="588" y="905"/>
      <point x="605" y="905" type="curve" smooth="yes"/>
      <point x="623" y="905"/>
      <point x="636" y="892"/>
      <point x="650" y="877" type="curve" smooth="yes"/>
      <point x="762" y="755" type="line"/>
      <point x="738" y="725" type="line"/>
      <point x="632" y="785" type="line" smooth="yes"/>
      <point x="626" y="789"/>
      <point x="620" y="792"/>
      <point x="616" y="794" type="curve" smooth="yes"/>
      <point x="606" y="798"/>
      <point x="599" y="800"/>
      <point x="591" y="800" type="curve"/>
      <point x="591" y="800"/>
      <point x="591" y="800"/>
      <point x="591" y="800" type="curve"/>
      <point x="581" y="800"/>
      <point x="568" y="795"/>
      <point x="549" y="787" type="curve" smooth="yes"/>
      <point x="398" y="725" type="line"/>
    </contour>
  </outline>
</glyph>
<glyph name="Hbar" format="2">
  <advance width="800"/>
  <unicode hex="0126"/>
  <outline>
    <contour>
      <point x="357" y="387" type="line"/>
      <point x="617" y="387" type="line"/>
      <point x="654" y="553" type="line"/>
      <point x="394" y="553" type="line"/>
    </contour>
    <contour>
      <point x="40" y="0" type="line"/>
      <point x="49" y="38" type="line"/>
      <point x="94" y="42" type="line"/>
      <point x="123" y="44"/>
      <point x="130" y="62"/>
      <point x="138" y="98" type="curve" smooth="yes"/>
      <point x="240" y="553" type="line"/>
      <point x="170" y="553" type="line"/>
      <point x="180" y="599" type="line"/>
      <point x="250" y="599" type="line"/>
      <point x="252" y="610"/>
      <point x="254" y="619"/>
      <point x="254" y="626" type="curve" smooth="yes"/>
      <point x="254" y="641"/>
      <point x="248" y="648"/>
      <point x="230" y="649" type="curve"/>
      <point x="179" y="654" type="line"/>
      <point x="189" y="692" type="line"/>
      <point x="501" y="692" type="line"/>
      <point x="491" y="654" type="line"/>
      <point x="447" y="650" type="line"/>
      <point x="428" y="649"/>
      <point x="419" y="641"/>
      <point x="412" y="626" type="curve" smooth="yes"/>
      <point x="409" y="619"/>
      <point x="407" y="610"/>
      <point x="404" y="599" type="curve"/>
      <point x="664" y="599" type="line"/>
      <point x="666" y="610"/>
      <point x="668" y="619"/>
      <point x="668" y="626" type="curve" smooth="yes"/>
      <point x="668" y="641"/>
      <point x="662" y="648"/>
      <point x="644" y="649" type="curve"/>
      <point x="593" y="654" type="line"/>
      <point x="603" y="692" type="line"/>
      <point x="915" y="692" type="line"/>
      <point x="905" y="654" type="line"/>
      <point x="861" y="650" type="line"/>
      <point x="842" y="649"/>
      <point x="833" y="641"/>
      <point x="826" y="626" type="curve" smooth="yes"/>
      <point x="823" y="619"/>
      <point x="821" y="610"/>
      <point x="818" y="599" type="curve"/>
      <point x="888" y="599" type="line"/>
      <point x="878" y="553" type="line"/>
      <point x="808" y="553" type="line"/>
      <point x="706" y="98" type="line"/>
      <point x="706" y="98" type="line"/>
      <point x="698" y="62"/>
      <point x="697" y="45"/>
      <point x="725" y="42" type="curve"/>
      <point x="775" y="38" type="line"/>
      <point x="766" y="0" type="line"/>
      <point x="454" y="0" type="line"/>
      <point x="463" y="38" type="line"/>
      <point x="508" y="42" type="line"/>
      <point x="537" y="44"/>
      <point x="544" y="62"/>
      <point x="552" y="98" type="curve" smooth="yes"/>
      <point x="606" y="339" type="line"/>
      <point x="346" y="339" type="line"/>
      <point x="292" y="98" type="line"/>
      <point x="292" y="98" type="line"/>
      <point x="284" y="62"/>
      <point x="283" y="45"/>
      <point x="311" y="42" type="curve"/>
      <point x="361" y="38" type="line"/>
      <point x="352" y="0" type="line"/>
    </contour>
  </outline>
</glyph>
<glyph name="hbar" format="2">
  <advance width="629"/>
  <unicode hex="0127"/>
  <outline>
    <contour>
      <point x="80" y="-12" type="line"/>
      <point x="219" y="0" type="line"/>
      <point x="246" y="102"/>
      <point x="261" y="156"/>
      <point x="284" y="213" type="curve" smooth="yes"/>
      <point x="323" y="314"/>
      <point x="405" y="422"/>
      <point x="454" y="422" type="curve" smooth="yes"/>
      <point x="469" y="422"/>
      <point x="479" y="411"/>
      <point x="479" y="392" type="curve" smooth="yes"/>
      <point x="479" y="384"/>
      <point x="477" y="375"/>
      <point x="474" y="364" type="curve" smooth="yes"/>
      <point x="400" y="113" type="line" smooth="yes"/>
      <point x="395" y="95"/>
      <point x="392" y="78"/>
      <point x="392" y="63" type="curve" smooth="yes"/>
      <point x="392" y="13"/>
      <point x="422" y="-12"/>
      <point x="474" y="-12" type="curve" smooth="yes"/>
      <point x="565" y="-12"/>
      <point x="626" y="65"/>
      <point x="666" y="152" type="curve"/>
      <point x="637" y="167" type="line"/>
      <point x="612" y="121"/>
      <point x="574" y="68"/>
      <point x="550" y="68" type="curve" smooth="yes"/>
      <point x="541" y="68"/>
      <point x="536" y="75"/>
      <point x="536" y="87" type="curve" smooth="yes"/>
      <point x="536" y="95"/>
      <point x="538" y="104"/>
      <point x="541" y="115" type="curve" smooth="yes"/>
      <point x="612" y="347" type="line" smooth="yes"/>
      <point x="620" y="371"/>
      <point x="624" y="393"/>
      <point x="624" y="413" type="curve" smooth="yes"/>
      <point x="624" y="468"/>
      <point x="595" y="502"/>
      <point x="536" y="502" type="curve" smooth="yes"/>
      <point x="432" y="502"/>
      <point x="343" y="397"/>
      <point x="289" y="295" type="curve"/>
      <point x="284" y="295" type="line"/>
      <point x="391" y="737" type="line"/>
      <point x="386" y="742" type="line"/>
      <point x="157" y="715" type="line"/>
      <point x="149" y="683" type="line"/>
      <point x="207" y="676" type="line" smooth="yes"/>
      <point x="220" y="674"/>
      <point x="226" y="669"/>
      <point x="226" y="655" type="curve" smooth="yes"/>
      <point x="226" y="649"/>
      <point x="225" y="642"/>
      <point x="223" y="633" type="curve" smooth="yes"/>
    </contour>
    <contour>
      <point x="150" y="605" type="line"/>
      <point x="139" y="559" type="line"/>
      <point x="551" y="559" type="line"/>
      <point x="561" y="605" type="line"/>
    </contour>
  </outline>
</glyph>
<glyph name="Imacron" format="2">
  <advance width="386"/>
  <unicode hex="012A"/>
  <outline>
    <contour>
      <point x="40" y="0" type="line"/>
      <point x="49" y="38" type="line"/>
      <point x="94" y="42" type="line"/>
      <point x="123" y="44"/>
      <point x="130" y="62"/>
      <point x="138" y="98" type="curve" smooth="yes"/>
      <point x="249" y="594" type="line"/>
      <point x="249" y="594" type="line"/>
      <point x="257" y="630"/>
      <point x="258" y="647"/>
      <point x="230" y="649" type="curve"/>
      <point x="179" y="654" type="line"/>
      <point x="189" y="692" type="line"/>
      <point x="501" y="692" type="line"/>
      <point x="491" y="654" type="line"/>
      <point x="447" y="650" type="line"/>
      <point x="418" y="648"/>
      <point x="411" y="630"/>
      <point x="403" y="594" type="curve" smooth="yes"/>
      <point x="292" y="98" type="line"/>
      <point x="292" y="98" type="line"/>
      <point x="284" y="62"/>
      <point x="283" y="45"/>
      <point x="311" y="42" type="curve"/>
      <point x="361" y="38" type="line"/>
      <point x="352" y="0" type="line"/>
    </contour>
    <contour>
      <point x="192" y="770" type="line"/>
      <point x="210" y="847" type="line"/>
      <point x="560" y="847" type="line"/>
      <point x="542" y="770" type="line"/>
    </contour>
  </outline>
</glyph>
<glyph name="imacron" format="2">
  <advance width="339"/>
  <unicode hex="012B"/>
  <outline>
    <contour>
      <point x="108" y="107" type="curve" smooth="yes"/>
      <point x="185" y="392" type="line"/>
      <point x="185" y="392" type="line"/>
      <point x="192" y="419"/>
      <point x="188" y="432"/>
      <point x="168" y="434" type="curve" smooth="yes"/>
      <point x="110" y="440" type="line"/>
      <point x="118" y="473" type="line"/>
      <point x="348" y="502" type="line"/>
      <point x="354" y="496" type="line"/>
      <point x="251" y="115" type="line"/>
      <point x="251" y="115" type="line"/>
      <point x="244" y="89"/>
      <point x="243" y="68"/>
      <point x="262" y="68" type="curve" smooth="yes"/>
      <point x="285" y="68"/>
      <point x="323" y="121"/>
      <point x="348" y="166" type="curve"/>
      <point x="378" y="149" type="line"/>
      <point x="336" y="65"/>
      <point x="275" y="-12"/>
      <point x="178" y="-12" type="curve" smooth="yes"/>
      <point x="111" y="-12"/>
      <point x="87" y="30"/>
    </contour>
    <contour>
      <point x="140" y="592" type="line"/>
      <point x="155" y="664" type="line"/>
      <point x="466" y="664" type="line"/>
      <point x="451" y="592" type="line"/>
    </contour>
  </outline>
</glyph>
<glyph name="Ibreve" format="2">
  <advance width="386"/>
  <unicode hex="012C"/>
  <outline>
    <contour>
      <point x="40" y="0" type="line"/>
      <point x="49" y="38" type="line"/>
      <point x="94" y="42" type="line"/>
      <point x="123" y="44"/>
      <point x="130" y="62"/>
      <point x="138" y="98" type="curve" smooth="yes"/>
      <point x="249" y="594" type="line"/>
      <point x="249" y="594" type="line"/>
      <point x="257" y="630"/>
      <point x="258" y="647"/>
      <point x="230" y="649" type="curve"/>
      <point x="179" y="654" type="line"/>
      <point x="189" y="692" type="line"/>
      <point x="501" y="692" type="line"/>
      <point x="491" y="654" type="line"/>
      <point x="447" y="650" type="line"/>
      <point x="418" y="648"/>
      <point x="411" y="630"/>
      <point x="403" y="594" type="curve" smooth="yes"/>
      <point x="292" y="98" type="line"/>
      <point x="292" y="98" type="line"/>
      <point x="284" y="62"/>
      <point x="283" y="45"/>
      <point x="311" y="42" type="curve"/>
      <point x="361" y="38" type="line"/>
      <point x="352" y="0" type="line"/>
    </contour>
    <contour>
      <point x="231" y="892" type="curve"/>
      <point x="272" y="892" type="line"/>
      <point x="268" y="868"/>
      <point x="285" y="823"/>
      <point x="380" y="823" type="curve" smooth="yes"/>
      <point x="475" y="823"/>
      <point x="512" y="868"/>
      <point x="520" y="892" type="curve"/>
      <point x="561" y="892" type="line"/>
      <point x="544" y="818"/>
      <point x="497" y="746"/>
      <point x="362" y="746" type="curve" smooth="yes"/>
      <point x="227" y="746"/>
      <point x="214" y="818"/>
    </contour>
  </outline>
</glyph>
<glyph name="ibreve" format="2">
  <advance width="339"/>
  <unicode hex="012D"/>
  <outline>
    <contour>
      <point x="108" y="107" type="curve" smooth="yes"/>
      <point x="185" y="392" type="line"/>
      <point x="185" y="392" type="line"/>
      <point x="192" y="419"/>
      <point x="188" y="432"/>
      <point x="168" y="434" type="curve" smooth="yes"/>
      <point x="110" y="440" type="line"/>
      <point x="118" y="473" type="line"/>
      <point x="348" y="502" type="line"/>
      <point x="354" y="496" type="line"/>
      <point x="251" y="115" type="line"/>
      <point x="251" y="115" type="line"/>
      <point x="244" y="89"/>
      <point x="243" y="68"/>
      <point x="262" y="68" type="curve" smooth="yes"/>
      <point x="285" y="68"/>
      <point x="323" y="121"/>
      <point x="348" y="166" type="curve"/>
      <point x="378" y="149" type="line"/>
      <point x="336" y="65"/>
      <point x="275" y="-12"/>
      <point x="178" y="-12" type="curve" smooth="yes"/>
      <point x="111" y="-12"/>
      <point x="87" y="30"/>
    </contour>
    <contour>
      <point x="167" y="714" type="curve"/>
      <point x="201" y="714" type="line"/>
      <point x="196" y="688"/>
      <point x="201" y="639"/>
      <point x="301" y="639" type="curve" smooth="yes"/>
      <point x="404" y="639"/>
      <point x="435" y="688"/>
      <point x="445" y="714" type="curve"/>
      <point x="479" y="714" type="line"/>
      <point x="463" y="632"/>
      <point x="424" y="556"/>
      <point x="285" y="556" type="curve" smooth="yes"/>
      <point x="192" y="556"/>
      <point x="161" y="594"/>
      <point x="156" y="641" type="curve" smooth="yes"/>
      <point x="154" y="664"/>
      <point x="159" y="690"/>
    </contour>
  </outline>
</glyph>
